<svg xmlns="http://www.w3.org/2000/svg" width="24" height="24" fill="none" viewBox="0 0 24 24">
  <path fill="#191E26" d="M6.413 6.553v5.693h1.582V5H6.423L4.45 6.28v1.484l1.885-1.211h.078ZM7.786 19H6l9.214-14H17L7.786 19Zm6.712-.003v-1.133l2.52-2.236c.52-.476.868-.83 1.044-1.065.176-.24.264-.478.264-.713v-.02a.87.87 0 0 0-.323-.693c-.208-.182-.491-.273-.85-.273-.377 0-.686.1-.927.303a1.013 1.013 0 0 0-.361.781v.04H14.41l-.01-.04c0-.703.26-1.273.781-1.709.528-.443 1.201-.664 2.022-.664.788 0 1.429.199 1.924.596.5.39.752.901.752 1.533v.02c0 .416-.134.82-.4 1.21-.261.391-.733.88-1.417 1.465l-1.465 1.228v.042h3.389v1.328h-5.488Z"/>
</svg>
