<svg xmlns="http://www.w3.org/2000/svg" width="24" height="24" fill="none" viewBox="0 0 24 24">
  <path fill="#191E26" fill-rule="evenodd" d="M6.68 5.982 2.34 18h1.657l1.069-3.052H9.83L10.888 18h1.764L8.312 5.982H6.68Zm2.679 7.605L7.787 9.05a8.732 8.732 0 0 1-.172-.541c-.044-.175-.085-.35-.123-.525h-.074c-.038.175-.082.35-.131.525a8.308 8.308 0 0 1-.156.541l-1.588 4.537h3.816Z" clip-rule="evenodd"/>
  <path fill="#191E26" d="M13.983 16.828V18h7.596v-1.398h-5.527l3.119-3.507a16.247 16.247 0 0 0 1.503-1.907 3.603 3.603 0 0 0 .606-2.037c0-.873-.32-1.616-.962-2.23-.64-.614-1.503-.921-2.586-.921-1.077 0-1.974.339-2.69 1.018-.712.673-1.067 1.554-1.067 2.642v.138h1.664v-.13c0-.748.2-1.322.598-1.72.404-.4.903-.599 1.495-.599.593 0 1.054.183 1.382.55.334.366.501.81.501 1.333 0 .523-.137 1.01-.412 1.463-.27.447-.662.956-1.18 1.527l-4.04 4.606Z"/>
</svg>
