<svg xmlns="http://www.w3.org/2000/svg" width="24" height="24" fill="none" viewBox="0 0 24 24">
  <path fill="#191E26" fill-rule="evenodd" d="m10.772 16.299 4-13a.75.75 0 1 0-1.434-.442l-.817 2.655a11.23 11.23 0 0 0-.52-.012c-3.62 0-6.931 1.73-9.938 5.188a2 2 0 0 0 0 2.624c2.061 2.371 4.267 3.93 6.615 4.675l-.63 2.046a.75.75 0 0 0 1.435.441l.655-2.131h.004a.752.752 0 0 1 .016-.064l.426-1.384.16-.523a.747.747 0 0 0 .028-.073Zm-1.652.254c-2.072-.66-4.04-2.057-5.925-4.225a.5.5 0 0 1 0-.656C5.933 8.522 8.85 7 12 7h.06a.719.719 0 0 0-.011.033l-.3.975a4 4 0 0 0-2.2 7.153l-.43 1.392Zm2.541 1.942c.113.003.226.005.34.005 3.617 0 6.93-1.73 9.936-5.188a2 2 0 0 0 0-2.624c-2.013-2.316-4.164-3.857-6.451-4.622l-.442 1.435c2.012.68 3.926 2.06 5.76 4.171a.5.5 0 0 1 0 .656c-2.702 3.11-5.577 4.633-8.682 4.671l-.46 1.496Zm.775-2.519a4 4 0 0 0 2.16-7.02l-2.16 7.02Z" clip-rule="evenodd"/>
</svg>
