<svg xmlns="http://www.w3.org/2000/svg" width="24" height="24" fill="none" viewBox="0 0 24 24">
  <path fill="#191E26" fill-rule="evenodd" d="M8.5 2.75a.75.75 0 0 1 .75.75V5h5.5V3.5a.75.75 0 0 1 1.5 0V5H17a4 4 0 0 1 4 4v6.5h-1.5v-4h-15V17A2.5 2.5 0 0 0 7 19.5h7V21H7a4 4 0 0 1-4-4V9a4 4 0 0 1 4-4h.75V3.5a.75.75 0 0 1 .75-.75ZM7.75 7.5v-1H7A2.5 2.5 0 0 0 4.5 9v1h15V9A2.5 2.5 0 0 0 17 6.5h-.75v1a.75.75 0 0 1-1.5 0v-1h-5.5v1a.75.75 0 0 1-1.5 0Z" clip-rule="evenodd"/>
  <path fill="#191E26" d="M16.75 18a.75.75 0 0 0 0 1.5h4.5a.75.75 0 0 0 0-1.5h-4.5Z"/>
</svg>
