<svg xmlns="http://www.w3.org/2000/svg" width="24" height="24" fill="none" viewBox="0 0 24 24">
  <path fill="#191E26" fill-rule="evenodd" d="M12.586 3.015V3l-.129.004a8.755 8.755 0 0 0 0 17.5h.005a2.085 2.085 0 0 0 1.542-3.478.577.577 0 0 1 .435-.962h1.582a5.202 5.202 0 0 0 5.195-5.195c0-4.334-3.881-7.794-8.63-7.854Zm-.122 1.5a7.255 7.255 0 0 0 .002 14.5.578.578 0 0 0 .59-.686.576.576 0 0 0-.162-.3l-.007-.007a2.086 2.086 0 0 1 1.553-3.458h1.581a3.693 3.693 0 0 0 3.685-3.695c0-3.476-3.207-6.354-7.242-6.355Zm.512 2.768a1.5 1.5 0 1 0 2.966.448 1.5 1.5 0 0 0-2.966-.448Zm-4 .2a1.5 1.5 0 1 0 2.966.448 1.5 1.5 0 0 0-2.966-.448Zm7.576 4.707A1.5 1.5 0 1 1 17 9.224a1.5 1.5 0 0 1-.448 2.966Z" clip-rule="evenodd"/>
</svg>
