<svg xmlns="http://www.w3.org/2000/svg" width="24" height="24" fill="none" viewBox="0 0 24 24">
  <path fill="#191E26" fill-rule="evenodd" d="M5.884 21.3a6.895 6.895 0 0 0 3.04.7 6.923 6.923 0 0 0 6.186-3.813 6.876 6.876 0 0 1-2.32.691A5.407 5.407 0 0 1 8.924 20.5a5.41 5.41 0 0 1-1.898-.341l-1.141 1.14Zm-.228-1.894A5.415 5.415 0 0 1 3.5 15.077c0-1.514.62-2.884 1.622-3.868a6.876 6.876 0 0 1 .691-2.319 6.923 6.923 0 0 0-1.226 11.584l1.069-1.068Z" clip-rule="evenodd" opacity=".3"/>
  <path fill="#191E26" fill-rule="evenodd" d="M8.96 18.222a6.923 6.923 0 0 0 9.226-3.112 6.879 6.879 0 0 1-2.318.691A5.407 5.407 0 0 1 12 17.423a5.38 5.38 0 0 1-1.898-.342L8.96 18.222Zm-.227-1.893a5.415 5.415 0 0 1-2.156-4.33c0-1.514.62-2.883 1.621-3.867a6.877 6.877 0 0 1 .692-2.319 6.923 6.923 0 0 0-1.226 11.584l1.069-1.068Z" clip-rule="evenodd" opacity=".6"/>
  <path fill="#191E26" fill-rule="evenodd" d="M1.924 22.076a.75.75 0 0 1 0-1.06L9.68 13.26a6.923 6.923 0 0 1 9.733-9.733l1.603-1.603a.75.75 0 0 1 1.06 1.06L2.984 22.076a.75.75 0 0 1-1.06 0Zm16.42-17.481L10.75 12.19a5.423 5.423 0 0 1 7.596-7.596Z" clip-rule="evenodd"/>
  <path fill="#191E26" d="M20.5 8.923a5.423 5.423 0 0 1-7.322 5.082l-1.14 1.14a6.923 6.923 0 0 0 9.261-9.261l-1.14 1.14a5.44 5.44 0 0 1 .341 1.9Z"/>
</svg>
