<svg xmlns="http://www.w3.org/2000/svg" width="24" height="24" fill="none" viewBox="0 0 24 24">
  <path fill="#191E26" fill-rule="evenodd" d="M19.25 9a.75.75 0 0 0 .75-.75V6a2 2 0 0 0-2-2H6a2 2 0 0 0-2 2v2.25a.75.75 0 0 0 1.5 0V6a.5.5 0 0 1 .5-.5h12a.5.5 0 0 1 .5.5v2.25c0 .414.336.75.75.75Zm-14.5 6a.75.75 0 0 1 .75.75V18a.5.5 0 0 0 .5.5h12a.5.5 0 0 0 .5-.5v-2.25a.75.75 0 0 1 1.5 0V18a2 2 0 0 1-2 2H6a2 2 0 0 1-2-2v-2.25a.75.75 0 0 1 .75-.75ZM22 12a.75.75 0 0 0-.75-.75h-.5a.75.75 0 0 0 0 1.5h.5A.75.75 0 0 0 22 12Zm-3.75-.75a.75.75 0 0 1 0 1.5h-.5a.75.75 0 0 1 0-1.5h.5Zm-3 0a.75.75 0 0 1 0 1.5h-.5a.75.75 0 0 1 0-1.5h.5Zm-3 0a.75.75 0 0 1 0 1.5h-.5a.75.75 0 0 1 0-1.5h.5Zm-3 0a.75.75 0 0 1 0 1.5h-.5a.75.75 0 0 1 0-1.5h.5Zm-3 0a.75.75 0 0 1 0 1.5h-.5a.75.75 0 0 1 0-1.5h.5Zm-3 0a.75.75 0 0 1 0 1.5h-.5a.75.75 0 0 1 0-1.5h.5Z" clip-rule="evenodd"/>
</svg>
