<svg xmlns="http://www.w3.org/2000/svg" width="24" height="24" fill="none" viewBox="0 0 24 24">
  <path fill="#191E26" d="m12.913 6.004-3.302 14H8.087l3.295-14h1.531ZM5.29 18V8.768h-.123l-2.765 1.973V9.065l2.895-2.057h1.706V18H5.29Zm8.75-1.14V18h7.253v-1.43h-4.966v-.14l2.278-2.272c.65-.646 1.157-1.197 1.52-1.653.367-.457.625-.877.774-1.259.149-.382.223-.777.223-1.184v-.022c0-.59-.151-1.115-.454-1.571a3.067 3.067 0 0 0-1.244-1.08c-.521-.263-1.114-.395-1.78-.395-.72 0-1.357.144-1.913.432-.556.283-.99.678-1.303 1.184-.313.502-.472 1.08-.477 1.735l.008.015 1.578.008v-.03c0-.392.085-.735.253-1.028.17-.293.405-.521.708-.685a2.172 2.172 0 0 1 1.05-.246c.392 0 .73.08 1.013.239.282.154.498.37.647.647.154.274.231.586.231.939v.015c0 .293-.054.566-.164.819-.104.253-.288.54-.55.864-.264.317-.634.724-1.11 1.22l-3.574 3.739Z"/>
</svg>
