<svg xmlns="http://www.w3.org/2000/svg" width="24" height="24" fill="none" viewBox="0 0 24 24">
  <path fill="#191E26" d="M19.75 2.75a.75.75 0 0 0-1.5 0v1.5h-1.5a.75.75 0 0 0 0 1.5h1.5v1.5a.75.75 0 0 0 1.5 0v-1.5h1.5a.75.75 0 0 0 0-1.5h-1.5v-1.5Z"/>
  <path fill="#191E26" d="M14.5 3.899a.69.69 0 0 0-.53-.683 9 9 0 1 0 6.813 6.813.69.69 0 0 0-.682-.529c-.501 0-.854.498-.753.99a7.5 7.5 0 1 1-5.838-5.838c.492.1.99-.252.99-.753Z"/>
  <path fill="#191E26" d="M17 11.5a1.5 1.5 0 1 1-3 0 1.5 1.5 0 0 1 3 0ZM8.5 13a1.5 1.5 0 1 0 0-3 1.5 1.5 0 0 0 0 3Zm.833 1.5a.333.333 0 0 0-.333.333 2.667 2.667 0 0 0 2.667 2.667h.666A2.667 2.667 0 0 0 15 14.833a.333.333 0 0 0-.333-.333H9.333Z"/>
</svg>
