<svg xmlns="http://www.w3.org/2000/svg" width="24" height="24" fill="none" viewBox="0 0 24 24">
  <path fill="#191E26" fill-rule="evenodd" d="M9 9a3.001 3.001 0 0 1-2.905-2.25H3.25a.75.75 0 1 1 0-1.5h2.845a3.001 3.001 0 0 1 5.81 0h8.845a.75.75 0 0 1 0 1.5h-8.845A3.001 3.001 0 0 1 9 9Zm-6.5 3a.75.75 0 0 1 .75-.75h8.845a3.001 3.001 0 0 1 5.81 0h2.845a.75.75 0 0 1 0 1.5h-2.845a3.001 3.001 0 0 1-5.81 0H3.25A.75.75 0 0 1 2.5 12Zm.75 5.25a.75.75 0 0 0 0 1.5h2.845a3.001 3.001 0 0 0 5.81 0h8.845a.75.75 0 0 0 0-1.5h-8.845a3.001 3.001 0 0 0-5.81 0H3.25ZM10.5 6a1.5 1.5 0 1 1-3 0 1.5 1.5 0 0 1 3 0Zm4.5 7.5a1.5 1.5 0 1 0 0-3 1.5 1.5 0 0 0 0 3ZM10.5 18a1.5 1.5 0 1 1-3 0 1.5 1.5 0 0 1 3 0Z" clip-rule="evenodd"/>
</svg>
