<svg xmlns="http://www.w3.org/2000/svg" width="24" height="24" fill="none" viewBox="0 0 24 24">
  <path fill="#191E26" fill-rule="evenodd" d="M12 2a6 6 0 0 1 6 6 2 2 0 0 1 2 2v6a2.5 2.5 0 0 0-1.5-2.292V10a.5.5 0 0 0-.5-.5H6a.5.5 0 0 0-.5.5v9a.5.5 0 0 0 .5.5h6.5V21H6a2 2 0 0 1-2-2v-9a2 2 0 0 1 2-2 6 6 0 0 1 6-6ZM7.5 8a4.5 4.5 0 0 1 9 0h-9Z" clip-rule="evenodd"/>
  <path fill="#191E26" fill-rule="evenodd" d="M15 15a1 1 0 0 0-1 1v5a1 1 0 0 0 1 1h5a1 1 0 0 0 1-1v-2.5a1 1 0 0 0-1-1h-1.5V16a1 1 0 0 0-1-1H15Zm1.25 5.5a.75.75 0 1 1 0-1.5.75.75 0 0 1 0 1.5Zm2.5 0a.75.75 0 1 0 0-1.5.75.75 0 0 0 0 1.5Z" clip-rule="evenodd"/>
  <path fill="#191E26" d="M13.778 12.643c0 .745-.42 1.388-1.027 1.684l-.003 3.034a.75.75 0 1 1-1.5-.002l.003-3.032a1.864 1.864 0 0 1-1.029-1.684c0-1.026.796-1.857 1.778-1.857s1.778.831 1.778 1.857Z"/>
</svg>
