<svg xmlns="http://www.w3.org/2000/svg" width="24" height="24" fill="none" viewBox="0 0 24 24">
  <path fill="#191E26" fill-rule="evenodd" d="M20.728 7.716a2.82 2.82 0 0 0-3.988-3.988l-2.41 2.41-1.541-1.542a.75.75 0 1 0-1.061 1.06l1.541 1.542-6.808 6.809a6 6 0 0 0-1.337 2.036l-1.515 3.83a.75.75 0 0 0 .973.974l3.831-1.515a6.002 6.002 0 0 0 2.036-1.337l6.809-6.809 1.541 1.542a.75.75 0 0 0 1.06-1.06l-1.54-1.542 2.409-2.41Zm-3.47 1.35 2.41-2.41A1.32 1.32 0 1 0 17.8 4.789l-2.41 2.41 1.868 1.866Zm-2.928-.807-6.808 6.808a4.5 4.5 0 0 0-.642.809h3.567l5.75-5.75-1.867-1.867Z" clip-rule="evenodd"/>
</svg>
