<svg xmlns="http://www.w3.org/2000/svg" width="24" height="24" fill="none" viewBox="0 0 24 24">
  <path fill="#191E26" fill-rule="evenodd" d="m21.177 6.515-7.852-3.863a3 3 0 0 0-2.65 0l-7.85 3.863a1 1 0 0 0 0 1.795L9 11.349V9.677L4.398 7.412l6.94-3.414a1.5 1.5 0 0 1 1.324 0l6.94 3.414L15 9.677v1.672l6.177-3.04a1 1 0 0 0 0-1.794ZM2.823 11.652l1.697-.835 1.699.835-1.822.897L9 14.813v1.672l-6.176-3.039a1 1 0 0 1 0-1.794Zm16.779.897-1.822-.897 1.698-.835 1.698.835a1 1 0 0 1 0 1.794L15 16.486v-1.673l4.602-2.264ZM11.25 6.886a.75.75 0 0 1 1.5 0V20.25a.76.76 0 0 1-.003.073l2.255-2.255a.75.75 0 1 1 1.06 1.06l-2.828 2.829a1.75 1.75 0 0 1-2.475 0L7.93 19.129a.75.75 0 0 1 1.061-1.061l2.263 2.263a.752.752 0 0 1-.004-.081V6.886Z" clip-rule="evenodd"/>
</svg>
