<svg xmlns="http://www.w3.org/2000/svg" width="24" height="24" fill="none" viewBox="0 0 24 24">
  <path fill="#191E26" fill-rule="evenodd" d="M10.834 3H7.02a4 4 0 0 0-4.002 3.993L3 16.99a4 4 0 0 0 4.002 4.006h.043l.302.003c4.403 0 5.472-3.792 5.554-5.709v-.315l1.98 1.987a.75.75 0 0 0 1.064-1.058l-3.278-3.29a.75.75 0 0 0-1.063 0l-3.277 3.29a.75.75 0 1 0 1.063 1.058l2.01-2.018v.346a4.251 4.251 0 0 1-3.642 4.206h-.756A2.5 2.5 0 0 1 4.5 16.994l.01-5.975h14.988v5.979a2.5 2.5 0 0 1-2.5 2.5h-2.957a.75.75 0 0 0 0 1.5h2.957a4 4 0 0 0 4.001-4v-8.23a3 3 0 0 0-3.001-3h-3.616a.5.5 0 0 1-.447-.276l-.417-.834A3.001 3.001 0 0 0 10.834 3ZM7.02 4.5h3.815a1.5 1.5 0 0 1 1.343.829l.417.834a2 2 0 0 0 1.79 1.106H18a1.5 1.5 0 0 1 1.5 1.5v.75H4.513l.005-2.524a2.5 2.5 0 0 1 2.5-2.495Z" clip-rule="evenodd"/>
</svg>
