<svg xmlns="http://www.w3.org/2000/svg" width="24" height="24" fill="none" viewBox="0 0 24 24">
  <g opacity=".2">
    <path fill="#191E26" fill-rule="evenodd" d="M14.25 4.5h-4.5v15h4.5v-15ZM19 3a2 2 0 0 1 2 2v14a2 2 0 0 1-2 2H5a2 2 0 0 1-2-2V5a2 2 0 0 1 2-2h14Zm-3.25 16.5H19a.5.5 0 0 0 .5-.5V5a.5.5 0 0 0-.5-.5h-3.25v15ZM5 19.5h3.25v-15H5a.5.5 0 0 0-.5.5v14a.5.5 0 0 0 .5.5Z" clip-rule="evenodd"/>
    <path fill="#191E26" fill-rule="evenodd" d="M21 8H3v7.5h18V8Zm-1.5 1.5h-15V14h15V9.5Z" clip-rule="evenodd"/>
  </g>
  <mask id="a" width="2" height="18" x="3" y="3" maskUnits="userSpaceOnUse" style="mask-type:alpha">
    <path fill="#C4C4C4" d="M3 3h1.5v18H3z"/>
  </mask>
  <g mask="url(#a)">
    <path fill="#191E26" fill-rule="evenodd" d="M4.5 3A1.5 1.5 0 0 0 3 4.5v15A1.5 1.5 0 0 0 4.5 21V3Z" clip-rule="evenodd"/>
  </g>
</svg>
