<svg xmlns="http://www.w3.org/2000/svg" width="24" height="24" fill="none" viewBox="0 0 24 24">
  <path fill="#191E26" d="M13.513 15.97a.75.75 0 0 1 1.06 1.06l-1.22 1.22h7.797a.75.75 0 0 1 0 1.5h-7.796l1.22 1.22a.75.75 0 0 1-1.061 1.06l-2.146-2.145A1.257 1.257 0 0 1 11 19a1.252 1.252 0 0 1 .367-.885l2.146-2.145Zm-5.737-2.822h.117l2.631-8.012H12.2L8.686 15H6.983L3.477 5.136h1.668l2.631 8.012ZM19.547 15h-1.613L15.22 6.865h-.117l-1.418 4.239h2.949l.41 1.23h-3.77L12.383 15H10.77l3.561-9.864h1.661L19.547 15Z"/>
</svg>
