<svg xmlns="http://www.w3.org/2000/svg" width="24" height="24" fill="none" viewBox="0 0 24 24">
  <path fill="#191E26" d="M11.445 5.489c-2.034-.407-2.91-1.387-3.318-3.37a.25.25 0 0 0-.24-.189.25.25 0 0 0-.242.192c-.407 2.033-1.334 2.96-3.317 3.367a.254.254 0 0 0 0 .508c2.033.407 2.907 1.366 3.313 3.349a.25.25 0 0 0 .245.21.25.25 0 0 0 .243-.197c.407-2.034 1.333-2.955 3.316-3.362a.254.254 0 1 0 0-.508Z"/>
  <path fill="#191E26" fill-rule="evenodd" d="M21.223 5.24a3.057 3.057 0 0 0-4.322 0L6.87 15.267a5.419 5.419 0 0 0-1.296 2.08l-1.12 3.282a1.087 1.087 0 0 0 1.378 1.38L9.1 20.896a5.42 5.42 0 0 0 2.086-1.299L21.223 9.562a3.057 3.057 0 0 0 0-4.323ZM19.09 9.573 20.163 8.5a1.557 1.557 0 1 0-2.203-2.2l-1.073 1.073 2.202 2.201Zm-1.061 1.06-2.201-2.2-6.633 6.632a6.214 6.214 0 0 1 2.2 2.204l6.634-6.635Zm-7.743 7.744a4.71 4.71 0 0 0-2.198-2.204l-.156.155a3.918 3.918 0 0 0-.937 1.505l-.53 1.55c.279.113.5.337.61.618l1.542-.525a3.922 3.922 0 0 0 1.51-.94l.16-.16Z" clip-rule="evenodd"/>
  <path fill="#191E26" d="M3.97 8.141c.17.859.67 1.271 1.527 1.529a.187.187 0 0 1 0 .374c-.857.171-1.27.67-1.527 1.528a.187.187 0 1 1-.374 0c-.171-.858-.67-1.27-1.528-1.528a.187.187 0 1 1 0-.374c.858-.171 1.27-.67 1.528-1.528a.187.187 0 0 1 .374 0Z"/>
</svg>
