<svg xmlns="http://www.w3.org/2000/svg" width="24" height="24" fill="none" viewBox="0 0 24 24">
  <path fill="#191E26" d="M8 6a2 2 0 1 1-4 0 2 2 0 0 1 4 0Z"/>
  <path fill="#191E26" fill-rule="evenodd" d="M6 17a2 2 0 1 0 0-4 2 2 0 0 0 0 4Zm1-2a1 1 0 1 1-2 0 1 1 0 0 1 2 0Zm5-11a2 2 0 0 0-2 2v3a2 2 0 0 0 2 2h6a2 2 0 0 0 2-2V6a2 2 0 0 0-2-2h-6Zm-.5 2a.5.5 0 0 1 .5-.5h6a.5.5 0 0 1 .5.5v3a.5.5 0 0 1-.5.5h-6a.5.5 0 0 1-.5-.5V6ZM10 15a2 2 0 0 1 2-2h6a2 2 0 0 1 2 2v3a2 2 0 0 1-2 2h-6a2 2 0 0 1-2-2v-3Zm1.5 0a.5.5 0 0 1 .5-.5h6a.5.5 0 0 1 .5.5v3a.5.5 0 0 1-.5.5h-6a.5.5 0 0 1-.5-.5v-3Z" clip-rule="evenodd"/>
</svg>
