<svg xmlns="http://www.w3.org/2000/svg" width="24" height="24" fill="none" viewBox="0 0 24 24">
  <path fill="#191E26" fill-rule="evenodd" d="M3 6a3 3 0 0 1 3-3h2.25a3 3 0 0 1 3 3v2.25a3 3 0 0 1-3 3H6a3 3 0 0 1-3-3V6Zm3-1.5h2.25A1.5 1.5 0 0 1 9.75 6v2.25a1.5 1.5 0 0 1-1.5 1.5H6a1.5 1.5 0 0 1-1.5-1.5V6A1.5 1.5 0 0 1 6 4.5Z" clip-rule="evenodd"/>
  <path fill="#191E26" d="M16.125 14.125a.75.75 0 0 1 1.5 0v2h2a.75.75 0 0 1 0 1.5h-2v2a.75.75 0 0 1-1.5 0v-2h-2a.75.75 0 0 1 0-1.5h2v-2Z"/>
  <path fill="#191E26" fill-rule="evenodd" d="M6 12.75a3 3 0 0 0-3 3V18a3 3 0 0 0 3 3h2.25a3 3 0 0 0 3-3v-2.25a3 3 0 0 0-3-3H6Zm2.25 1.5H6a1.5 1.5 0 0 0-1.5 1.5V18A1.5 1.5 0 0 0 6 19.5h2.25a1.5 1.5 0 0 0 1.5-1.5v-2.25a1.5 1.5 0 0 0-1.5-1.5ZM12.75 6a3 3 0 0 1 3-3H18a3 3 0 0 1 3 3v2.25a3 3 0 0 1-3 3h-2.25a3 3 0 0 1-3-3V6Zm3-1.5H18A1.5 1.5 0 0 1 19.5 6v2.25a1.5 1.5 0 0 1-1.5 1.5h-2.25a1.5 1.5 0 0 1-1.5-1.5V6a1.5 1.5 0 0 1 1.5-1.5Z" clip-rule="evenodd"/>
</svg>
