<svg xmlns="http://www.w3.org/2000/svg" width="24" height="24" fill="none" viewBox="0 0 24 24">
  <path fill="url(#a)" d="M10.508 4.077C8.474 3.671 7.597 2.69 7.19.707A.25.25 0 0 0 6.95.52a.25.25 0 0 0-.242.191C6.3 2.744 5.373 3.67 3.39 4.077a.254.254 0 0 0 0 .509c2.033.406 2.906 1.366 3.313 3.348a.25.25 0 0 0 .245.21.25.25 0 0 0 .243-.197c.406-2.033 1.333-2.955 3.316-3.361a.254.254 0 0 0 0-.509Z"/>
  <path fill="url(#b)" fill-rule="evenodd" d="M20.715 3.166a.75.75 0 0 1 .277.583v6.918a.75.75 0 0 1 .008.11v.48c0 .07-.002.14-.008.208v3.832a.71.71 0 0 1 .006.16c-.077 1.12-.585 1.933-1.318 2.44-.703.484-1.555.65-2.312.634a2.878 2.878 0 0 1-2.865-2.882 2.882 2.882 0 0 1 1.89-2.706.743.743 0 0 1 .098-.028l2.027-.436c.53-.113.919-.553.978-1.082V8.396l-9.998 2.147v7.315c0 .022 0 .045-.002.069-.078 1.12-.585 1.932-1.319 2.438-.702.485-1.554.651-2.311.634A2.878 2.878 0 0 1 3 18.118a2.882 2.882 0 0 1 1.89-2.706.758.758 0 0 1 .099-.029l2.027-.435A1.25 1.25 0 0 0 8 13.728V9.375l2.016-.477 9.48-2.036V4.677l-7.262 1.56V4.703l7.853-1.687a.747.747 0 0 1 .627.15Zm-1.883 10.78c.235-.05.457-.13.664-.235v1.663l.003.063c-.064.626-.334.994-.668 1.224-.375.26-.895.383-1.436.37h-.018a1.382 1.382 0 0 1-.526-2.66l1.98-.425Zm-10.83 2.23a2.737 2.737 0 0 1-.673.239l-1.98.425a1.383 1.383 0 0 0 .526 2.66h.018c.54.013 1.06-.11 1.436-.37.343-.237.62-.621.672-1.283v-1.671Z" clip-rule="evenodd"/>
  <path fill="url(#c)" d="M3.033 6.73c.171.857.67 1.27 1.527 1.528a.187.187 0 0 1 0 .374c-.857.171-1.27.67-1.527 1.527a.187.187 0 0 1-.374 0c-.171-.857-.67-1.27-1.528-1.527a.187.187 0 0 1 0-.374c.858-.172 1.27-.67 1.528-1.528a.187.187 0 0 1 .374 0Z"/>
  <defs>
    <linearGradient id="a" x1="-9.084" x2="11.393" y1="10.76" y2="30.811" gradientUnits="userSpaceOnUse">
      <stop stop-color="#03A5AB"/>
      <stop offset="1" stop-color="#7D2AE8"/>
    </linearGradient>
    <linearGradient id="b" x1="-9.084" x2="11.393" y1="10.76" y2="30.811" gradientUnits="userSpaceOnUse">
      <stop stop-color="#03A5AB"/>
      <stop offset="1" stop-color="#7D2AE8"/>
    </linearGradient>
    <linearGradient id="c" x1="-9.084" x2="11.393" y1="10.76" y2="30.811" gradientUnits="userSpaceOnUse">
      <stop stop-color="#03A5AB"/>
      <stop offset="1" stop-color="#7D2AE8"/>
    </linearGradient>
  </defs>
</svg>
