<svg xmlns="http://www.w3.org/2000/svg" width="24" height="24" fill="none" viewBox="0 0 24 24">
  <path fill="#191E26" d="M18.63 10.66c.22.09.47.14.72.14 1.1 0 2-.9 2-2 0-.39-.14-.73-.32-1.07a10.043 10.043 0 0 0-5.02-4.89s-.01 0-.01-.01c-.04-.02-.08-.03-.08-.03-.22-.08-.45-.13-.69-.13-1.1 0-2 .9-2 2 0 .32.1.64.1.64.11.28.3.6.37.73l-2.54 1.91-4.55-4.54-1.06 1.06 13.98 13.98 1.06-1.06-4.55-4.55L18 10.36c.16.07.63.3.63.3Zm-1.8-1.24-1.86 2.34-2.73-2.73 2.37-1.78 1.02-.76-.59-1.13-.08-.15c-.05-.1-.14-.25-.19-.37-.01-.06-.03-.13-.03-.15 0-.28.22-.5.5-.5.05 0 .1.01.17.04l.1.04c1.83.83 3.31 2.29 4.2 4.16.04.07.15.29.15.38 0 .28-.22.5-.5.5-.04 0-.09-.01-.14-.02-.13-.06-.42-.2-.53-.26l-1.09-.56-.77.95Zm-2.91 8.02-7.39-7.39c.57-.33 1.2-.41 1.67-.41.14 0 .29.03.44.04L7.19 8.24c-.79.15-1.53.48-2.13 1.02l-.01.01c-.37.38-.4 1.01.01 1.41l3.42 3.42c-1.21 1.22-4.21 4.21-5.02 5.03-.3.3-.46.68-.46 1.08V21h.79c.4 0 .78-.16 1.06-.44.83-.83 3.86-3.86 5.04-5.03l3.38 3.38c.2.2.46.29.71.29.22 0 .45-.07.63-.21l.08-.08c.54-.6.87-1.34 1.03-2.15l-1.44-1.44c.08.8-.03 1.53-.36 2.12Z"/>
</svg>
