<svg xmlns="http://www.w3.org/2000/svg" width="24" height="24" fill="none" viewBox="0 0 24 24">
  <path fill="#191E26" fill-rule="evenodd" d="M7.725 4.59A4.502 4.502 0 0 1 16.5 6v2H6a2 2 0 0 0-2 2v9a2 2 0 0 0 2 2h12a2 2 0 0 0 2-2v-9a2 2 0 0 0-2-2V6A6 6 0 0 0 6.3 4.12a.75.75 0 0 0 1.425.47ZM5.5 10a.5.5 0 0 1 .5-.5h12a.5.5 0 0 1 .5.5v9a.5.5 0 0 1-.5.5H6a.5.5 0 0 1-.5-.5v-9Zm5.751 4.328-.003 3.031a.75.75 0 1 0 1.5.002l.003-3.034a1.864 1.864 0 0 0 1.027-1.684c0-1.026-.796-1.857-1.778-1.857s-1.778.831-1.778 1.857c0 .746.421 1.39 1.029 1.685Z" clip-rule="evenodd"/>
</svg>
