<svg xmlns="http://www.w3.org/2000/svg" width="24" height="24" fill="none" viewBox="0 0 24 24">
  <path fill="#191E26" fill-rule="evenodd" d="M19.404 8.002h-1.032V4.075h-.062l-1.21.834v-.96l1.275-.879h1.029v4.932ZM5.25 5.25a.75.75 0 1 0 0 1.5h7.5a.75.75 0 0 0 0-1.5h-7.5Zm-.06 6a.75.75 0 0 0 0 1.5h7.5a.75.75 0 0 0 0-1.5h-7.5ZM4.5 18a.75.75 0 0 1 .75-.75h7.5a.75.75 0 0 1 0 1.5h-7.5A.75.75 0 0 1 4.5 18Zm12.1-6.956v.018h.957v-.021c0-.455.328-.769.807-.769.45 0 .772.28.772.677 0 .321-.174.577-.868 1.254l-1.61 1.576v.721h3.558v-.858h-2.16v-.061l.943-.9c.855-.803 1.145-1.264 1.145-1.8 0-.848-.717-1.44-1.746-1.44-1.067 0-1.798.65-1.798 1.603Zm1.714 7.815h-.612v-.77h.602c.468 0 .786-.272.786-.676 0-.396-.308-.65-.79-.65-.478 0-.796.27-.823.698h-.954c.034-.933.728-1.521 1.805-1.521 1.011 0 1.74.554 1.74 1.33 0 .57-.36 1.015-.91 1.128v.061c.677.075 1.1.526 1.1 1.176 0 .865-.813 1.49-1.937 1.49-1.1 0-1.846-.608-1.89-1.538h.988c.03.417.382.68.912.68.516 0 .875-.29.875-.71 0-.431-.338-.698-.892-.698Z" clip-rule="evenodd"/>
</svg>
