<svg xmlns="http://www.w3.org/2000/svg" width="24" height="24" fill="none" viewBox="0 0 24 24">
  <path fill="#191E26" fill-rule="evenodd" d="M18 8A6 6 0 0 0 6 8a2 2 0 0 0-2 2v9a2 2 0 0 0 2 2h9c0-.073.007-.146.018-.219.072-.453.211-.884.407-1.281H6a.5.5 0 0 1-.5-.5v-9a.5.5 0 0 1 .5-.5h12a.5.5 0 0 1 .5.5v2.633a3.251 3.251 0 0 1 1.5-.101V10a2 2 0 0 0-2-2Zm-6-4.5A4.5 4.5 0 0 0 7.5 8h9A4.5 4.5 0 0 0 12 3.5Z" clip-rule="evenodd"/>
  <path fill="#191E26" d="M12.75 14.327a1.864 1.864 0 0 0 1.028-1.684c0-1.026-.796-1.857-1.778-1.857s-1.778.831-1.778 1.857c0 .746.421 1.39 1.029 1.684l-.003 3.032a.75.75 0 0 0 1.5.002l.003-3.034Zm8.463 1.411a1.75 1.75 0 1 1-3.5 0 1.75 1.75 0 0 1 3.5 0ZM16.5 21.015a3 3 0 0 1 5.926 0 4.977 4.977 0 0 1-2.963.973 4.978 4.978 0 0 1-2.963-.973Z"/>
</svg>
