<svg xmlns="http://www.w3.org/2000/svg" width="24" height="24" fill="none" viewBox="0 0 24 24">
  <path fill="#191E26" d="M7.75 8.75h8.5a.75.75 0 0 1 0 1.5h-8.5a.75.75 0 1 1 0-1.5Zm6.5 3h-6.5a.75.75 0 0 0 0 1.5h6.5a.75.75 0 0 0 0-1.5Z"/>
  <path fill="#191E26" fill-rule="evenodd" d="M18.697 18.648V18H19a2 2 0 0 0 2-2V5.995a2 2 0 0 0-2-2H5a2 2 0 0 0-2 2l-.001 10.006A2 2 0 0 0 5 18l8.05-.005 3.64 1.84c.97.505 1.966-.083 2.006-1.187ZM19 16.5h-1.803v1.91l-3.79-1.915L5 16.5a.5.5 0 0 1-.5-.5V5.995a.5.5 0 0 1 .5-.5h14a.5.5 0 0 1 .5.5V16a.5.5 0 0 1-.5.5Z" clip-rule="evenodd"/>
</svg>
