<svg xmlns="http://www.w3.org/2000/svg" width="24" height="24" fill="none" viewBox="0 0 24 24">
  <path fill="#191E26" fill-rule="evenodd" d="M12.107 3H5a2 2 0 0 0-2 2v14a2 2 0 0 0 2 2h14a2 2 0 0 0 2-2v-8h-1.5v3H10v-4h2.107V8.5H10v-4h2.107V3ZM8.5 4.5H5a.5.5 0 0 0-.5.5v3.5h4v-4Zm-4 5.5v4h4v-4h-4Zm0 5.5V19a.5.5 0 0 0 .5.5h3.5v-4h-4Zm5.5 4h9a.5.5 0 0 0 .5-.5v-3.5H10v4Z" clip-rule="evenodd"/>
  <path fill="#191E26" d="M17.196 8.338c-.857-.257-1.356-.67-1.528-1.527a.187.187 0 0 0-.373 0c-.258.857-.67 1.356-1.528 1.527a.187.187 0 0 0 0 .374c.857.257 1.356.67 1.528 1.528a.187.187 0 0 0 .373 0c.258-.857.67-1.356 1.528-1.528a.187.187 0 1 0 0-.374Zm5.948-4.18C21.11 3.75 20.233 2.77 19.826.788a.25.25 0 0 0-.24-.188.25.25 0 0 0-.242.19c-.005.004.004-.007 0 0-.407 2.034-1.335 2.961-3.317 3.368a.254.254 0 0 0 0 .508c2.033.407 2.906 1.367 3.313 3.349a.25.25 0 0 0 .245.21.25.25 0 0 0 .243-.197c-.003.005.003-.004 0 0 .407-2.033 1.333-2.955 3.316-3.362a.254.254 0 0 0 0-.508Z"/>
</svg>
