<svg xmlns="http://www.w3.org/2000/svg" width="24" height="24" fill="none" viewBox="0 0 24 24">
  <path fill="#191E26" d="M8 6a2 2 0 1 1-4 0 2 2 0 0 1 4 0Zm3.75-.75a.75.75 0 0 0 0 1.5h7.5a.75.75 0 0 0 0-1.5h-7.5Zm0 6a.75.75 0 0 0 0 1.5h7.5a.75.75 0 0 0 0-1.5h-7.5ZM11 18a.75.75 0 0 1 .75-.75h7.5a.75.75 0 0 1 0 1.5h-7.5A.75.75 0 0 1 11 18Z"/>
  <path fill="#191E26" fill-rule="evenodd" d="M8 12a2 2 0 1 1-4 0 2 2 0 0 1 4 0Zm-2 1a1 1 0 1 0 0-2 1 1 0 0 0 0 2Zm0 7a2 2 0 1 0 0-4 2 2 0 0 0 0 4Zm1-2a1 1 0 1 1-2 0 1 1 0 0 1 2 0Z" clip-rule="evenodd"/>
</svg>
