<svg xmlns="http://www.w3.org/2000/svg" width="24" height="24" fill="none" viewBox="0 0 24 24">
  <path fill="#191E26" d="M17 4.5H7A2.5 2.5 0 0 0 4.5 7v10c0 .484.138.936.376 1.319L5.5 19l.517.3c.302.128.634.2.983.2h1.5V21H7a4 4 0 0 1-4-4V7a4 4 0 0 1 4-4h10a4 4 0 0 1 4 4v8.5h-1.5V7A2.5 2.5 0 0 0 17 4.5Z"/>
  <path fill="#191E26" fill-rule="evenodd" d="M17.75 17a3 3 0 0 1 2.905 2.25h2.095a.75.75 0 0 1 0 1.5h-2.095a3.001 3.001 0 0 1-5.81 0H11.75a.75.75 0 0 1 0-1.5h3.095A3.001 3.001 0 0 1 17.75 17Zm-1.5 3a1.5 1.5 0 1 1 3 0 1.5 1.5 0 0 1-3 0Z" clip-rule="evenodd"/>
  <path fill="#191E26" d="M7.5 8a1 1 0 0 0 0 2h8a1 1 0 1 0 0-2h-8Zm0 5a1 1 0 1 0 0 2h5a1 1 0 1 0 0-2h-5Z"/>
</svg>
