<svg xmlns="http://www.w3.org/2000/svg" width="24" height="24" fill="none" viewBox="0 0 24 24">
  <path fill="#191E26" fill-rule="evenodd" d="M19.5 11.841v-.821H4.517l-.01 5.976a2.5 2.5 0 0 0 2.5 2.504h4.834c.191.54.457 1.044.785 1.5h-5.62a4 4 0 0 1-4-4.007l.018-10a4 4 0 0 1 4-3.993h3.814a3 3 0 0 1 2.684 1.658l.417.835a.5.5 0 0 0 .447.276H18a3 3 0 0 1 3 3v3.857a5.982 5.982 0 0 0-1.5-.785ZM7.024 4.5h3.814a1.5 1.5 0 0 1 1.342.83l.417.834a2 2 0 0 0 1.789 1.105H18a1.5 1.5 0 0 1 1.5 1.5v.75H4.52l.004-2.523a2.5 2.5 0 0 1 2.5-2.496Z" clip-rule="evenodd"/>
  <path fill="#191E26" fill-rule="evenodd" d="M17.5 22a4.5 4.5 0 1 0 0-9 4.5 4.5 0 0 0 0 9Zm.75-6.75a.75.75 0 0 0-1.5 0v1.5h-1.5a.75.75 0 0 0 0 1.5h1.5v1.5a.75.75 0 0 0 1.5 0v-1.5h1.5a.75.75 0 0 0 0-1.5h-1.5v-1.5Z" clip-rule="evenodd"/>
</svg>
