<svg xmlns="http://www.w3.org/2000/svg" width="24" height="24" fill="none" viewBox="0 0 24 24">
  <path fill="#191E26" d="M12.95 12.75h-9.7a.75.75 0 1 1 0-1.5h9.7L9.72 8.21a.75.75 0 0 1 1.06-1.06l4.49 4.32c.3.3.3.77 0 1.06l-4.5 4.18a.752.752 0 0 1-1.281-.21.75.75 0 0 1 .231-.85l3.21-2.9h.02Z"/>
  <path fill="#191E26" d="M19.497 19.5h-6a.5.5 0 0 1-.5-.5v-1.393L11.497 19a2 2 0 0 0 2 2h6a2 2 0 0 0 2-2V5a2 2 0 0 0-2-2h-6a2 2 0 0 0-2 2l1.5 1.443V5a.5.5 0 0 1 .5-.5h6a.5.5 0 0 1 .5.5v14a.5.5 0 0 1-.5.5Z"/>
</svg>
