<svg xmlns="http://www.w3.org/2000/svg" width="24" height="24" fill="none" viewBox="0 0 24 24">
  <path fill="#191E26" fill-rule="evenodd" d="M14.132 3H5a2 2 0 0 0-2 2v14a2 2 0 0 0 2 2h14a2 2 0 0 0 2-2V4.981 11h-1.5v3H10v-4h5.254V8.5H10v-4h4.132V3ZM8.5 4.5H5a.5.5 0 0 0-.5.5v3.5h4v-4Zm-4 5.5v4h4v-4h-4Zm0 5.5V19a.5.5 0 0 0 .5.5h3.5v-4h-4Zm5.5 4h9a.5.5 0 0 0 .5-.5v-3.5H10v4Z" clip-rule="evenodd"/>
  <path fill="#191E26" fill-rule="evenodd" d="M19.4.6c.414 0 .75.316.75.705v2.589h2.5c.414 0 .75.316.75.706 0 .39-.336.705-.75.705h-2.5v2.589c0 .39-.336.706-.75.706s-.75-.316-.75-.706V5.305h-2.5c-.414 0-.75-.316-.75-.705 0-.39.336-.706.75-.706h2.5V1.305c0-.39.336-.705.75-.705Z" clip-rule="evenodd"/>
</svg>
