<svg xmlns="http://www.w3.org/2000/svg" width="24" height="24" fill="none" viewBox="0 0 24 24">
  <path fill="#191E26" fill-rule="evenodd" d="M9.5 4h-4A1.5 1.5 0 0 0 4 5.5v4A1.5 1.5 0 0 0 5.5 11h4A1.5 1.5 0 0 0 11 9.5v-4A1.5 1.5 0 0 0 9.5 4Zm9 0h-4A1.5 1.5 0 0 0 13 5.5v4a1.5 1.5 0 0 0 1.5 1.5h4A1.5 1.5 0 0 0 20 9.5v-4A1.5 1.5 0 0 0 18.5 4Zm-4 9h4a1.5 1.5 0 0 1 1.5 1.5v4a1.5 1.5 0 0 1-1.5 1.5h-4a1.5 1.5 0 0 1-1.5-1.5v-4a1.5 1.5 0 0 1 1.5-1.5Zm-5 0h-4A1.5 1.5 0 0 0 4 14.5v4A1.5 1.5 0 0 0 5.5 20h4a1.5 1.5 0 0 0 1.5-1.5v-4A1.5 1.5 0 0 0 9.5 13Zm-4-7.5v4h4v-4h-4Zm9 4v-4h4v4h-4Zm0 5v4h4v-4h-4Zm-9 4v-4h4v4h-4Z" clip-rule="evenodd"/>
</svg>
