<svg xmlns="http://www.w3.org/2000/svg" width="24" height="24" fill="none" viewBox="0 0 24 24">
  <path fill="#191E26" d="M21.747 11.022A7.75 7.75 0 0 1 14.063 19c-.017.007-.044.02-.083.04a4 4 0 0 0-.439.29c-.358.263-.782.624-1.198.996-.414.37-.805.74-1.097 1.018l-.146.14-.206.196a5.317 5.317 0 0 1-.18.16l-.001.001c-.009.007-.055.043-.118.075l-.002.001a.756.756 0 0 1-.875-.137.75.75 0 0 1-.22-.53v-2.266A7.75 7.75 0 0 1 10 3.5h4c.198 0 .394.007.588.022-.232.46-.401.956-.497 1.479L14 5h-4a6.25 6.25 0 1 0 0 12.5h.998v2.02c.112-.102.227-.206.344-.31.428-.384.894-.782 1.31-1.088.207-.153.417-.294.614-.4.166-.09.438-.222.734-.222a6.25 6.25 0 0 0 6.247-6.05 5.461 5.461 0 0 0 1.5-.428Z"/>
  <path fill="#191E26" d="M18.75 8.75a.75.75 0 0 0 1.5 0v-2h2a.75.75 0 0 0 0-1.5h-2v-2a.75.75 0 0 0-1.5 0v2h-2a.75.75 0 0 0 0 1.5h2v2Z"/>
</svg>
