<svg xmlns="http://www.w3.org/2000/svg" width="24" height="24" fill="none" viewBox="0 0 24 24">
  <path fill="#191E26" d="M11.16 10.326V4.75h2.236v14.277H11.16V12.24H4.246v6.787H2V4.75h2.246v5.576h6.914Zm7.842 8.889c-1.91 0-3.17-1.026-3.287-2.537l-.006-.076h1.693l.006.064c.076.656.68 1.125 1.594 1.125.902 0 1.494-.504 1.494-1.219v-.011c0-.809-.603-1.254-1.629-1.254H17.9v-1.26h.944c.89 0 1.465-.469 1.465-1.154v-.012c0-.703-.487-1.137-1.319-1.137s-1.388.451-1.459 1.154l-.006.053h-1.628l.005-.07c.123-1.512 1.313-2.496 3.088-2.496 1.817 0 2.989.914 2.989 2.261v.012c0 1.055-.774 1.74-1.764 1.946v.035c1.26.117 2.08.843 2.08 1.992v.012c0 1.535-1.318 2.572-3.293 2.572Z"/>
</svg>
