<svg xmlns="http://www.w3.org/2000/svg" width="24" height="24" fill="none" viewBox="0 0 24 24">
  <path fill="#191E26" fill-rule="evenodd" d="M14.989 5.5h2.522c.435 0 .652.47.345.745l-1.261 1.127a.53.53 0 0 1-.69 0l-1.261-1.127c-.307-.275-.09-.745.345-.745Z" clip-rule="evenodd"/>
  <path fill="#191E26" fill-rule="evenodd" d="M18 4.5H6A1.5 1.5 0 0 0 4.5 6v1A1.5 1.5 0 0 0 6 8.5h12A1.5 1.5 0 0 0 19.5 7V6A1.5 1.5 0 0 0 18 4.5ZM6 3a3 3 0 0 0-3 3v1a3 3 0 0 0 3 3h12a3 3 0 0 0 3-3V6a3 3 0 0 0-3-3H6Z" clip-rule="evenodd"/>
  <path fill="#191E26" fill-rule="evenodd" d="M18 12.5H6A1.5 1.5 0 0 0 4.5 14v4A1.5 1.5 0 0 0 6 19.5h12a1.5 1.5 0 0 0 1.5-1.5v-4a1.5 1.5 0 0 0-1.5-1.5ZM6 11a3 3 0 0 0-3 3v4a3 3 0 0 0 3 3h12a3 3 0 0 0 3-3v-4a3 3 0 0 0-3-3H6Z" clip-rule="evenodd" opacity=".25"/>
</svg>
