<svg xmlns="http://www.w3.org/2000/svg" width="24" height="24" fill="none" viewBox="0 0 24 24">
  <path fill="#191E26" d="M16.296 2.043c.407 1.817 1.284 2.716 3.317 3.089.14 0 .255.104.255.233s-.114.233-.255.233c-1.982.373-2.909 1.218-3.315 3.081a.246.246 0 0 1-.243.18.245.245 0 0 1-.245-.191c-.407-1.818-1.28-2.697-3.313-3.07-.14 0-.254-.104-.254-.233s.114-.233.254-.233c1.982-.373 2.91-1.223 3.317-3.087a.247.247 0 0 1 .241-.175c.117 0 .212.074.241.173Zm-1.202 15.393A7.5 7.5 0 1 1 10 4.046v1.503A6 6 0 1 0 16.446 11h1.504a7.466 7.466 0 0 1-1.46 5.003l4.25 4.25a1 1 0 0 1-1.414 1.414l-4.232-4.231Z"/>
  <path fill="#191E26" d="M13.666 8.964c-.857-.236-1.356-.615-1.527-1.4 0-.095-.084-.172-.187-.172s-.187.077-.187.171c-.257.786-.67 1.244-1.528 1.401-.103 0-.187.077-.187.171 0 .095.084.172.187.172.857.235 1.357.614 1.528 1.4 0 .095.084.171.187.171s.187-.076.187-.171c.257-.786.67-1.243 1.527-1.4.104 0 .187-.077.187-.172 0-.094-.083-.171-.187-.171Z"/>
</svg>
