<svg xmlns="http://www.w3.org/2000/svg" width="24" height="24" fill="none" viewBox="0 0 24 24">
  <path fill="#191E26" d="M11.16 10.326V4.75h2.236v14.277H11.16V12.24H4.246v6.787H2V4.75h2.246v5.576h6.914Zm7.889 8.918c-1.81 0-3.006-1.078-3.106-2.49l-.005-.082h1.605l.012.04c.123.622.703 1.12 1.5 1.12.908 0 1.54-.639 1.54-1.547v-.012c0-.902-.638-1.529-1.534-1.529-.428 0-.791.123-1.073.363a1.512 1.512 0 0 0-.392.47h-1.518l.393-5.005h5.285v1.407h-3.908l-.211 2.408h.105c.34-.569.996-.92 1.805-.92 1.576 0 2.713 1.16 2.713 2.771v.012c0 1.781-1.313 2.994-3.211 2.994Z"/>
</svg>
