<svg xmlns="http://www.w3.org/2000/svg" width="24" height="24" fill="none" viewBox="0 0 24 24">
  <path fill="#191E26" fill-rule="evenodd" d="M4.55 11.75a.75.75 0 0 1-.75.75h-.05a.75.75 0 0 1 0-1.5h.05a.75.75 0 0 1 .75.75Zm3.2 0a.75.75 0 0 1-.75.75h-.1a.75.75 0 0 1 0-1.5H7a.75.75 0 0 1 .75.75Zm3.2 0a.75.75 0 0 1-.75.75h-.1a.75.75 0 0 1 0-1.5h.1a.75.75 0 0 1 .75.75Zm3.2 0a.75.75 0 0 1-.75.75h-.1a.75.75 0 0 1 0-1.5h.1a.75.75 0 0 1 .75.75Zm3.2 0a.75.75 0 0 1-.75.75h-.1a.75.75 0 0 1 0-1.5h.1a.75.75 0 0 1 .75.75Zm3.15 0a.75.75 0 0 1-.75.75h-.05a.75.75 0 0 1 0-1.5h.05a.75.75 0 0 1 .75.75Z" clip-rule="evenodd"/>
</svg>
