<svg xmlns="http://www.w3.org/2000/svg" width="24" height="24" fill="none" viewBox="0 0 24 24">
  <path fill="#191E26" fill-rule="evenodd" d="M13 3H5a2 2 0 0 0-2 2v10a2 2 0 0 0 2 2h2.5v-1.5H5a.5.5 0 0 1-.5-.5V5a.5.5 0 0 1 .5-.5h8a.5.5 0 0 1 .5.5v.5H15V5a2 2 0 0 0-2-2Zm-2.5 6a.5.5 0 0 1 .5-.5h8a.5.5 0 0 1 .5.5v10a.5.5 0 0 1-.5.5h-8a.5.5 0 0 1-.5-.5V9Zm.5-2h8a2 2 0 0 1 2 2v10a2 2 0 0 1-2 2h-8a2 2 0 0 1-2-2V9a2 2 0 0 1 2-2Zm3.25 4.75a.75.75 0 0 1 1.5 0v1.5h1.5a.75.75 0 0 1 0 1.5h-1.5v1.5a.75.75 0 0 1-1.5 0v-1.5h-1.5a.75.75 0 0 1 0-1.5h1.5v-1.5Z" clip-rule="evenodd"/>
</svg>
