<svg xmlns="http://www.w3.org/2000/svg" width="24" height="24" fill="none" viewBox="0 0 24 24">
  <path fill="#191E26" fill-rule="evenodd" d="M3 4.75C3 3.784 3.784 3 4.75 3H9.5c.966 0 1.75.784 1.75 1.75v6.5A1.75 1.75 0 0 1 9.5 13H4.75A1.75 1.75 0 0 1 3 11.25v-6.5Zm1.75-.25a.25.25 0 0 0-.25.25v6.5c0 .138.112.25.25.25H9.5a.25.25 0 0 0 .25-.25v-6.5a.25.25 0 0 0-.25-.25H4.75Z" clip-rule="evenodd"/>
  <path fill="#191E26" d="M14.5 12.5a.25.25 0 0 0-.25.25V16h-1.5v-3.25c0-.966.784-1.75 1.75-1.75h4.75c.966 0 1.75.784 1.75 1.75V17h-1.5v-4.25a.25.25 0 0 0-.25-.25H14.5ZM11.25 17v-.75A1.75 1.75 0 0 0 9.5 14.5H4.75A1.75 1.75 0 0 0 3 16.25v3c0 .966.784 1.75 1.75 1.75H8v-1.5H4.75a.25.25 0 0 1-.25-.25v-3a.25.25 0 0 1 .25-.25H9.5a.25.25 0 0 1 .25.25V17h1.5Z"/>
  <path fill="#191E26" fill-rule="evenodd" d="M12.75 4.75c0-.966.784-1.75 1.75-1.75h4.75c.966 0 1.75.784 1.75 1.75v3a1.75 1.75 0 0 1-1.75 1.75H14.5a1.75 1.75 0 0 1-1.75-1.75v-3Zm1.75-.25a.25.25 0 0 0-.25.25v3c0 .138.112.25.25.25h4.75a.25.25 0 0 0 .25-.25v-3a.25.25 0 0 0-.25-.25H14.5Zm0 17.5a2.5 2.5 0 0 0 2.313-1.55h3.437a.75.75 0 0 0 0-1.5h-3.31a2.5 2.5 0 0 0-4.88 0h-1.31a.75.75 0 0 0 0 1.5h1.437A2.5 2.5 0 0 0 14.5 22Zm0-1.25a1.25 1.25 0 1 0 0-2.5 1.25 1.25 0 0 0 0 2.5Z" clip-rule="evenodd"/>
</svg>
