<svg xmlns="http://www.w3.org/2000/svg" width="24" height="24" fill="none" viewBox="0 0 24 24">
  <path fill="#191E26" fill-rule="evenodd" d="m15.494 6-4.487 12.018h1.534l1.135-3.134h4.982l1.127 3.134h1.6L16.896 6h-1.403Zm2.71 7.62L16.52 8.938a9.996 9.996 0 0 1-.173-.533 7.384 7.384 0 0 1-.13-.525h-.075a9.818 9.818 0 0 1-.312 1.058l-1.696 4.684h4.07Zm-14.392-.238c-.7.492-1.05 1.181-1.05 2.066 0 .884.288 1.562.865 2.032.576.465 1.282.697 2.116.697.722 0 1.313-.137 1.772-.411.465-.28.798-.602 1-.966.016.224.056.448.117.672.067.224.14.406.219.546h1.47v-.135a3.788 3.788 0 0 1-.244-.848A6.738 6.738 0 0 1 10 16.002v-3.99c0-.996-.288-1.743-.865-2.242-.577-.498-1.391-.747-2.444-.747-1.047 0-1.878.257-2.494.773-.616.515-.924 1.117-.924 1.805v.059h1.503v-.05c0-.37.146-.692.437-.966.291-.275.773-.412 1.445-.412.666 0 1.136.165 1.41.496.275.325.412.753.412 1.285v.621H6.499c-1.092 0-1.988.25-2.687.748Zm.898 3.166c-.291-.286-.437-.68-.437-1.184 0-.504.202-.905.605-1.201.403-.297 1-.445 1.789-.445h1.814v1.26c0 .48-.25.934-.747 1.36-.499.42-1.053.63-1.663.63-.616 0-1.07-.14-1.36-.42Z" clip-rule="evenodd"/>
</svg>
