<svg xmlns="http://www.w3.org/2000/svg" width="24" height="24" fill="none" viewBox="0 0 24 24">
  <path fill="#191E26" fill-rule="evenodd" d="M14.5 6a.5.5 0 0 0-.5-.5H9.75V18a.5.5 0 0 0 .5.5h1.5a.75.75 0 1 1 0 1.5h-5.5a.75.75 0 1 1 0-1.5h1.5a.5.5 0 0 0 .5-.5V5.5H4a.5.5 0 0 0-.5.5v1.25a.75.75 0 0 1-1.5 0V5.5A1.5 1.5 0 0 1 3.5 4h11A1.5 1.5 0 0 1 16 5.5v1.75a.75.75 0 1 1-1.5 0V6Zm5-1.25a.75.75 0 0 0-1.5 0v13.9l-1.22-1.22a.75.75 0 0 0-1.06 1.06l2.145 2.146a1.246 1.246 0 0 0 1.129.341c.243-.048.466-.166.641-.341l2.145-2.146a.75.75 0 1 0-1.06-1.06l-1.22 1.22V4.75Z" clip-rule="evenodd"/>
</svg>
