<svg xmlns="http://www.w3.org/2000/svg" width="24" height="24" fill="none" viewBox="0 0 24 24">
  <path fill="#191E26" fill-rule="evenodd" d="M19.49 14.281V11.02H4.507l-.01 5.976a2.5 2.5 0 0 0 2.5 2.504h7.493V21H6.997a4 4 0 0 1-4-4.007l.017-10a4 4 0 0 1 4-3.993h3.814a3 3 0 0 1 2.684 1.658l.417.835a.5.5 0 0 0 .447.276h3.614a3 3 0 0 1 3 3v5.512h-1.5ZM7.014 4.5h3.814a1.5 1.5 0 0 1 1.342.83l.417.834a2 2 0 0 0 1.79 1.105h3.613a1.5 1.5 0 0 1 1.5 1.5v.75H4.51l.004-2.523a2.5 2.5 0 0 1 2.5-2.496Z" clip-rule="evenodd"/>
  <path fill="#191E26" d="M17.734 15.969a.75.75 0 1 0 0 1.5h1.69l-3.221 3.22a.75.75 0 0 0 1.06 1.061l3.22-3.22v1.72a.75.75 0 0 0 1.5 0v-3.531a.75.75 0 0 0-.75-.75h-3.5Z"/>
</svg>
