<svg xmlns="http://www.w3.org/2000/svg" width="24" height="24" fill="none" viewBox="0 0 24 24">
  <path fill="url(#a)" d="M17.035 8.341c-.857-.257-1.356-.67-1.528-1.527a.187.187 0 1 0-.373 0c-.258.857-.67 1.356-1.528 1.527a.187.187 0 0 0 0 .374c.857.257 1.356.67 1.528 1.528a.187.187 0 0 0 .373 0c.258-.857.67-1.356 1.528-1.528a.187.187 0 1 0 0-.374Z"/>
  <path fill="url(#b)" d="M22.983 4.16c-2.034-.406-2.911-1.386-3.318-3.369a.25.25 0 0 0-.24-.188.25.25 0 0 0-.242.19c-.005.004.004-.007 0 0-.407 2.034-1.334 2.961-3.317 3.368a.254.254 0 1 0 0 .508c2.033.407 2.907 1.366 3.313 3.349a.25.25 0 0 0 .245.21.25.25 0 0 0 .243-.197c-.003.005.003-.004 0 0 .406-2.034 1.333-2.955 3.316-3.362a.254.254 0 1 0 0-.508Z"/>
  <path fill="url(#c)" fill-rule="evenodd" d="M14.063 3H7a4 4 0 0 0-4 4v10a4 4 0 0 0 4 4h6.116a4 4 0 0 0 2.838-1.182l3.885-3.912A4 4 0 0 0 21 13.088V9.563h-1.5v2.224a1.25 1.25 0 0 1-1.25 1.23h-1.5a3.75 3.75 0 0 0-3.75 3.75v1.483c0 .69-.56 1.25-1.25 1.25H7A2.5 2.5 0 0 1 4.5 17V7A2.5 2.5 0 0 1 7 4.5h7.063V3Zm.827 15.761a2.5 2.5 0 0 1-.551.42 2.76 2.76 0 0 0 .161-.931v-1.483a2.25 2.25 0 0 1 2.25-2.25h1.5c.314 0 .616-.053.898-.15a2.493 2.493 0 0 1-.374.482l-3.884 3.912Z" clip-rule="evenodd"/>
  <defs>
    <linearGradient id="a" x1="-7.118" x2="13.278" y1="10.801" y2="31.038" gradientUnits="userSpaceOnUse">
      <stop stop-color="#03A5AB"/>
      <stop offset="1" stop-color="#7D2AE8"/>
    </linearGradient>
    <linearGradient id="b" x1="-7.118" x2="13.278" y1="10.801" y2="31.038" gradientUnits="userSpaceOnUse">
      <stop stop-color="#03A5AB"/>
      <stop offset="1" stop-color="#7D2AE8"/>
    </linearGradient>
    <linearGradient id="c" x1="-7.118" x2="13.278" y1="10.801" y2="31.038" gradientUnits="userSpaceOnUse">
      <stop stop-color="#03A5AB"/>
      <stop offset="1" stop-color="#7D2AE8"/>
    </linearGradient>
  </defs>
</svg>
