<svg xmlns="http://www.w3.org/2000/svg" width="24" height="24" fill="none" viewBox="0 0 24 24">
  <path fill="#191E26" fill-opacity=".25" d="M7 3a4 4 0 0 0-4 4v10a4.002 4.002 0 0 0 3.09 3.896 4.676 4.676 0 0 1-.419-1.778A2.498 2.498 0 0 1 4.5 17V7A2.5 2.5 0 0 1 7 4.5h7V3H7Z"/>
  <path fill="#191E26" fill-opacity=".25" d="M10.5 8.75a1.75 1.75 0 1 1-3.5 0 1.75 1.75 0 0 1 3.5 0Z"/>
  <path fill="#191E26" fill-rule="evenodd" d="M8.122 16.879C6.232 18.769 7.57 22 10.242 22h9.516c2.672 0 4.01-3.231 2.12-5.121l-5.06-5.06a2.571 2.571 0 0 0-3.636 0l-5.06 5.06Zm1.06 1.06c-.945.945-.276 2.561 1.06 2.561h9.516c1.336 0 2.005-1.616 1.06-2.56l-5.06-5.061a1.071 1.071 0 0 0-1.515 0l-5.06 5.06Z" clip-rule="evenodd"/>
  <path fill="#191E26" d="M22.983 4.16c-2.034-.406-2.911-1.386-3.318-3.369a.25.25 0 0 0-.24-.188.25.25 0 0 0-.242.19c-.005.004.003-.007 0 0-.407 2.034-1.335 2.961-3.317 3.368a.254.254 0 1 0 0 .508c2.033.407 2.906 1.366 3.313 3.349a.25.25 0 0 0 .245.21.25.25 0 0 0 .243-.197c-.003.005.003-.004 0 0 .406-2.034 1.333-2.955 3.316-3.362a.254.254 0 1 0 0-.508Z"/>
  <path fill="#191E26" fill-opacity=".25" d="M19.5 10v2.286l1.5 1.5V10h-1.5Z"/>
  <path fill="#191E26" fill-rule="evenodd" d="M8.122 16.879C6.232 18.769 7.57 22 10.242 22h9.516c2.672 0 4.01-3.231 2.12-5.121l-5.06-5.06a2.571 2.571 0 0 0-3.636 0l-5.06 5.06Zm1.06 1.06c-.945.945-.276 2.561 1.06 2.561h9.516c1.336 0 2.005-1.616 1.06-2.56l-5.06-5.061a1.071 1.071 0 0 0-1.515 0l-5.06 5.06Z" clip-rule="evenodd"/>
</svg>
