<svg xmlns="http://www.w3.org/2000/svg" width="24" height="24" fill="none" viewBox="0 0 24 24">
  <path fill="#191E26" fill-rule="evenodd" d="M4 3a.75.75 0 0 1 .75.75v16.5a.75.75 0 0 1-1.5 0V3.75A.75.75 0 0 1 4 3Zm5 3h9a2 2 0 0 1 2 2v1a2 2 0 0 1-2 2H9a2 2 0 0 1-2-2V8a2 2 0 0 1 2-2Zm4 7H9a2 2 0 0 0-2 2v1a2 2 0 0 0 2 2h4a2 2 0 0 0 2-2v-1a2 2 0 0 0-2-2ZM9 7.5a.5.5 0 0 0-.5.5v1a.5.5 0 0 0 .5.5h9a.5.5 0 0 0 .5-.5V8a.5.5 0 0 0-.5-.5H9ZM8.5 15a.5.5 0 0 1 .5-.5h4a.5.5 0 0 1 .5.5v1a.5.5 0 0 1-.5.5H9a.5.5 0 0 1-.5-.5v-1Z" clip-rule="evenodd"/>
</svg>
