<svg xmlns="http://www.w3.org/2000/svg" width="24" height="24" fill="none" viewBox="0 0 24 24">
  <path fill="#191E26" d="M22.983 4.16c-2.034-.406-2.911-1.386-3.318-3.369a.25.25 0 0 0-.24-.188.25.25 0 0 0-.242.19c-.005.004.003-.007 0 0-.407 2.034-1.335 2.961-3.317 3.368a.254.254 0 1 0 0 .508c2.033.407 2.906 1.366 3.313 3.349a.25.25 0 0 0 .245.21.25.25 0 0 0 .243-.197c-.003.005.003-.004 0 0 .406-2.034 1.333-2.955 3.316-3.362a.254.254 0 1 0 0-.508Z"/>
  <path fill="#191E26" fill-rule="evenodd" d="M13.969 3H7a4 4 0 0 0-4 4v10a4 4 0 0 0 4 4h10a4 4 0 0 0 4-4v-6.969h-1.5v1.198l-.853-.853c-.485-.485-.892-.892-1.257-1.184-.384-.307-.79-.546-1.287-.616a2.625 2.625 0 0 0-.74 0c-.497.07-.903.309-1.287.616-.365.292-.772.7-1.257 1.184l-7.943 7.943A2.488 2.488 0 0 1 4.5 17V7A2.5 2.5 0 0 1 7 4.5h6.969V3ZM6.017 19.3c.302.128.634.2.983.2h10a2.5 2.5 0 0 0 2.5-2.5v-3.65l-1.884-1.884c-.523-.522-.871-.869-1.163-1.103-.281-.224-.44-.285-.562-.302a1.122 1.122 0 0 0-.317 0c-.122.017-.28.078-.561.302-.292.234-.64.581-1.163 1.103l-7.833 7.833Z" clip-rule="evenodd"/>
  <path fill="#191E26" d="M10.5 8.75a1.75 1.75 0 1 1-3.5 0 1.75 1.75 0 0 1 3.5 0Z"/>
</svg>
