<svg xmlns="http://www.w3.org/2000/svg" width="24" height="24" fill="none" viewBox="0 0 24 24">
  <path fill="#191E26" fill-rule="evenodd" d="M7 4h-.034a2 2 0 0 0-1.924 1.454l-1.776 6.25A7 7 0 0 0 3 13.616V16a4 4 0 0 0 4 4h10a4 4 0 0 0 4-4v-2.384c0-.646-.09-1.29-.266-1.912l-1.776-6.25A2 2 0 0 0 17.034 4H17v1.5h.034a.5.5 0 0 1 .481.363l1.725 6.071h-3.402a1.5 1.5 0 0 0-1.442 1.088l-.43 1.504a.375.375 0 0 1-.36.272h-3.212a.375.375 0 0 1-.36-.272l-.43-1.504a1.5 1.5 0 0 0-1.443-1.088h-3.4l1.724-6.07a.5.5 0 0 1 .48-.364H7V4Zm-2.5 9.616.003-.182h3.658l.43 1.504c.23.805.966 1.36 1.803 1.36h3.212c.837 0 1.573-.555 1.803-1.36l.43-1.504h3.658c.002.06.003.122.003.182V16a2.5 2.5 0 0 1-2.5 2.5H7A2.5 2.5 0 0 1 4.5 16v-2.384Z" clip-rule="evenodd"/>
  <path fill="#191E26" d="M15.012 6.481a.75.75 0 0 0-1.06-1.06l-1.195 1.194V2.061a.75.75 0 0 0-1.5 0v4.554L10.04 5.4a.75.75 0 1 0-1.06 1.06l2.474 2.475a.609.609 0 0 0 .022.022.75.75 0 0 0 1.061 0l2.475-2.475Z"/>
</svg>
