<svg xmlns="http://www.w3.org/2000/svg" width="24" height="24" fill="none" viewBox="0 0 24 24">
  <path fill="#191E26" fill-rule="evenodd" d="M14.25 4.5h-4.5v3.75h4.5V4.5Zm-6 0v3.75H4.5V5a.5.5 0 0 1 .5-.5h3.25Zm0 5.25H4.5v4.5h3.75v-4.5Zm0 6H4.5V19a.5.5 0 0 0 .5.5h3.25v-3.75Zm-5.25 0V5a2 2 0 0 1 2-2h14a2 2 0 0 1 2 2v14a2 2 0 0 1-2 2H5a2 2 0 0 1-2-2v-3.25Zm16.5-1.5v-4.5h-3.75v4.5h3.75Zm-3.75 1.5h3.75V19a.5.5 0 0 1-.5.5h-3.25v-3.75Zm-1.5 0v3.75h-4.5v-3.75h4.5Zm0-1.5h-4.5v-4.5h4.5v4.5ZM19.5 5v3.25h-3.75V4.5H19a.5.5 0 0 1 .5.5Z" clip-rule="evenodd"/>
</svg>
