<svg xmlns="http://www.w3.org/2000/svg" width="24" height="24" fill="none" viewBox="0 0 24 24">
  <path fill="#191E26" fill-rule="evenodd" d="M20.75 4a.75.75 0 0 0-.75.75v14.5a.75.75 0 1 0 1.5 0V4.75a.75.75 0 0 0-.75-.75ZM3.25 4a.75.75 0 0 0-.75.75v14.5a.75.75 0 1 0 1.5 0V4.75A.75.75 0 0 0 3.25 4Zm6.28 4.97a.75.75 0 0 1 0 1.06l-1.22 1.22h7.38l-1.22-1.22a.75.75 0 1 1 1.06-1.06l2.147 2.146a1.251 1.251 0 0 1 0 1.768L15.53 15.03a.75.75 0 0 1-1.06-1.06l1.22-1.22H8.31l1.22 1.22a.75.75 0 1 1-1.06 1.06l-2.147-2.146a1.25 1.25 0 0 1 0-1.768L8.47 8.97a.75.75 0 0 1 1.06 0Z" clip-rule="evenodd"/>
</svg>
