<svg xmlns="http://www.w3.org/2000/svg" width="24" height="24" fill="none" viewBox="0 0 24 24">
  <path fill="#191E26" fill-rule="evenodd" d="m11.287 20.508.003.001a1.502 1.502 0 0 0 1.422 0v-.002h.003l.006-.004.017-.009a7.262 7.262 0 0 0 .257-.146c.17-.099.41-.242.703-.43.585-.372 1.388-.92 2.27-1.625 1.727-1.382 3.854-3.447 5.184-6.075A5.841 5.841 0 0 0 12 5.071a5.841 5.841 0 0 0-9.276 6.935c1.308 2.7 3.474 4.82 5.238 6.237.899.721 1.72 1.281 2.318 1.663a20.913 20.913 0 0 0 .984.588l.017.01.006.003Zm-2.704-3.694c.7.583 1.364 1.066 1.917 1.442l.078.052.004.003c.85.572 1.417.877 1.417.877v-.88l.002.88s.568-.306 1.417-.88l.005-.003.075-.051c1.611-1.098 4.164-3.119 5.818-5.824l-1.773-1.772c-.42-.42-.692-.692-.918-.872-.214-.172-.316-.202-.377-.21a.75.75 0 0 0-.21 0c-.062.008-.163.038-.377.21-.226.18-.498.45-.918.87l-6.16 6.158Zm-1.124-.998c-1.283-1.221-2.56-2.741-3.405-4.506A4.341 4.341 0 1 1 12 7.968c.178-.628.495-1.2.915-1.678a4.341 4.341 0 0 1 7.16 4.778l-1.5-1.5c-.384-.384-.714-.714-1.013-.953-.317-.254-.667-.463-1.102-.525a2.25 2.25 0 0 0-.634 0c-.435.062-.785.27-1.102.524-.299.24-.63.57-1.013.953l-6.252 6.249Z" clip-rule="evenodd"/>
  <path fill="#191E26" d="M9.573 9.154a1.75 1.75 0 1 1-3.5 0 1.75 1.75 0 0 1 3.5 0Z"/>
</svg>
