<svg xmlns="http://www.w3.org/2000/svg" width="24" height="24" fill="none" viewBox="0 0 24 24">
  <path fill="#191E26" fill-rule="evenodd" d="M4 7.5h16a.5.5 0 0 1 .5.5v8a.5.5 0 0 1-.5.5H4a.5.5 0 0 1-.5-.5V8a.5.5 0 0 1 .5-.5ZM2 8a2 2 0 0 1 2-2h16a2 2 0 0 1 2 2v8a2 2 0 0 1-2 2H4a2 2 0 0 1-2-2V8Zm4.5 4a1.5 1.5 0 1 0 3 0 1.5 1.5 0 0 0-3 0ZM8 9a3 3 0 1 0 0 6 3 3 0 0 0 0-6Zm4.75.75a.75.75 0 0 0 0 1.5h5.5a.75.75 0 0 0 0-1.5h-5.5Zm0 3a.75.75 0 0 0 0 1.5h5.5a.75.75 0 0 0 0-1.5h-5.5Z" clip-rule="evenodd"/>
</svg>
