<svg xmlns="http://www.w3.org/2000/svg" width="24" height="24" fill="none" viewBox="0 0 24 24">
  <path fill="#191E26" fill-rule="evenodd" d="m13.586 19.07-.938 1.129c.415.36.921.656 1.52.888a5.315 5.315 0 0 0 1.966.357c1.151 0 2.084-.326 2.798-.98.714-.652 1.07-1.59 1.07-2.813V9.167H18.65l-.067 1.13h-.041c-.222-.36-.562-.665-1.021-.914-.454-.254-.983-.382-1.586-.382-1.095 0-1.973.412-2.631 1.237-.653.825-.98 1.868-.98 3.13v.265c0 1.262.327 2.302.98 3.121.658.82 1.536 1.229 2.631 1.229.603 0 1.118-.108 1.544-.324a2.726 2.726 0 0 0 1.03-.863v.855c0 .797-.216 1.408-.648 1.834-.432.432-1.018.648-1.76.648a3.364 3.364 0 0 1-1.494-.324c-.437-.216-.777-.462-1.02-.739Zm.847-3.212c-.382-.598-.573-1.34-.573-2.225v-.266c0-.885.191-1.627.573-2.224.387-.603.996-.905 1.826-.905.553 0 1.024.152 1.411.457.387.298.667.641.838 1.029v3.544c-.171.382-.45.725-.838 1.03-.387.304-.858.456-1.411.456-.83 0-1.439-.299-1.826-.896Zm-9.721-2.494c-.7.493-1.05 1.181-1.05 2.066 0 .885.288 1.562.865 2.032.577.465 1.282.698 2.116.698.723 0 1.313-.138 1.772-.412.465-.28.798-.602 1-.966.017.224.056.448.117.672.068.224.14.406.219.546h1.47v-.134a3.792 3.792 0 0 1-.244-.849 6.738 6.738 0 0 1-.076-1.033v-3.989c0-.996-.288-1.744-.865-2.242-.576-.499-1.391-.748-2.444-.748-1.047 0-1.878.258-2.494.773-.616.515-.924 1.117-.924 1.806v.058h1.503v-.05c0-.37.146-.692.437-.966.291-.274.773-.411 1.445-.411.666 0 1.136.165 1.41.495.275.325.412.753.412 1.285v.622H7.4c-1.092 0-1.987.249-2.687.747Zm.898 3.166c-.29-.285-.436-.68-.436-1.184 0-.504.201-.904.604-1.2.403-.298 1-.446 1.79-.446H9.38v1.26c0 .481-.249.935-.747 1.36-.499.42-1.053.63-1.663.63-.616 0-1.07-.14-1.36-.42Z" clip-rule="evenodd"/>
</svg>
