<svg xmlns="http://www.w3.org/2000/svg" width="24" height="24" fill="none" viewBox="0 0 24 24">
  <path fill="#191E26" fill-rule="evenodd" d="M8.294 5.982 3.807 18h1.534l1.135-3.134h4.982L12.585 18h1.6L9.696 5.982H8.294Zm2.71 7.621L9.32 8.92a9.904 9.904 0 0 1-.172-.533 7.36 7.36 0 0 1-.132-.525h-.073a9.896 9.896 0 0 1-.312 1.058l-1.697 4.684h4.07Z" clip-rule="evenodd"/>
  <path fill="#191E26" d="M15.004 19.071v.932h5.15v-1.257h-3.146l1.3-1.178c.51-.45.9-.852 1.17-1.204.275-.357.413-.773.413-1.248 0-.621-.22-1.12-.66-1.494-.433-.375-1.034-.563-1.801-.563-.815 0-1.45.232-1.908.695-.457.457-.682 1.066-.676 1.828h1.424c-.006-.44.093-.77.298-.993.211-.223.507-.334.888-.334.34 0 .589.076.747.228.158.147.237.367.237.66 0 .199-.061.43-.184.694-.117.258-.372.565-.765.923l-2.487 2.311Z"/>
</svg>
