<svg xmlns="http://www.w3.org/2000/svg" width="24" height="24" fill="none" viewBox="0 0 24 24">
  <path fill="#191E26" fill-rule="evenodd" d="M15.754 4v9.006c0 1.175-.32 2.085-.966 2.723-.645.632-1.563.945-2.745.945-1.239 0-2.185-.313-2.831-.945-.646-.632-.966-1.536-.966-2.704V4H6.718v8.911c0 1.588.454 2.83 1.358 3.733.91.902 2.195 1.356 3.862 1.356 1.667 0 2.972-.45 3.92-1.347.948-.896 1.424-2.129 1.424-3.704V4h-1.528ZM6.75 19.5a.75.75 0 0 0 0 1.5h10.5a.75.75 0 0 0 0-1.5H6.75Z" clip-rule="evenodd"/>
</svg>
