<svg xmlns="http://www.w3.org/2000/svg" width="24" height="24" fill="none" viewBox="0 0 24 24">
  <path fill="#191E26" d="M21.5 11.75a.75.75 0 0 1-.75.75h-9.5a.75.75 0 0 1 0-1.5h9.5a.75.75 0 0 1 .75.75Zm-3 5a.75.75 0 0 1-.75.75h-6.5a.75.75 0 0 1 0-1.5h6.5a.75.75 0 0 1 .75.75ZM15.75 7.5a.75.75 0 0 0 0-1.5h-4.5a.75.75 0 0 0 0 1.5h4.5ZM6.5 6.333l1.24 1.239a.75.75 0 0 0 1.06-1.06L6.653 4.366a1.255 1.255 0 0 0-.974-.363 1.256 1.256 0 0 0-.796.363L2.74 6.512a.75.75 0 1 0 1.06 1.06L5.001 6.37v11.26l-1.202-1.2a.75.75 0 0 0-1.06 1.06l2.145 2.146a1.25 1.25 0 0 0 1.77 0L8.8 17.489a.75.75 0 1 0-1.06-1.06l-1.238 1.239V6.332Z"/>
</svg>
