<svg xmlns="http://www.w3.org/2000/svg" width="24" height="24" fill="none" viewBox="0 0 24 24">
  <path fill="#191E26" fill-rule="evenodd" d="M3 4.75c0-.414.302-.75.675-.75h16.65c.373 0 .675.336.675.75s-.302.75-.675.75H3.675C3.302 5.5 3 5.164 3 4.75ZM7.75 12a.75.75 0 0 1-.75.75H3.75a.75.75 0 0 1 0-1.5H7a.75.75 0 0 1 .75.75Zm6.4 0a.75.75 0 0 1-.75.75h-3.3a.75.75 0 0 1 0-1.5h3.3a.75.75 0 0 1 .75.75Zm6.35 0a.75.75 0 0 1-.75.75H16.5a.75.75 0 0 1 0-1.5h3.25a.75.75 0 0 1 .75.75ZM3.8 20.25a.75.75 0 0 0 0-1.5h-.05a.75.75 0 0 0 0 1.5h.05Zm3.2 0a.75.75 0 0 0 0-1.5h-.1a.75.75 0 0 0 0 1.5H7Zm3.2 0a.75.75 0 0 0 0-1.5h-.1a.75.75 0 0 0 0 1.5h.1Zm3.2 0a.75.75 0 0 0 0-1.5h-.1a.75.75 0 0 0 0 1.5h.1Zm3.2 0a.75.75 0 0 0 0-1.5h-.1a.75.75 0 0 0 0 1.5h.1Zm3.15 0a.75.75 0 0 0 0-1.5h-.05a.75.75 0 0 0 0 1.5h.05Z" clip-rule="evenodd"/>
</svg>
