<svg xmlns="http://www.w3.org/2000/svg" width="24" height="24" fill="none" viewBox="0 0 24 24">
  <path fill="#000" fill-rule="evenodd" d="M3.47 3.47A.75.75 0 0 0 4 4.75h16a.75.75 0 1 0 0-1.5H4a.75.75 0 0 0-.53.22Zm8 4A.75.75 0 0 0 12 8.75h8a.75.75 0 1 0 0-1.5h-8a.75.75 0 0 0-.53.22Zm0 4a.75.75 0 0 0 .53 1.28h8a.75.75 0 1 0 0-1.5h-8a.75.75 0 0 0-.53.22Zm0 4a.75.75 0 0 0 .53 1.28h8a.75.75 0 1 0 0-1.5h-8a.75.75 0 0 0-.53.22Zm-8 4A.75.75 0 0 0 4 20.75h16a.75.75 0 1 0 0-1.5H4a.75.75 0 0 0-.53.22Zm.114-3.4a.5.5 0 0 1-.084-.277V8.207a.5.5 0 0 1 .854-.353l3.792 3.792a.499.499 0 0 1 0 .708l-3.792 3.792a.5.5 0 0 1-.77-.075Z" clip-rule="evenodd"/>
</svg>
