<svg xmlns="http://www.w3.org/2000/svg" width="24" height="24" fill="none" viewBox="0 0 24 24">
  <path fill="#191E26" fill-rule="evenodd" d="M21 5v5H10v11H5a2 2 0 0 1-2-2V5a2 2 0 0 1 2-2h14a2 2 0 0 1 2 2Zm-2-.5h-3.5v4h4V5a.5.5 0 0 0-.5-.5Zm-9 0h4v4h-4v-4Zm-5 0h3.5v4h-4V5a.5.5 0 0 1 .5-.5ZM4.5 14v-4h4v4h-4Zm0 5v-3.5h4v4H5a.5.5 0 0 1-.5-.5Z" clip-rule="evenodd"/>
  <path fill="#191E26" d="M20.86 15.498a.75.75 0 0 0-1.014-.31l-1.543.82V14.25a.75.75 0 0 0-1.5 0v1.762l-1.55-.825a.75.75 0 1 0-.704 1.325l1.403.746-1.404.746a.75.75 0 1 0 .704 1.325l1.551-.825v1.746a.75.75 0 0 0 1.5 0v-1.742l1.544.82a.75.75 0 1 0 .704-1.324l-1.404-.746 1.403-.746a.75.75 0 0 0 .31-1.014Z"/>
</svg>
