<svg xmlns="http://www.w3.org/2000/svg" width="24" height="24" fill="none" viewBox="0 0 24 24">
  <path fill="#191E26" d="M8 10a1 1 0 1 1-2 0 1 1 0 0 1 2 0Zm1 0a1 1 0 0 1 1-1h6.5a1 1 0 1 1 0 2H10a1 1 0 0 1-1-1Zm-1 5a1 1 0 1 1-2 0 1 1 0 0 1 2 0Zm1 0a1 1 0 0 1 1-1h6.5a1 1 0 1 1 0 2H10a1 1 0 0 1-1-1Z"/>
  <path fill="#191E26" fill-rule="evenodd" d="M17.033 4.5H7A2.5 2.5 0 0 0 4.5 7v10.372a2.5 2.5 0 0 0 2.5 2.5h10.033a2.5 2.5 0 0 0 2.5-2.5V7a2.5 2.5 0 0 0-2.5-2.5ZM7 3a4 4 0 0 0-4 4v10.372a4 4 0 0 0 4 4h10.033a4 4 0 0 0 4-4V7a4 4 0 0 0-4-4H7Z" clip-rule="evenodd"/>
</svg>
