<svg xmlns="http://www.w3.org/2000/svg" width="24" height="24" fill="none" viewBox="0 0 24 24">
  <path fill="#191E26" d="M3.75 21a.75.75 0 0 1 0-1.5h2v-6.75h-2a.75.75 0 0 1 0-1.5h2V4.5h-2a.75.75 0 0 1 0-1.5h5.5a.75.75 0 0 1 0 1.5h-2v6.75h2a.75.75 0 0 1 0 1.5h-2v6.75h2a.75.75 0 0 1 0 1.5h-5.5Z"/>
  <path fill="#191E26" fill-rule="evenodd" d="M21 5v14a2 2 0 0 1-2 2h-5a2 2 0 0 1-2-2V5a2 2 0 0 1 2-2h5a2 2 0 0 1 2 2Zm-7.5 0v6.25h6V5a.5.5 0 0 0-.5-.5h-5a.5.5 0 0 0-.5.5Zm6 7.75h-6V19a.5.5 0 0 0 .5.5h5a.5.5 0 0 0 .5-.5v-6.25Z" clip-rule="evenodd"/>
</svg>
