<svg xmlns="http://www.w3.org/2000/svg" width="24" height="24" fill="none" viewBox="0 0 24 24">
  <path fill="#191E26" fill-rule="evenodd" d="M4 3.25a.75.75 0 0 1 .75.75v2c0 .69.56 1.25 1.25 1.25h12c.69 0 1.25-.56 1.25-1.25V4a.75.75 0 0 1 1.5 0v2A2.75 2.75 0 0 1 18 8.75H6A2.75 2.75 0 0 1 3.25 6V4A.75.75 0 0 1 4 3.25Zm2 13.5c-.69 0-1.25.56-1.25 1.25v2a.75.75 0 0 1-1.5 0v-2A2.75 2.75 0 0 1 6 15.25h12A2.75 2.75 0 0 1 20.75 18v2a.75.75 0 0 1-1.5 0v-2c0-.69-.56-1.25-1.25-1.25H6Z" clip-rule="evenodd"/>
  <path fill="#191E26" fill-opacity=".2" fill-rule="evenodd" d="M4.25 12a.75.75 0 0 1 .75-.75h14a.75.75 0 0 1 0 1.5H5a.75.75 0 0 1-.75-.75Z" clip-rule="evenodd"/>
</svg>
