<svg xmlns="http://www.w3.org/2000/svg" width="24" height="24" fill="none" viewBox="0 0 24 24">
  <path fill="#191E26" fill-rule="evenodd" d="M4.75 3A1.75 1.75 0 0 0 3 4.75v6.5c0 .966.784 1.75 1.75 1.75H9.5a1.75 1.75 0 0 0 1.75-1.75v-6.5A1.75 1.75 0 0 0 9.5 3H4.75ZM4.5 4.75a.25.25 0 0 1 .25-.25H9.5a.25.25 0 0 1 .25.25v6.5a.25.25 0 0 1-.25.25H4.75a.25.25 0 0 1-.25-.25v-6.5Zm10 6.25a1.75 1.75 0 0 0-1.75 1.75v6.5c0 .966.784 1.75 1.75 1.75h4.75A1.75 1.75 0 0 0 21 19.25v-6.5A1.75 1.75 0 0 0 19.25 11H14.5Zm-.25 1.75a.25.25 0 0 1 .25-.25h4.75a.25.25 0 0 1 .25.25v6.5a.25.25 0 0 1-.25.25H14.5a.25.25 0 0 1-.25-.25v-6.5ZM3 16.25c0-.966.784-1.75 1.75-1.75H9.5c.966 0 1.75.784 1.75 1.75v3A1.75 1.75 0 0 1 9.5 21H4.75A1.75 1.75 0 0 1 3 19.25v-3ZM4.75 16a.25.25 0 0 0-.25.25v3c0 .138.112.25.25.25H9.5a.25.25 0 0 0 .25-.25v-3A.25.25 0 0 0 9.5 16H4.75ZM14.5 3a1.75 1.75 0 0 0-1.75 1.75v3c0 .966.784 1.75 1.75 1.75h4.75A1.75 1.75 0 0 0 21 7.75v-3A1.75 1.75 0 0 0 19.25 3H14.5Zm-.25 1.75a.25.25 0 0 1 .25-.25h4.75a.25.25 0 0 1 .25.25v3a.25.25 0 0 1-.25.25H14.5a.25.25 0 0 1-.25-.25v-3Z" clip-rule="evenodd"/>
</svg>
