<svg xmlns="http://www.w3.org/2000/svg" width="24" height="24" fill="none" viewBox="0 0 24 24">
  <path fill="#191E26" fill-rule="evenodd" d="M11.25 5.81 8.991 8.069a.75.75 0 0 1-1.06-1.06l2.828-2.83a1.75 1.75 0 0 1 2.475 0l2.828 2.83a.75.75 0 0 1-1.06 1.06L12.75 5.817v8.433a.75.75 0 0 1-1.5 0V5.81ZM9 10.476l-6.176 3.04a1 1 0 0 0 0 1.794l7.852 3.863a3 3 0 0 0 2.649 0l7.852-3.863a1 1 0 0 0 0-1.795L15 10.476v1.672l4.602 2.264-6.94 3.415a1.5 1.5 0 0 1-1.324 0l-6.94-3.415L9 12.148v-1.672Z" clip-rule="evenodd"/>
</svg>
