<svg xmlns="http://www.w3.org/2000/svg" width="24" height="24" fill="none" viewBox="0 0 24 24">
  <path fill="#191E26" d="M15.085 19.206c.103 0 .186.083.186.187.172.857.671 1.27 1.529 1.528a.186.186 0 1 1 0 .373c-.857.171-1.271.67-1.529 1.528a.187.187 0 0 1-.373 0c-.171-.857-.67-1.27-1.528-1.528a.187.187 0 0 1 0-.373c.857-.172 1.271-.671 1.528-1.528 0-.104.084-.187.187-.187Z"/>
  <path fill="#191E26" fill-rule="evenodd" d="M13.5 2c1.248 0 2.28.915 2.467 2.11-.006-.037-.01-.074-.017-.11h1.051a4 4 0 0 1 4 4v4h-1.5V8a2.5 2.5 0 0 0-2.5-2.5H15.79A2.499 2.499 0 0 1 13.5 7h-3a2.499 2.499 0 0 1-2.29-1.5H7.001a2.5 2.5 0 0 0-2.5 2.5v9A2.5 2.5 0 0 0 7 19.5h4V21H7a4 4 0 0 1-3.999-4V8a4 4 0 0 1 4-4H8.05c-.008.036-.011.073-.017.11A2.498 2.498 0 0 1 10.5 2h3Zm-3 1.5a1 1 0 0 0 0 2h3a1 1 0 1 0 0-2h-3Z" clip-rule="evenodd"/>
  <path fill="#191E26" d="M19.189 13.182c.117 0 .211.08.24.188.407 1.983 1.285 2.964 3.318 3.37a.254.254 0 0 1 0 .508c-1.982.407-2.91 1.329-3.316 3.362a.25.25 0 0 1-.242.197.25.25 0 0 1-.246-.21c-.406-1.983-1.28-2.942-3.313-3.349a.254.254 0 1 1 0-.508c1.982-.406 2.91-1.334 3.317-3.367a.25.25 0 0 1 .242-.191ZM8.5 14a1.5 1.5 0 1 1 0 3 1.5 1.5 0 0 1 0-3Zm5.75.755a.75.75 0 0 1-.005 1.5l-2-.009a.751.751 0 0 1 .005-1.5l2 .009ZM8.5 9a1.5 1.5 0 1 1 0 3 1.5 1.5 0 0 1 0-3Zm7.826.754a.75.75 0 0 1 0 1.492l-.076.004h-4.003a.75.75 0 0 1 0-1.5h4.003l.076.004Z"/>
</svg>
