<svg xmlns="http://www.w3.org/2000/svg" width="24" height="24" fill="none" viewBox="0 0 24 24">
  <path fill="#191E26" fill-rule="evenodd" d="M16.45 7.792c-.6.606-.9 1.469-.9 2.588 0 1.035.264 1.85.792 2.445.528.591 1.253.887 2.175.887.745 0 1.356-.219 1.832-.657.478-.438.775-1.006.891-1.705h-1.326c-.09.33-.203.579-.34.744-.246.307-.604.461-1.074.461-.458 0-.837-.178-1.136-.535-.295-.36-.443-.899-.443-1.618 0-.72.14-1.275.422-1.666a1.341 1.341 0 0 1 1.152-.592c.479 0 .84.14 1.084.418.136.156.248.388.335.696h1.34c-.02-.4-.169-.8-.444-1.197C20.31 7.354 19.522 7 18.443 7c-.806 0-1.47.264-1.992.792ZM4.707 11.11h1.626l-.8-2.523-.826 2.523Zm.082-3.99h1.514l2.27 6.413H7.12l-.413-1.318H4.344l-.443 1.318H2.5l2.288-6.412Zm5.903 1.114V9.65h1.575c.281 0 .509-.052.683-.156.177-.108.265-.296.265-.566 0-.299-.116-.496-.348-.592a2.48 2.48 0 0 0-.765-.1h-1.41Zm0 2.476v1.71h1.575c.281 0 .5-.038.657-.114.284-.139.426-.406.426-.8 0-.334-.138-.563-.413-.688-.154-.07-.37-.105-.648-.108H10.69Zm1.836-3.59c.786.012 1.343.24 1.67.684.198.272.296.599.296.979 0 .391-.098.706-.296.944-.11.133-.272.255-.487.365.328.119.574.307.74.566.168.258.252.57.252.94 0 .379-.096.72-.287 1.021a1.772 1.772 0 0 1-1.188.827 4.46 4.46 0 0 1-.909.087H9.412V7.122h3.115Zm4.836 9.739a1.25 1.25 0 0 1 1.336-.032l1.415.849a.75.75 0 0 0 .772-1.286l-1.415-.85a2.75 2.75 0 0 0-2.94.07l-.838.56c-.42.279-.966.279-1.386 0l-.782-.522a2.75 2.75 0 0 0-3.05 0l-.782.521c-.42.28-.966.28-1.386 0l-.838-.558a2.75 2.75 0 0 0-2.94-.07l-1.415.849a.75.75 0 1 0 .772 1.286l1.415-.849a1.25 1.25 0 0 1 1.336.032l.838.558a2.75 2.75 0 0 0 3.05 0l.782-.52c.42-.28.966-.28 1.386 0l.782.52a2.75 2.75 0 0 0 3.05 0l.838-.558Z" clip-rule="evenodd"/>
</svg>
