<svg xmlns="http://www.w3.org/2000/svg" width="24" height="24" fill="none" viewBox="0 0 24 24">
  <path fill="#191E26" d="M10.5 20c-.082.101-.177.106-.293.106H5.493c-.135 0-.206-.194-.135-.318l2.391-4.142 3.897 2.25L10.5 20Z"/>
  <path fill="#191E26" fill-rule="evenodd" d="M20.84 10.206a.75.75 0 0 0-.264-1.043l-9.2-5.312a.75.75 0 0 0-1.015.256l-2.1 3.412c-.128.21-.186.454-.167.698a.75.75 0 0 0 .026.145l.508 1.797c.114.657.068 1.105-.052 1.493-.129.42-.35.803-.677 1.368l-.015.027-.91 1.577a1.185 1.185 0 0 0 .432 1.617l4.056 2.342c.143.083.343.157.586.144a1.14 1.14 0 0 0 .602-.223c.293-.21.55-.564.81-1.01l.53-.921c.564-.977 1.15-1.565 2.3-1.992l1.81-.458a.73.73 0 0 0 .148-.054c.2-.1.374-.255.494-.458l2.098-3.405Zm-9.584-4.692 7.902 4.562-1.057 1.717L10.2 7.231l1.057-1.717ZM9.781 8.722l7.176 4.143-1.073.272a.739.739 0 0 0-.073.022c-1.557.568-2.404 1.423-3.12 2.663l-.532.921a4.224 4.224 0 0 1-.237.373L8.43 15.101l.753-1.304.053-.092c.293-.507.593-1.026.774-1.612.2-.651.247-1.353.088-2.234a.769.769 0 0 0-.016-.072l-.3-1.065Z" clip-rule="evenodd"/>
</svg>
