<svg xmlns="http://www.w3.org/2000/svg" width="24" height="24" fill="none" viewBox="0 0 24 24">
  <path fill="#191E26" fill-rule="evenodd" d="M18 7v4.25h2.25a.75.75 0 0 1 0 1.5H18V17a2 2 0 0 1-2 2h-1a2 2 0 0 1-2-2v-4.25h-2V14a2 2 0 0 1-2 2H8a2 2 0 0 1-2-2v-1.25H3.75a.75.75 0 0 1 0-1.5H6V10a2 2 0 0 1 2-2h1a2 2 0 0 1 2 2v1.25h2V7a2 2 0 0 1 2-2h1a2 2 0 0 1 2 2Zm-1.5 0a.5.5 0 0 0-.5-.5h-1a.5.5 0 0 0-.5.5v10a.5.5 0 0 0 .5.5h1a.5.5 0 0 0 .5-.5V7ZM9 9.5a.5.5 0 0 1 .5.5v4a.5.5 0 0 1-.5.5H8a.5.5 0 0 1-.5-.5v-4a.5.5 0 0 1 .5-.5h1Z" clip-rule="evenodd"/>
</svg>
