<svg xmlns="http://www.w3.org/2000/svg" width="24" height="24" fill="none" viewBox="0 0 24 24">
  <path fill="#191E26" d="M11.751 2.5a.75.75 0 0 1 .75.75v9.5a.75.75 0 0 1-1.5 0v-9.5a.75.75 0 0 1 .75-.75Zm4.999 3a.75.75 0 0 1 .75.75v6.5a.75.75 0 0 1-1.5 0v-6.5a.75.75 0 0 1 .75-.75ZM7.501 8.25a.75.75 0 0 0-1.5 0v4.5a.75.75 0 0 0 1.5 0v-4.5ZM6.334 17.5l1.238-1.239a.75.75 0 0 0-1.06-1.06l-2.146 2.145a1.255 1.255 0 0 0-.363.974 1.256 1.256 0 0 0 .363.796l2.146 2.145a.75.75 0 1 0 1.06-1.06L6.372 19H17.63l-1.201 1.201a.75.75 0 0 0 1.06 1.06l2.146-2.145a1.251 1.251 0 0 0 0-1.77l-2.146-2.145a.75.75 0 1 0-1.06 1.06l1.238 1.239H6.334Z"/>
</svg>
