<svg xmlns="http://www.w3.org/2000/svg" width="24" height="24" fill="none" viewBox="0 0 24 24">
  <path fill="#191E26" fill-rule="evenodd" d="M5.042 5.454A2 2 0 0 1 6.966 4h10.068a2 2 0 0 1 1.924 1.454l1.776 6.25c.176.622.266 1.265.266 1.912V16a4 4 0 0 1-4 4H7a4 4 0 0 1-4-4v-2.384a7 7 0 0 1 .266-1.912l1.776-6.25Zm1.924.046h10.068a.5.5 0 0 1 .481.363l1.725 6.071h-3.402a1.5 1.5 0 0 0-1.442 1.088l-.43 1.504a.375.375 0 0 1-.36.272h-3.212a.375.375 0 0 1-.36-.272l-.43-1.504a1.5 1.5 0 0 0-1.443-1.088h-3.4l1.724-6.07a.5.5 0 0 1 .48-.364Zm-2.463 7.934a5.51 5.51 0 0 0-.003.182V16A2.5 2.5 0 0 0 7 18.5h10a2.5 2.5 0 0 0 2.5-2.5v-2.384l-.003-.182h-3.659l-.43 1.504a1.875 1.875 0 0 1-1.802 1.36h-3.212a1.875 1.875 0 0 1-1.803-1.36l-.43-1.504H4.503Z" clip-rule="evenodd"/>
</svg>
