<svg xmlns="http://www.w3.org/2000/svg" width="24" height="24" fill="none" viewBox="0 0 24 24">
  <path fill="url(#a)" d="M11.945 7.195c.009-.047.091-.047.1 0 .1.502.358 1.533.87 2.045s1.542.77 2.044.87c.046.009.046.091 0 .1-.502.1-1.532.358-2.044.87s-.77 1.543-.87 2.045c-.009.047-.091.047-.1 0-.1-.502-.358-1.533-.87-2.045s-1.542-.77-2.044-.87c-.046-.009-.046-.091 0-.1.502-.1 1.532-.358 2.044-.87s.77-1.543.87-2.045Z"/>
  <path fill="url(#b)" d="M17.935 1.046c.012-.061.122-.061.134 0 .133.67.477 2.044 1.16 2.727.682.683 2.056 1.027 2.725 1.16.061.012.061.122 0 .134-.67.133-2.043.477-2.726 1.16-.682.683-1.026 2.057-1.159 2.727-.012.061-.122.061-.134 0-.133-.67-.477-2.044-1.16-2.727-.682-.683-2.056-1.027-2.725-1.16-.062-.012-.062-.122 0-.134.67-.133 2.043-.477 2.726-1.16.682-.683 1.026-2.057 1.159-2.727Z"/>
  <path fill="url(#c)" fill-rule="evenodd" d="M6.341 6.343a8.003 8.003 0 0 0 0 11.314 7.993 7.993 0 0 0 11.308 0 .999.999 0 1 1 1.414 1.414c-3.904 3.905-10.232 3.905-14.135 0-3.904-3.905-3.904-10.237 0-14.142A1 1 0 1 1 6.34 6.343Z" clip-rule="evenodd"/>
  <defs>
    <linearGradient id="a" x1="-8.062" x2="6.77" y1="3.326" y2="17.451" gradientUnits="userSpaceOnUse">
      <stop stop-color="#00C4CC"/>
      <stop offset="1" stop-color="#7D2AE8"/>
    </linearGradient>
    <linearGradient id="b" x1="-5.546" x2="9.285" y1="2.744" y2="16.87" gradientUnits="userSpaceOnUse">
      <stop stop-color="#00C4CC"/>
      <stop offset="1" stop-color="#7D2AE8"/>
    </linearGradient>
    <linearGradient id="c" x1="5.634" x2="18.362" y1="5.636" y2="18.358" gradientUnits="userSpaceOnUse">
      <stop stop-color="#16AAD1"/>
      <stop offset="1" stop-color="#703BE6"/>
    </linearGradient>
  </defs>
</svg>
