<svg xmlns="http://www.w3.org/2000/svg" width="24" height="24" fill="none" viewBox="0 0 24 24">
  <path fill="#191E26" fill-rule="evenodd" d="M5.5 6.792v10.416A2.51 2.51 0 0 1 6.792 18.5h10.416a2.51 2.51 0 0 1 1.292-1.292V6.792A2.51 2.51 0 0 1 17.208 5.5H6.792A2.51 2.51 0 0 1 5.5 6.792ZM6.95 20h10.1A2.5 2.5 0 1 0 20 17.05V6.95A2.5 2.5 0 1 0 17.05 4H6.95A2.5 2.5 0 1 0 4 6.95v10.1A2.5 2.5 0 1 0 6.95 20ZM5.5 4.5a1 1 0 1 1-2 0 1 1 0 0 1 2 0Zm-1 16a1 1 0 1 0 0-2 1 1 0 0 0 0 2Zm16-16a1 1 0 1 1-2 0 1 1 0 0 1 2 0Zm-1 16a1 1 0 1 0 0-2 1 1 0 0 0 0 2ZM7 10.5a3.5 3.5 0 1 0 7 0 3.5 3.5 0 0 0-7 0Zm3.5 2a2 2 0 1 0 0-4 2 2 0 0 0 0 4Zm4.5 2.75a.25.25 0 0 0 .25-.25v-5h1.5v5A1.75 1.75 0 0 1 15 16.75h-5v-1.5h5Z" clip-rule="evenodd"/>
</svg>
