<svg xmlns="http://www.w3.org/2000/svg" width="24" height="24" fill="none" viewBox="0 0 24 24">
  <path fill="#191E26" d="M19.75 15.25a2.25 2.25 0 1 1-4.5 0 2.25 2.25 0 0 1 4.5 0Z"/>
  <path fill="#191E26" fill-rule="evenodd" d="M10.831 3H7.017a4 4 0 0 0-4 3.993l-.017 10A4 4 0 0 0 7 21h4.974l.052-.275c.08-.431.236-.841.427-1.225H7a2.5 2.5 0 0 1-2.5-2.504l.01-5.976h14.983c.543.01 1.1.346 1.507.915V8.769c0-1.657-1.35-3-3.007-3H14.38a.5.5 0 0 1-.447-.276l-.417-.835A3 3 0 0 0 10.83 3ZM7.017 4.5h3.814a1.5 1.5 0 0 1 1.342.83l.417.834a2 2 0 0 0 1.79 1.105h3.613a1.5 1.5 0 0 1 1.5 1.5v.75H4.513l.004-2.523a2.5 2.5 0 0 1 2.5-2.496Z" clip-rule="evenodd"/>
  <path fill="#191E26" d="M13.5 21c.306-1.54 1.98-3 4-3s3.694 1.46 4 3c-1.12.657-2.503 1-4 1-1.497 0-2.88-.343-4-1Z"/>
</svg>
