<svg xmlns="http://www.w3.org/2000/svg" width="24" height="24" fill="none" viewBox="0 0 24 24">
  <path fill="url(#a)" d="M2.969 20.25a.75.75 0 0 1 .75-.75h16.5a.75.75 0 0 1 0 1.5h-16.5a.75.75 0 0 1-.75-.75Z"/>
  <path fill="url(#b)" fill-rule="evenodd" d="M6.5 15.5v-2c0-.242 0-.387-.004-.496a1.324 1.324 0 0 0-.006-.105.5.5 0 0 0-.388-.389c-.008 0-.038-.004-.106-.006A16.52 16.52 0 0 0 5.5 12.5c-.242 0-.387 0-.495.004a1.336 1.336 0 0 0-.106.006.5.5 0 0 0-.388.389.98.98 0 0 0-.007.105c-.004.11-.004.254-.004.496v2c0 .242 0 .387.004.496a.98.98 0 0 0 .007.105.5.5 0 0 0 .388.389c.007 0 .037.004.106.006.108.004.253.004.495.004.243 0 .387 0 .496-.004a1.29 1.29 0 0 0 .106-.006.5.5 0 0 0 .388-.389c0-.007.004-.037.006-.105.004-.11.004-.254.004-.496Zm-.11-4.462C6.197 11 5.965 11 5.5 11s-.697 0-.89.038a2 2 0 0 0-1.571 1.572C3 12.803 3 13.035 3 13.5v2c0 .465 0 .697.039.89a2 2 0 0 0 1.57 1.572c.194.038.426.038.891.038s.697 0 .89-.038a2 2 0 0 0 1.572-1.572C8 16.197 8 15.965 8 15.5v-2c0-.465 0-.697-.038-.89a2 2 0 0 0-1.572-1.572Z" clip-rule="evenodd"/>
  <path fill="url(#c)" fill-rule="evenodd" d="M12.985 15.5v-6c0-.242 0-.387-.004-.496a1.336 1.336 0 0 0-.007-.105.5.5 0 0 0-.388-.389c-.007 0-.037-.004-.106-.006a16.391 16.391 0 0 0-.495-.004c-.243 0-.387 0-.496.004a1.322 1.322 0 0 0-.106.006.5.5 0 0 0-.388.389 1.452 1.452 0 0 0-.007.105 16.52 16.52 0 0 0-.003.496v6c0 .242 0 .387.003.496.003.068.006.098.007.105a.5.5 0 0 0 .388.389c.007 0 .037.004.106.006.109.004.253.004.495.004.243 0 .387 0 .496-.004.069-.002.099-.005.106-.006a.5.5 0 0 0 .388-.389c.001-.007.004-.037.007-.105.003-.11.004-.254.004-.496Zm-.11-8.462C12.68 7 12.449 7 11.985 7c-.465 0-.697 0-.89.038A2 2 0 0 0 9.522 8.61c-.038.193-.038.425-.038.89v6c0 .465 0 .697.038.89a2 2 0 0 0 1.571 1.572c.194.038.426.038.89.038.465 0 .697 0 .89-.038a2 2 0 0 0 1.572-1.572c.039-.193.039-.425.039-.89v-6c0-.465 0-.697-.039-.89a2 2 0 0 0-1.571-1.572Z" clip-rule="evenodd"/>
  <path fill="url(#d)" fill-rule="evenodd" d="M19.469 15.5v-10c0-.242 0-.387-.004-.496a1.312 1.312 0 0 0-.006-.105.5.5 0 0 0-.389-.389c-.007 0-.037-.004-.106-.006a16.384 16.384 0 0 0-.495-.004c-.243 0-.387 0-.496.004a1.331 1.331 0 0 0-.106.006.5.5 0 0 0-.388.389c0 .007-.004.037-.006.105a16.52 16.52 0 0 0-.004.496v10c0 .242 0 .387.004.496.002.068.005.098.006.105a.5.5 0 0 0 .388.389c.008 0 .037.004.106.006.109.004.253.004.496.004.242 0 .387 0 .495-.004.07-.002.1-.005.106-.006a.5.5 0 0 0 .389-.389c0-.007.004-.037.006-.105.004-.11.004-.254.004-.496Zm-.11-12.462C19.166 3 18.933 3 18.47 3c-.465 0-.697 0-.89.038a2 2 0 0 0-1.572 1.572c-.038.193-.038.425-.038.89v10c0 .465 0 .697.038.89a2 2 0 0 0 1.572 1.572c.193.038.425.038.89.038.464 0 .697 0 .89-.038a2 2 0 0 0 1.571-1.572c.039-.193.039-.425.039-.89v-10c0-.465 0-.697-.039-.89a2 2 0 0 0-1.57-1.572Z" clip-rule="evenodd"/>
  <path fill="url(#e)" d="M7.496.708c.406 1.982 1.284 2.963 3.317 3.37a.254.254 0 1 1 0 .508c-1.982.406-2.909 1.328-3.316 3.361a.25.25 0 0 1-.242.197.25.25 0 0 1-.245-.21c-.407-1.982-1.28-2.942-3.313-3.348a.254.254 0 0 1 0-.509C5.679 3.671 6.607 2.744 7.013.71a.25.25 0 0 1 .242-.19.25.25 0 0 1 .24.189Z"/>
  <path fill="url(#f)" d="M3.338 6.73c.172.857.67 1.27 1.528 1.528a.187.187 0 0 1 0 .374c-.857.171-1.27.67-1.528 1.527a.187.187 0 0 1-.373 0c-.172-.857-.67-1.27-1.528-1.527a.187.187 0 0 1 0-.374c.857-.172 1.27-.67 1.528-1.528a.187.187 0 0 1 .373 0Z"/>
  <defs>
    <linearGradient id="a" x1="-8.609" x2="11.857" y1="10.759" y2="30.464" gradientUnits="userSpaceOnUse">
      <stop stop-color="#03A5AB"/>
      <stop offset="1" stop-color="#7D2AE8"/>
    </linearGradient>
    <linearGradient id="b" x1="-8.609" x2="11.857" y1="10.759" y2="30.464" gradientUnits="userSpaceOnUse">
      <stop stop-color="#03A5AB"/>
      <stop offset="1" stop-color="#7D2AE8"/>
    </linearGradient>
    <linearGradient id="c" x1="-8.609" x2="11.857" y1="10.759" y2="30.464" gradientUnits="userSpaceOnUse">
      <stop stop-color="#03A5AB"/>
      <stop offset="1" stop-color="#7D2AE8"/>
    </linearGradient>
    <linearGradient id="d" x1="-8.609" x2="11.857" y1="10.759" y2="30.464" gradientUnits="userSpaceOnUse">
      <stop stop-color="#03A5AB"/>
      <stop offset="1" stop-color="#7D2AE8"/>
    </linearGradient>
    <linearGradient id="e" x1="-8.609" x2="11.857" y1="10.759" y2="30.464" gradientUnits="userSpaceOnUse">
      <stop stop-color="#03A5AB"/>
      <stop offset="1" stop-color="#7D2AE8"/>
    </linearGradient>
    <linearGradient id="f" x1="-8.609" x2="11.857" y1="10.759" y2="30.464" gradientUnits="userSpaceOnUse">
      <stop stop-color="#03A5AB"/>
      <stop offset="1" stop-color="#7D2AE8"/>
    </linearGradient>
  </defs>
</svg>
