<svg xmlns="http://www.w3.org/2000/svg" width="24" height="24" fill="none" viewBox="0 0 24 24">
  <path fill="#191E26" d="M18.952 12.817h-9.7a.75.75 0 1 1 0-1.5h9.7l-3.23-3.04a.75.75 0 0 1 1.06-1.06l4.49 4.32c.3.3.3.77 0 1.06l-4.5 4.18a.748.748 0 0 1-1.113.052.75.75 0 0 1 .063-1.112l3.21-2.9h.02Z"/>
  <path fill="#191E26" d="M4.5 4.5h6a.5.5 0 0 1 .5.5v2.737h1.5V5a2 2 0 0 0-2-2h-6a2 2 0 0 0-2 2v14a2 2 0 0 0 2 2h6a2 2 0 0 0 2-2v-2.736H11V19a.5.5 0 0 1-.5.5h-6A.5.5 0 0 1 4 19V5a.5.5 0 0 1 .5-.5Z"/>
</svg>
