<svg xmlns="http://www.w3.org/2000/svg" width="24" height="24" fill="none" viewBox="0 0 24 24">
  <path fill="#191E26" fill-rule="evenodd" d="M13.353 4.148a1.5 1.5 0 1 0-2.707 0 6.225 6.225 0 0 0-4.868 6.074v1.308c0 3.264-.825 4.817-1.818 5.97h-.21a.75.75 0 0 0 0 1.5H9a3 3 0 1 0 6 0h5.25a.75.75 0 0 0 0-1.5h-.209c-.994-1.156-1.819-2.708-1.819-5.97v-1.308a6.224 6.224 0 0 0-4.869-6.074ZM13.5 19h-3a1.5 1.5 0 0 0 3 0Zm4.673-1.5H5.829c.99-1.522 1.449-3.302 1.449-5.97v-1.308a4.722 4.722 0 0 1 9.444 0v1.307c0 2.668.46 4.447 1.451 5.971Z" clip-rule="evenodd"/>
</svg>
