<svg xmlns="http://www.w3.org/2000/svg" width="24" height="24" fill="none" viewBox="0 0 24 24">
  <path fill="#191E26" fill-rule="evenodd" d="m17 6.353-1.22 1.22a.75.75 0 1 1-1.06-1.06l2.145-2.146a1.255 1.255 0 0 1 1.77 0l2.145 2.146a.75.75 0 0 1-1.06 1.06l-1.22-1.22V17.65l1.22-1.22a.75.75 0 1 1 1.06 1.06l-2.145 2.146a1.255 1.255 0 0 1-1.77 0L14.72 17.49a.75.75 0 0 1 1.06-1.06L17 17.65V6.353ZM3 6a.75.75 0 0 1 .75-.75h7.5a.75.75 0 1 1 0 1.5h-7.5A.75.75 0 0 1 3 6Zm0 6a.75.75 0 0 1 .75-.75h7.5a.75.75 0 1 1 0 1.5h-7.5A.75.75 0 0 1 3 12Zm.75 5.25a.75.75 0 1 0 0 1.5h7.5a.75.75 0 1 0 0-1.5h-7.5Z" clip-rule="evenodd"/>
</svg>
