<svg xmlns="http://www.w3.org/2000/svg" width="24" height="24" fill="none" viewBox="0 0 24 24">
  <path fill="#191E26" d="M3 3.75a.75.75 0 0 1 1.5 0v2h6.75v-2a.75.75 0 0 1 1.5 0v2h6.75v-2a.75.75 0 0 1 1.5 0v5.5a.75.75 0 0 1-1.5 0v-2h-6.75v2a.75.75 0 0 1-1.5 0v-2H4.5v2a.75.75 0 0 1-1.5 0v-5.5Z"/>
  <path fill="#191E26" fill-rule="evenodd" d="M19 21H5a2 2 0 0 1-2-2v-5a2 2 0 0 1 2-2h14a2 2 0 0 1 2 2v5a2 2 0 0 1-2 2Zm0-7.5h-6.25v6H19a.5.5 0 0 0 .5-.5v-5a.5.5 0 0 0-.5-.5Zm-7.75 6v-6H5a.5.5 0 0 0-.5.5v5a.5.5 0 0 0 .5.5h6.25Z" clip-rule="evenodd"/>
</svg>
