<svg xmlns="http://www.w3.org/2000/svg" width="24" height="24" fill="none" viewBox="0 0 24 24">
  <path fill="#191E26" fill-rule="evenodd" d="M3 6a3 3 0 0 1 3-3h12a3 3 0 0 1 3 3v2a3 3 0 0 1-3 3H6a3 3 0 0 1-3-3V6Zm3-1.5h12A1.5 1.5 0 0 1 19.5 6v2A1.5 1.5 0 0 1 18 9.5H6A1.5 1.5 0 0 1 4.5 8V6A1.5 1.5 0 0 1 6 4.5ZM3 16a3 3 0 0 1 3-3h12a3 3 0 0 1 3 3v2a3 3 0 0 1-3 3H6a3 3 0 0 1-3-3v-2Zm3-1.5h12a1.5 1.5 0 0 1 1.5 1.5v2a1.5 1.5 0 0 1-1.5 1.5H6A1.5 1.5 0 0 1 4.5 18v-2A1.5 1.5 0 0 1 6 14.5Z" clip-rule="evenodd"/>
</svg>
