<svg xmlns="http://www.w3.org/2000/svg" width="24" height="24" fill="none" viewBox="0 0 24 24">
  <path fill="#000" d="M5.75 19.75h12.5a.75.75 0 0 0 0-1.5H5.75a.75.75 0 0 0 0 1.5Z"/>
  <path fill="#000" fill-rule="evenodd" d="M15.97 22.03a.75.75 0 0 1 0-1.06L17.94 19l-1.97-1.97a.75.75 0 0 1 1.06-1.06l2.146 2.145a1.255 1.255 0 0 1 .272 1.364 1.25 1.25 0 0 1-.272.406L17.03 22.03a.75.75 0 0 1-1.06 0Zm-5.72-11.037a4.5 4.5 0 1 1 .606-8.98A.752.752 0 0 1 11 2h5a.75.75 0 0 1 0 1.5h-1.25v11.75a.75.75 0 0 1-1.5 0V3.5h-1.5v11.75a.75.75 0 0 1-1.5 0v-4.257Zm0-1.503V3.51a3 3 0 0 0 0 5.98Z" clip-rule="evenodd"/>
</svg>
