<svg xmlns="http://www.w3.org/2000/svg" width="24" height="24" fill="none" viewBox="0 0 24 24">
  <path fill="#191E26" fill-rule="evenodd" d="M10 4.5h8a.5.5 0 0 1 .5.5v11a.5.5 0 0 1-.5.5h-.5V18h.5a2 2 0 0 0 2-2V5a2 2 0 0 0-2-2h-8a2 2 0 0 0-2 2v.5h1.5V5a.5.5 0 0 1 .5-.5Zm4 4H8a.5.5 0 0 0-.5.5v.5H6V9a2 2 0 0 1 2-2h6a2 2 0 0 1 2 2v9a2 2 0 0 1-2 2h-.5v-1.5h.5a.5.5 0 0 0 .5-.5V9a.5.5 0 0 0-.5-.5ZM5.5 13a.5.5 0 0 1 .5-.5h4a.5.5 0 0 1 .5.5v7a.5.5 0 0 1-.5.5H6a.5.5 0 0 1-.5-.5v-7ZM4 13a2 2 0 0 1 2-2h4a2 2 0 0 1 2 2v7a2 2 0 0 1-2 2H6a2 2 0 0 1-2-2v-7Z" clip-rule="evenodd"/>
</svg>
