<svg xmlns="http://www.w3.org/2000/svg" width="24" height="24" fill="none" viewBox="0 0 24 24">
  <path fill="#191E26" fill-rule="evenodd" d="M6.724 8H5.692V4.073H5.63l-1.21.834v-.96l1.275-.88h1.03V8Zm5.026-2.75a.75.75 0 0 0 0 1.5h7.5a.75.75 0 0 0 0-1.5h-7.5Zm0 6a.75.75 0 0 0 0 1.5h7.5a.75.75 0 0 0 0-1.5h-7.5ZM11 18a.75.75 0 0 1 .75-.75h7.5a.75.75 0 0 1 0 1.5h-7.5A.75.75 0 0 1 11 18Zm-6.56-6.956v.018h.958v-.021c0-.455.328-.769.807-.769.45 0 .772.28.772.677 0 .321-.174.577-.868 1.254l-1.61 1.576v.721h3.558v-.858h-2.16v-.061l.943-.9c.855-.803 1.145-1.264 1.145-1.8 0-.848-.717-1.44-1.746-1.44-1.067 0-1.798.65-1.798 1.603Zm1.874 7.816h-.612v-.769h.602c.468 0 .786-.273.786-.676 0-.397-.308-.65-.79-.65-.478 0-.796.27-.823.697h-.954c.034-.933.728-1.52 1.805-1.52 1.011 0 1.74.553 1.74 1.329 0 .57-.36 1.015-.91 1.128v.061c.677.076 1.1.527 1.1 1.176 0 .865-.813 1.49-1.937 1.49-1.1 0-1.846-.608-1.89-1.538h.987c.031.417.383.68.913.68.516 0 .875-.29.875-.71 0-.431-.338-.698-.892-.698Z" clip-rule="evenodd"/>
</svg>
