<svg xmlns="http://www.w3.org/2000/svg" width="24" height="24" fill="none" viewBox="0 0 24 24">
  <path fill="#191E26" fill-rule="evenodd" d="M20.12 5.002a.98.98 0 0 1 .248.032A2 2 0 0 1 22 7v10a2 2 0 0 1-1.96 2H4a2 2 0 0 1-2-2V7a2 2 0 0 1 1.998-2H20c.033 0 .067 0 .1.002h.02ZM3.5 7c0-.014 0-.029.002-.043l4.588 5.39-4.589 4.69A.51.51 0 0 1 3.5 17V7Zm17 .098-4.525 5.315 4.524 4.626A.494.494 0 0 0 20.5 17V7.098Zm-5.847 6.787a4 4 0 0 1-5.586-.393l-3.919 4.006 13.704.002-3.857-3.943a4.004 4.004 0 0 1-.342.328ZM5 6.5l13.955.002-5.074 5.958a2.5 2.5 0 0 1-3.807 0L5 6.5Z" clip-rule="evenodd"/>
</svg>
