<svg xmlns="http://www.w3.org/2000/svg" width="24" height="24" fill="none" viewBox="0 0 24 24">
  <path fill="#191E26" fill-rule="evenodd" d="M15.5 3.75a.75.75 0 0 0-1.5 0V7h1.5V3.75Zm-5.5 0V7H8.5V3.75a.75.75 0 0 1 1.5 0ZM3.75 8.5H7V10H3.75a.75.75 0 0 1 0-1.5Zm0 5.5H7v1.5H3.75a.75.75 0 0 1 0-1.5Zm4.75 6.25V17H10v3.25a.75.75 0 0 1-1.5 0Zm5.5 0V17h1.5v3.25a.75.75 0 0 1-1.5 0Zm6.25-4.75H17V14h3.25a.75.75 0 0 1 0 1.5Zm0-5.5H17V8.5h3.25a.75.75 0 0 1 0 1.5ZM10.03 8.97a.75.75 0 1 0-1.06 1.06L10.94 12l-1.97 1.97a.75.75 0 1 0 1.06 1.06L12 13.06l1.97 1.97a.75.75 0 1 0 1.06-1.06L13.06 12l1.97-1.97a.75.75 0 1 0-1.06-1.06L12 10.94l-1.97-1.97Z" clip-rule="evenodd"/>
</svg>
