<svg xmlns="http://www.w3.org/2000/svg" width="24" height="24" fill="none" viewBox="0 0 24 24">
  <path fill="#191E26" fill-rule="evenodd" d="m14.217 5.72-4 13a.75.75 0 0 1-1.434-.44l4-13a.75.75 0 1 1 1.434.44Zm-11.24 5.695 4.35-2.783a.75.75 0 0 0-.809-1.264l-4.63 2.963c-.85.545-.85 1.623 0 2.168l4.555 2.914a.75.75 0 1 0 .808-1.263l-4.274-2.735Zm13.619 2.735a.75.75 0 0 0 .808 1.263l4.63-2.962c.852-.545.852-1.624 0-2.169L17.48 7.368a.75.75 0 1 0-.808 1.264l4.273 2.735-4.35 2.783Z" clip-rule="evenodd"/>
</svg>
