<svg xmlns="http://www.w3.org/2000/svg" width="24" height="24" fill="none" viewBox="0 0 24 24">
  <path fill="#191E26" d="M11.95 7.195c.009-.047.091-.047.1 0 .1.502.358 1.533.87 2.045s1.543.77 2.045.87c.047.009.047.091 0 .1-.502.1-1.533.358-2.045.87s-.77 1.543-.87 2.045c-.009.047-.091.047-.1 0-.1-.502-.358-1.533-.87-2.045s-1.543-.77-2.045-.87c-.047-.009-.047-.091 0-.1.502-.1 1.533-.358 2.045-.87s.77-1.543.87-2.045Zm5.992-6.149c.013-.061.123-.061.135 0 .133.67.477 2.044 1.16 2.727.683.683 2.057 1.027 2.726 1.16.062.012.062.122 0 .134-.669.133-2.043.477-2.726 1.16-.683.683-1.027 2.057-1.16 2.727-.012.061-.122.061-.135 0-.132-.67-.476-2.044-1.16-2.727-.682-.683-2.056-1.027-2.726-1.16-.062-.012-.062-.122 0-.134.67-.133 2.044-.477 2.727-1.16.683-.683 1.027-2.057 1.16-2.727Z"/>
  <path fill="#191E26" fill-rule="evenodd" d="M6.343 6.343a8 8 0 0 0 11.314 11.314 1 1 0 1 1 1.414 1.414c-3.905 3.905-10.237 3.905-14.142 0-3.905-3.905-3.905-10.237 0-14.142a1 1 0 0 1 1.414 1.414Z" clip-rule="evenodd"/>
</svg>
