<svg xmlns="http://www.w3.org/2000/svg" width="24" height="24" fill="none" viewBox="0 0 24 24">
  <path fill="#191E26" d="M12.315 16.555c.287.744.702 1.128 1.242 1.152v.36a27.034 27.034 0 0 0-1.927-.054c-1.032 0-1.8.018-2.303.054v-.36c.456-.024.78-.078.972-.162.204-.096.306-.264.306-.504 0-.204-.072-.486-.216-.846L9.29 13.243H4.935l-.738 1.908c-.24.648-.36 1.14-.36 1.476 0 .372.126.642.378.81.264.168.66.258 1.188.27v.36a39.38 39.38 0 0 0-2.07-.054c-.54 0-.99.018-1.35.054v-.36c.6-.144 1.074-.666 1.422-1.566l4.23-10.908h.288l4.392 11.322Zm-3.168-3.672L7.13 7.5l-2.052 5.382h4.068Zm9.114 5.333c2.224 0 3.683-1.652 3.683-4.324v-.896c0-2.778-1.512-4.307-3.665-4.307-1.169 0-2.241.606-2.716 1.406h-.044V5.437h-1.511v12.63h1.45v-1.389h.044c.545.95 1.441 1.538 2.76 1.538Zm-.184-1.318c-1.617 0-2.575-1.099-2.575-3.103v-.712c0-2.004.966-3.076 2.575-3.076 1.38 0 2.346 1.081 2.346 3.076v.73c0 1.977-.957 3.085-2.346 3.085Z"/>
</svg>
