<svg xmlns="http://www.w3.org/2000/svg" width="24" height="24" fill="none" viewBox="0 0 24 24">
  <path fill="#191E26" fill-rule="evenodd" d="M9.25 3.5a.75.75 0 0 0-1.5 0V5H7a4 4 0 0 0-4 4v8a4 4 0 0 0 4 4h4v-1.5H7A2.5 2.5 0 0 1 4.5 17v-5.5h15V13H21V9a4 4 0 0 0-4-4h-.75V3.5a.75.75 0 0 0-1.5 0V5h-5.5V3.5Zm-1.5 3v1a.75.75 0 0 0 1.5 0v-1h5.5v1a.75.75 0 0 0 1.5 0v-1H17A2.5 2.5 0 0 1 19.5 9v1h-15V9A2.5 2.5 0 0 1 7 6.5h.75Z" clip-rule="evenodd"/>
  <path fill="#191E26" d="m16.738 21.441 5.161-5.16a.75.75 0 1 0-1.06-1.061l-4.627 4.626-1.915-1.94c-.702-.712-1.77.342-1.067 1.054l2.446 2.48c.344.346.774.27 1.042.02a.924.924 0 0 0 .02-.019Z"/>
</svg>
