<svg xmlns="http://www.w3.org/2000/svg" width="24" height="24" fill="none" viewBox="0 0 24 24">
  <path fill="#191E26" fill-rule="evenodd" d="M20 3a.75.75 0 0 0-.75.75v16.5a.75.75 0 0 0 1.5 0V3.75A.75.75 0 0 0 20 3Zm-5 3H6a2 2 0 0 0-2 2v1a2 2 0 0 0 2 2h9a2 2 0 0 0 2-2V8a2 2 0 0 0-2-2Zm-4 7h4a2 2 0 0 1 2 2v1a2 2 0 0 1-2 2h-4a2 2 0 0 1-2-2v-1a2 2 0 0 1 2-2Zm4-5.5a.5.5 0 0 1 .5.5v1a.5.5 0 0 1-.5.5H6a.5.5 0 0 1-.5-.5V8a.5.5 0 0 1 .5-.5h9Zm.5 7.5a.5.5 0 0 0-.5-.5h-4a.5.5 0 0 0-.5.5v1a.5.5 0 0 0 .5.5h4a.5.5 0 0 0 .5-.5v-1Z" clip-rule="evenodd"/>
</svg>
