<svg xmlns="http://www.w3.org/2000/svg" width="24" height="24" fill="none" viewBox="0 0 24 24">
  <path fill="#191E26" fill-rule="evenodd" d="M6.544 5.982 2.057 18h1.534l1.135-3.134h4.982L10.835 18h1.6L7.946 5.982H6.544Zm2.71 7.621L7.57 8.92a9.904 9.904 0 0 1-.172-.533 7.36 7.36 0 0 1-.132-.525h-.073a9.896 9.896 0 0 1-.312 1.058l-1.697 4.684h4.07Z" clip-rule="evenodd"/>
  <path fill="#191E26" d="M12.818 11.665v.732c0 1.783.45 3.173 1.353 4.17.907.993 2.125 1.489 3.653 1.489 1.003 0 1.857-.157 2.563-.47.71-.318 1.241-.66 1.592-1.026v-4.513h-4.314v1.233h2.865v2.738a3.995 3.995 0 0 1-1.202.581c-.419.122-.92.183-1.504.183-1.109 0-1.971-.387-2.587-1.162-.61-.78-.915-1.854-.915-3.223v-.732c0-1.37.305-2.441.915-3.216.61-.78 1.422-1.17 2.436-1.17.891 0 1.58.242 2.07.725.492.482.74.994.74 1.536v.087h1.496l-.008-.095c-.08-.955-.488-1.78-1.226-2.476-.738-.7-1.759-1.05-3.064-1.05-1.438 0-2.608.499-3.51 1.496-.902.992-1.353 2.38-1.353 4.163Z"/>
</svg>
