<svg xmlns="http://www.w3.org/2000/svg" width="24" height="24" fill="none" viewBox="0 0 24 24">
  <path fill="#191E26" d="M15.88 4.585A12.895 12.895 0 0 0 12 4C6.477 4 2 7.358 2 11.5c0 1.792.838 3.438 2.237 4.728l1.061-1.061C4.168 14.138 3.5 12.856 3.5 11.5c0-3.205 3.727-6 8.5-6 .934 0 1.828.107 2.662.303l1.218-1.218ZM9.578 17.25a11.959 11.959 0 0 0 3.742.177l3.158 2.562-.131-3.342C18.853 15.58 20.5 13.63 20.5 11.5c0-1.294-.608-2.521-1.646-3.525l.695-.695a1.16 1.16 0 0 0 .277-.45C21.186 8.111 22 9.734 22 11.5c0 2.493-1.621 4.701-4.116 6.065l.136 3.47a1 1 0 0 1-1.63.815l-3.545-2.876c-.278.017-.56.026-.845.026-1.29 0-2.522-.183-3.654-.517l1.232-1.233Z"/>
  <path fill="#191E26" fill-rule="evenodd" d="M20.34 3.658c.293.293.25.81-.095 1.156l-15.43 15.43c-.346.346-.864.39-1.157.096-.293-.293-.25-.81.095-1.156l15.432-15.43c.345-.346.863-.39 1.155-.096Z" clip-rule="evenodd"/>
</svg>
