<svg xmlns="http://www.w3.org/2000/svg" width="24" height="24" fill="none" viewBox="0 0 24 24">
  <path fill="#191E26" fill-rule="evenodd" d="M7.095 5.982 2.607 18h1.534l1.136-3.134h4.981L11.385 18h1.6L8.496 5.982H7.095Zm2.709 7.621L8.12 8.92a9.895 9.895 0 0 1-.172-.533 7.36 7.36 0 0 1-.132-.525h-.073a9.895 9.895 0 0 1-.312 1.058l-1.697 4.684h4.07Zm4.757 5.467-.938 1.129c.415.36.921.656 1.52.888a5.315 5.315 0 0 0 1.966.357c1.151 0 2.084-.326 2.798-.98.714-.652 1.07-1.59 1.07-2.813V9.167h-1.352l-.067 1.13h-.041c-.222-.36-.562-.665-1.021-.914-.454-.254-.983-.382-1.586-.382-1.095 0-1.973.412-2.631 1.237-.653.825-.98 1.868-.98 3.13v.265c0 1.262.327 2.302.98 3.121.658.82 1.536 1.229 2.631 1.229.603 0 1.118-.108 1.544-.324a2.726 2.726 0 0 0 1.03-.863v.855c0 .797-.216 1.408-.648 1.834-.432.432-1.018.648-1.76.648a3.364 3.364 0 0 1-1.494-.324c-.437-.216-.777-.462-1.02-.739Zm.847-3.212c-.382-.598-.573-1.34-.573-2.225v-.266c0-.885.191-1.627.573-2.224.387-.603.996-.905 1.826-.905.553 0 1.024.152 1.411.457.387.298.667.641.838 1.029v3.544c-.171.382-.45.725-.838 1.03-.387.304-.858.456-1.411.456-.83 0-1.439-.299-1.826-.896Z" clip-rule="evenodd"/>
</svg>
