<svg xmlns="http://www.w3.org/2000/svg" width="24" height="24" fill="none" viewBox="0 0 24 24">
  <path fill="#191E26" fill-rule="evenodd" d="M11.625 5.25h-4.5a4.875 4.875 0 1 0 0 9.75h4.5a4.876 4.876 0 0 0 4.501-3h-1.694a3.372 3.372 0 0 1-2.807 1.5h-4.5a3.375 3.375 0 1 1 0-6.75h4.5c.804 0 1.542.28 2.121.75h1.988a4.871 4.871 0 0 0-4.109-2.25ZM17.251 9h-4.5a4.876 4.876 0 0 0-4.501 3h1.695a3.372 3.372 0 0 1 2.806-1.5h4.5a3.375 3.375 0 0 1 0 6.75h-4.5a3.361 3.361 0 0 1-2.121-.75H8.643a4.871 4.871 0 0 0 4.108 2.25h4.5a4.875 4.875 0 1 0 0-9.75Z" clip-rule="evenodd"/>
</svg>
