<svg xmlns="http://www.w3.org/2000/svg" width="24" height="24" fill="none" viewBox="0 0 24 24">
  <path fill="#000" d="M6.75 8a1.25 1.25 0 1 0 0-2.5 1.25 1.25 0 0 0 0 2.5Zm-.5 8.5a.75.75 0 0 1 .75-.75h6a.75.75 0 0 1 0 1.5H7a.75.75 0 0 1-.75-.75Z"/>
  <path fill="#000" fill-rule="evenodd" d="M5 3a2 2 0 0 0-2 2v14a2 2 0 0 0 2 2h14a2 2 0 0 0 2-2V5a2 2 0 0 0-2-2H5Zm14 1.5H5a.5.5 0 0 0-.5.5v7.25h.603l3.16-3.58a1.84 1.84 0 0 1 .42-.362c.868-.549 2.091-.39 2.732.353l.947.932 2.723-3.11c.115-.134.251-.252.406-.351.865-.552 2.09-.4 2.735.34L19.5 7.89V5a.5.5 0 0 0-.5-.5Zm.5 5.534-2.448-2.811a.544.544 0 0 0-.684-.085.46.46 0 0 0-.101.087l-2.891 3.367 1.683 1.658H19.5v-2.216Zm-6.432 2.216-2.832-2.844a.544.544 0 0 0-.683-.088.46.46 0 0 0-.105.09L6.666 12.25h6.402ZM4.5 19v-5.25h15V19a.5.5 0 0 1-.5.5H5a.5.5 0 0 1-.5-.5Z" clip-rule="evenodd"/>
</svg>
