<svg xmlns="http://www.w3.org/2000/svg" width="24" height="24" fill="none" viewBox="0 0 24 24">
  <path fill="#191E26" fill-rule="evenodd" d="M19.5 15.5v-4.48H4.517l-.01 5.976a2.5 2.5 0 0 0 2.5 2.504H13.5V21H7.007a4 4 0 0 1-4-4.007l.017-10a4 4 0 0 1 4-3.993h3.814a3 3 0 0 1 2.684 1.658l.417.835a.5.5 0 0 0 .447.276H18a3 3 0 0 1 3 3V15.5h-1.5ZM7.024 4.5h3.814a1.5 1.5 0 0 1 1.342.83l.417.834a2 2 0 0 0 1.789 1.105H18a1.5 1.5 0 0 1 1.5 1.5v.75H4.52l.004-2.523a2.5 2.5 0 0 1 2.5-2.496Z" clip-rule="evenodd"/>
  <path fill="#191E26" d="M16.75 18.25a.75.75 0 0 0 0 1.5h4.5a.75.75 0 0 0 0-1.5h-4.5Z"/>
</svg>
