<svg xmlns="http://www.w3.org/2000/svg" width="24" height="24" fill="none" viewBox="0 0 24 24">
  <g clip-path="url(#a)">
    <path fill="#191E26" fill-rule="evenodd" d="M23.4 4.968c1.005-1.005.87-2.77-.302-3.941C21.927-.145 20.162-.28 19.157.725L10.392 9.49a4.54 4.54 0 0 0-1.129 1.897l-1.1 3.611a.706.706 0 0 0 .037.487c.161.37.577.585.927.478l3.61-1.101a4.54 4.54 0 0 0 1.898-1.13l8.764-8.764Zm-9.826 7.704a3.41 3.41 0 0 1-1.423.847l-.612.187-1.12-1.12.186-.612a3.405 3.405 0 0 1 .847-1.423l.558-.557 2.121 2.12-.557.558Zm1.618-1.618 4.796-4.796-2.122-2.12-4.796 4.795 2.122 2.121Zm7.146-7.146-1.29 1.29-2.121-2.122 1.29-1.29c.503-.502 1.385-.435 1.97.151.586.586.654 1.468.151 1.97ZM6 4h4.5v1.5H6a.5.5 0 0 0-.5.5v12a.5.5 0 0 0 .5.5h10a.5.5 0 0 0 .5-.5v-3.125H18V18a2 2 0 0 1-2 2H6a2 2 0 0 1-2-2V6a2 2 0 0 1 2-2Z" clip-rule="evenodd"/>
  </g>
  <defs>
    <clipPath id="a">
      <path fill="#fff" d="M0 0h24v24H0z"/>
    </clipPath>
  </defs>
</svg>
