<svg xmlns="http://www.w3.org/2000/svg" width="24" height="24" fill="none" viewBox="0 0 24 24">
  <path fill="#191E26" fill-rule="evenodd" d="M18.5 4.5h-13a1 1 0 0 0 0 2h13a1 1 0 1 0 0-2ZM5.5 3a2.5 2.5 0 0 0 0 5h13a2.5 2.5 0 0 0 0-5h-13Z" clip-rule="evenodd"/>
  <path fill="#191E26" fill-rule="evenodd" d="M18.5 10.5h-13a1 1 0 1 0 0 2h13a1 1 0 1 0 0-2ZM5.5 9a2.5 2.5 0 0 0 0 5h13a2.5 2.5 0 0 0 0-5h-13Zm13 7.5h-13a1 1 0 1 0 0 2h13a1 1 0 1 0 0-2ZM5.5 15a2.5 2.5 0 0 0 0 5h13a2.5 2.5 0 0 0 0-5h-13Z" clip-rule="evenodd" opacity=".25"/>
</svg>
