<svg xmlns="http://www.w3.org/2000/svg" width="24" height="24" fill="none" viewBox="0 0 24 24">
  <path fill="#191E26" fill-rule="evenodd" d="M10.515 18.25c-1.826-1.239-4.874-3.666-6.441-6.934A4.332 4.332 0 1 1 12 7.978c.178-.629.495-1.2.915-1.677a4.332 4.332 0 0 1 6.91 5.183c-1.588 3.18-4.552 5.546-6.341 6.763l-.32.215-.004.002c-.704.463-1.16.708-1.16.708v-.708.708s-.456-.244-1.16-.706l-.004-.002a23.94 23.94 0 0 1-.321-.214Zm.775 2.243-.003-.002-.006-.003-.017-.009a9.006 9.006 0 0 1-.263-.149c-.174-.1-.419-.247-.718-.438a26.22 26.22 0 0 1-2.312-1.658c-1.76-1.413-3.921-3.528-5.226-6.221A5.832 5.832 0 0 1 12 5.083a5.832 5.832 0 0 1 9.133 7.138c-1.327 2.622-3.449 4.682-5.173 6.061-.88.704-1.68 1.25-2.265 1.622a20.616 20.616 0 0 1-.9.543l-.057.031-.018.01-.005.003h-.003a1.502 1.502 0 0 1-1.422.002Z" clip-rule="evenodd"/>
</svg>
