<svg xmlns="http://www.w3.org/2000/svg" width="24" height="24" fill="none" viewBox="0 0 24 24">
  <g opacity=".2">
    <path fill="#191E26" fill-rule="evenodd" d="M14.25 4.5h-4.5v15h4.5v-15ZM19 3a2 2 0 0 1 2 2v14a2 2 0 0 1-2 2H5a2 2 0 0 1-2-2V5a2 2 0 0 1 2-2h14Zm-3.25 16.5H19a.5.5 0 0 0 .5-.5V5a.5.5 0 0 0-.5-.5h-3.25v15ZM5 19.5h3.25v-15H5a.5.5 0 0 0-.5.5v14a.5.5 0 0 0 .5.5Z" clip-rule="evenodd"/>
    <path fill="#191E26" fill-rule="evenodd" d="M21 8H3v7.5h18V8Zm-1.5 1.5h-15V14h15V9.5Z" clip-rule="evenodd"/>
  </g>
  <path fill="#191E26" fill-rule="evenodd" d="M9.75 8V4.5h-1.5V8H4.5v1.5h3.75V14H4.5v1.5h3.75v4h1.5v-4h4.5v4h1.5v-4h3.75V14h-3.75V9.5h3.75V8h-3.75V4.5h-1.5V8h-4.5Zm4.5 6V9.5h-4.5V14h4.5Z" clip-rule="evenodd"/>
</svg>
