<svg xmlns="http://www.w3.org/2000/svg" width="24" height="24" fill="none" viewBox="0 0 24 24">
  <path fill="#191E26" fill-rule="evenodd" d="M21.02 3.607a3 3 0 0 1 0 4.242L10.804 18.066a6 6 0 0 1-2.147 1.38l-4.002 1.49a.75.75 0 0 1-.964-.964l1.49-4.002a6 6 0 0 1 1.38-2.147L16.778 3.607a3 3 0 0 1 4.242 0ZM8.133 18.04a4.5 4.5 0 0 0 1.48-.91l-2.116-2.116c-.396.43-.705.932-.91 1.48l-.486 1.307.725.726 1.307-.487Zm9.937-9.361-7.394 7.393-2.121-2.121 7.393-7.394L18.07 8.68Zm1.06-1.061.83-.83a1.5 1.5 0 1 0-2.122-2.12l-.829.829 2.121 2.121Z" clip-rule="evenodd"/>
  <path fill="#191E26" d="M5.75 8.5a.75.75 0 0 0 1.5 0v-2h2a.75.75 0 0 0 0-1.5h-2V3a.75.75 0 0 0-1.5 0v2h-2a.75.75 0 0 0 0 1.5h2v2Z"/>
  <path fill="#191E26" fill-rule="evenodd" d="M3 5.75A.75.75 0 0 1 3.75 5h5.5a.75.75 0 0 1 0 1.5h-5.5A.75.75 0 0 1 3 5.75Z" clip-rule="evenodd"/>
</svg>
