<svg xmlns="http://www.w3.org/2000/svg" width="24" height="24" fill="none" viewBox="0 0 24 24">
  <path fill="#191E26" fill-rule="evenodd" d="m8.978 19.48-2.093 1.115a9.944 9.944 0 0 1-3.25-3.114L4.74 15.22l-2.438-.779a9.95 9.95 0 0 1-.1-4.451l2.552-.917-1.199-2.431A9.95 9.95 0 0 1 6.72 3.508L9.013 4.64l.778-2.395a9.945 9.945 0 0 1 4.5.019l.731 2.255 2.093-1.115a9.944 9.944 0 0 1 3.25 3.114L19.261 8.78l2.438.779a9.95 9.95 0 0 1 .099 4.451l-2.552.917 1.2 2.431a9.95 9.95 0 0 1-3.164 3.133l-2.295-1.133-.777 2.395a9.944 9.944 0 0 1-4.5-.019l-.732-2.255Zm1.173-1.247.71 2.193c.732.1 1.47.102 2.2.01l.707-2.18a6.46 6.46 0 0 0 1.306-.527l2.084 1.03c.58-.442 1.1-.956 1.55-1.533l-1.023-2.072c.256-.46.457-.954.596-1.474l2.174-.78a8.439 8.439 0 0 0-.05-2.179l-2.214-.707a6.47 6.47 0 0 0-.573-1.286l1.005-2.06a8.436 8.436 0 0 0-1.589-1.52L15 6.232a6.457 6.457 0 0 0-1.15-.465l-.711-2.193a8.437 8.437 0 0 0-2.2-.01l-.706 2.18a6.387 6.387 0 0 0-1.306.527l-2.085-1.03c-.58.442-1.1.956-1.549 1.533l1.022 2.072c-.255.46-.457.954-.595 1.474l-2.175.78a8.443 8.443 0 0 0 .05 2.178l2.214.708c.145.452.338.883.574 1.286l-1.005 2.06c.46.572.993 1.083 1.588 1.52l2.035-1.084c.364.19.75.346 1.15.465Zm1.85-3.733a2.5 2.5 0 1 0 0-5 2.5 2.5 0 0 0 0 5ZM8 12a4 4 0 1 0 8 0 4 4 0 0 0-8 0Z" clip-rule="evenodd"/>
</svg>
