<svg xmlns="http://www.w3.org/2000/svg" width="24" height="24" fill="none" viewBox="0 0 24 24">
  <path fill="#191E26" fill-rule="evenodd" d="M12 3a.75.75 0 0 1 .75.75V6H17a2 2 0 0 1 2 2v1a2 2 0 0 1-2 2h-4.25v2H14a2 2 0 0 1 2 2v1a2 2 0 0 1-2 2h-1.25v2.25a.75.75 0 0 1-1.5 0V18H10a2 2 0 0 1-2-2v-1a2 2 0 0 1 2-2h1.25v-2H7a2 2 0 0 1-2-2V8a2 2 0 0 1 2-2h4.25V3.75A.75.75 0 0 1 12 3ZM7 7.5a.5.5 0 0 0-.5.5v1a.5.5 0 0 0 .5.5h10a.5.5 0 0 0 .5-.5V8a.5.5 0 0 0-.5-.5H7ZM9.5 15a.5.5 0 0 1 .5-.5h4a.5.5 0 0 1 .5.5v1a.5.5 0 0 1-.5.5h-4a.5.5 0 0 1-.5-.5v-1Z" clip-rule="evenodd"/>
</svg>
