<svg xmlns="http://www.w3.org/2000/svg" width="24" height="24" fill="none" viewBox="0 0 24 24">
  <path fill="#191E26" fill-rule="evenodd" d="M3 5a2 2 0 0 1 2-2h14a2 2 0 0 1 2 2v12.25a.75.75 0 0 1-1.5 0v-1.5h-4v1.5a.75.75 0 0 1-1.5 0v-1.5H4.5v1.5a.75.75 0 0 1-1.5 0V5Zm2-.5h14a.5.5 0 0 1 .5.5v3.25h-15V5a.5.5 0 0 1 .5-.5Zm-.5 9.75v-4.5h4v4.5h-4Zm15 0v-4.5h-4v4.5h4Zm-5.5 0h-4v-4.5h4v4.5Z" clip-rule="evenodd"/>
  <path fill="#191E26" fill-rule="evenodd" d="M8.03 16.97a.75.75 0 0 1 0 1.06L6.06 20l1.97 1.97a.75.75 0 1 1-1.06 1.06l-2.146-2.145a1.255 1.255 0 0 1-.272-1.364 1.25 1.25 0 0 1 .272-.406L6.97 16.97a.75.75 0 0 1 1.06 0Zm-2.146 2.853Z" clip-rule="evenodd"/>
  <path fill="#191E26" fill-rule="evenodd" d="M8.03 16.97a.75.75 0 0 1 0 1.06L6.06 20l1.97 1.97a.75.75 0 1 1-1.06 1.06l-2.146-2.145a1.255 1.255 0 0 1-.272-1.364 1.25 1.25 0 0 1 .272-.406L6.97 16.97a.75.75 0 0 1 1.06 0Zm-2.146 2.853Z" clip-rule="evenodd"/>
  <path fill="#191E26" d="M18.25 19.25H5.75a.75.75 0 0 0 0 1.5h12.5a.75.75 0 0 0 0-1.5Z"/>
</svg>
