<svg xmlns="http://www.w3.org/2000/svg" width="24" height="24" fill="none" viewBox="0 0 24 24">
  <path fill="#191E26" fill-rule="evenodd" d="M11.25 3.81 8.991 6.069a.75.75 0 0 1-1.06-1.06l2.828-2.83a1.75 1.75 0 0 1 2.475 0l2.828 2.83a.75.75 0 0 1-1.06 1.06L12.75 3.817v9.433a.75.75 0 0 1-1.5 0V3.81ZM9 8.476l-6.176 3.04a1 1 0 0 0 0 1.794l7.852 3.863a3 3 0 0 0 2.649 0l7.852-3.863a1 1 0 0 0 0-1.795L15 8.476v1.672l4.602 2.264-6.94 3.415a1.5 1.5 0 0 1-1.324 0l-6.94-3.415L9 10.148V8.476Zm-6.176 8.175 1.697-.835 1.699.836-1.822.897 6.94 3.415a1.5 1.5 0 0 0 1.324 0l6.94-3.415-1.821-.897 1.698-.836 1.698.835a1 1 0 0 1 0 1.795l-7.852 3.864a3 3 0 0 1-2.65 0l-7.851-3.864a1 1 0 0 1 0-1.795Z" clip-rule="evenodd"/>
</svg>
