<svg xmlns="http://www.w3.org/2000/svg" width="24" height="24" fill="none" viewBox="0 0 24 24">
  <path fill="#191E26" fill-rule="evenodd" d="M3 4a2 2 0 0 1 2-2h11a2 2 0 0 1 1.985 1.75h.515A2.25 2.25 0 0 1 20.75 6v2.5a2.25 2.25 0 0 1-2.25 2.25h-5.75a.75.75 0 0 0-.75.75v1.563A2 2 0 0 1 13.5 15v5a2 2 0 0 1-2 2H11a2 2 0 0 1-2-2v-5a2 2 0 0 1 1.5-1.937V11.5a2.25 2.25 0 0 1 2.25-2.25h5.75a.75.75 0 0 0 .75-.75V6a.75.75 0 0 0-.75-.75H18v.25a2 2 0 0 1-2 2H5a2 2 0 0 1-2-2V4Zm8.5 10.5a.5.5 0 0 1 .5.5v5a.5.5 0 0 1-.5.5H11a.5.5 0 0 1-.5-.5v-5a.5.5 0 0 1 .5-.5h.5Z" clip-rule="evenodd"/>
</svg>
