<svg xmlns="http://www.w3.org/2000/svg" width="24" height="24" fill="none" viewBox="0 0 24 24">
  <path fill="#191E26" fill-rule="evenodd" d="M21.02 3.607a3 3 0 0 1 0 4.242L10.805 18.066a6 6 0 0 1-2.147 1.38l-4.001 1.49a.75.75 0 0 1-.965-.964l1.491-4.002a6 6 0 0 1 1.38-2.147L16.778 3.607a3 3 0 0 1 4.243 0ZM8.134 18.04a4.499 4.499 0 0 0 1.48-.91l-2.116-2.116a4.5 4.5 0 0 0-.91 1.48l-.486 1.307.726.726 1.306-.487Zm9.937-9.361-7.393 7.393-2.122-2.121 7.394-7.394 2.12 2.123Zm-1.06-3.182 2.12 2.121.83-.83a1.5 1.5 0 1 0-2.121-2.12l-.83.829Z" clip-rule="evenodd"/>
</svg>
