<svg xmlns="http://www.w3.org/2000/svg" width="24" height="24" fill="none" viewBox="0 0 24 24">
  <path fill="#191E26" fill-rule="evenodd" d="M8.128 2.118c.406 1.982 1.284 2.963 3.317 3.37a.254.254 0 1 1 0 .508c-1.983.406-2.91 1.328-3.316 3.361a.25.25 0 0 1-.242.197.25.25 0 0 1-.246-.21c-.406-1.982-1.28-2.942-3.313-3.348a.254.254 0 0 1 0-.509c1.983-.406 2.91-1.334 3.317-3.367a.25.25 0 0 1 .242-.191.25.25 0 0 1 .24.189Zm-2.63 7.55C4.64 9.41 4.14 8.998 3.97 8.14a.187.187 0 0 0-.374 0c-.257.857-.67 1.356-1.528 1.528a.187.187 0 0 0 0 .373c.858.258 1.357.671 1.528 1.528a.187.187 0 1 0 .374 0c.257-.857.67-1.356 1.528-1.528a.187.187 0 1 0 0-.373Zm4.783 5.39 6.144-6.666 1.896 1.635-6.607 6.426a1 1 0 0 1-1.433-1.395Zm9.112-6.087L17.442 7.29l.81-.88a1.322 1.322 0 1 1 1.893 1.844l-.823.8.07-.082Zm-8.31 9.264a2.495 2.495 0 0 0 1.677-.707l8.431-8.2a2.822 2.822 0 1 0-4.042-3.935l-7.97 8.648a2.49 2.49 0 0 0-.66 1.814c-.727-.141-1.395-.029-1.976.323-.908.549-1.365 1.547-1.515 2.376-.04.22-.131.336-.2.38a1.798 1.798 0 0 0-.827 1.485 1.5 1.5 0 0 0 .923 1.401c2.127.918 3.926.573 5.062-.522a3.66 3.66 0 0 0 1.098-3.063Zm-1.636-.247c.316.722.125 1.67-.499 2.271-.57.55-1.657.935-3.368.196-.035-.015-.047-.03-.051-.038a.108.108 0 0 1-.014-.058.25.25 0 0 1 .122-.201c.541-.357.794-.92.881-1.402.106-.585.402-1.093.78-1.322.305-.184.893-.319 1.942.34.118.074.18.152.207.214Z" clip-rule="evenodd"/>
</svg>
