<svg xmlns="http://www.w3.org/2000/svg" width="24" height="24" fill="none" viewBox="0 0 24 24">
  <path fill="#191E26" fill-rule="evenodd" d="m11.29 20.493-.003-.002-.006-.003-.017-.009a9.006 9.006 0 0 1-.263-.149c-.174-.1-.419-.247-.718-.438a26.22 26.22 0 0 1-2.312-1.658c-1.76-1.413-3.921-3.528-5.226-6.221A5.832 5.832 0 0 1 12 5.083a5.832 5.832 0 0 1 9.133 7.138c-1.327 2.622-3.449 4.682-5.173 6.061-.88.704-1.68 1.25-2.265 1.622a20.616 20.616 0 0 1-.9.543l-.057.031-.018.01-.005.003h-.003a1.502 1.502 0 0 1-1.422.002Z" clip-rule="evenodd"/>
</svg>
