<svg xmlns="http://www.w3.org/2000/svg" width="24" height="24" fill="none" viewBox="0 0 24 24">
  <path fill="#191E26" fill-rule="evenodd" d="M17.82 13.04c.88.31 1.64.78 2.27 1.43h.02c1.981 2.05 1.953 5.042 1.95 5.306v.014c-.01.23-.12.44-.31.58-.04.03-2.68 1.91-6.49 1.91-1.61 0-3.43-.35-5.35-1.3l1.19-1.1c4.61 2.03 8.35.15 9.45-.52-.05-.78-.3-2.6-1.53-3.86-.89-.92-2.15-1.38-3.75-1.38s-2.86.47-3.75 1.38c-.05.05-.12.14-.12.14l-1.1-1.02.036-.047a1.25 1.25 0 0 1 .094-.113c.63-.65 1.39-1.12 2.27-1.43-1.04-.78-1.72-2.04-1.72-3.37s.64-2.5 1.61-3.28V3.99c0-.27-.23-.5-.5-.5H8.12v3.8c0 1.07-.87 1.95-1.95 1.95H3.58v6.17h-1.5v-6.4c0-.5.17-.99.48-1.39L6.4 2.76c.38-.48.95-.76 1.57-.76h4.12c1.1 0 2 .9 2 2v1.62c.37-.1.76-.18 1.17-.18 2.36 0 4.28 1.9 4.28 4.23 0 1.38-.68 2.6-1.72 3.37ZM6.16 7.75c.25 0 .45-.2.45-.45V4.92L4.37 7.75h1.79Zm6.31 1.92c0 1.5 1.25 2.73 2.78 2.73 1.53 0 2.78-1.23 2.78-2.73s-1.25-2.73-2.78-2.73c-1.53 0-2.78 1.23-2.78 2.73Z" clip-rule="evenodd"/>
  <path fill="#191E26" d="m6.87 13.45 3.78 3.5h.01c.15.14.24.34.24.55 0 .21-.09.41-.24.55L6.7 21.7c-.15.13-.33.2-.51.2-.2 0-.4-.08-.55-.24a.755.755 0 0 1 .04-1.06l2.49-2.3H2.75c-.41 0-.75-.34-.75-.75s.34-.75.75-.75h5.53l-2.43-2.25a.755.755 0 0 1-.04-1.06c.28-.3.76-.32 1.06-.04Z"/>
</svg>
