<svg xmlns="http://www.w3.org/2000/svg" width="24" height="24" fill="none" viewBox="0 0 24 24">
  <path fill="#191E26" d="M5 4.5a.5.5 0 0 0-.5.5v14a.5.5 0 0 0 .5.5h4a.5.5 0 0 0 .5-.5v-1.5H11V19a2 2 0 0 1-2 2H5a2 2 0 0 1-2-2V5a2 2 0 0 1 2-2h4a2 2 0 0 1 2 2v1.5H9.5V5a.5.5 0 0 0-.5-.5H5Zm14 0a.5.5 0 0 1 .5.5v14a.5.5 0 0 1-.5.5h-4a.5.5 0 0 1-.5-.5v-1.5H13V19a2 2 0 0 0 2 2h4a2 2 0 0 0 2-2V5a2 2 0 0 0-2-2h-4a2 2 0 0 0-2 2v1.5h1.5V5a.5.5 0 0 1 .5-.5h4Z"/>
  <path fill="#191E26" fill-rule="evenodd" d="M13.47 8.47a.75.75 0 0 1 1.06 0l2.293 2.293a1.75 1.75 0 0 1 0 2.474L14.53 15.53a.75.75 0 1 1-1.06-1.06l2.293-2.293a.25.25 0 0 0 0-.354L13.47 9.53a.75.75 0 0 1 0-1.06Zm-2.94 0a.75.75 0 0 0-1.06 0l-2.293 2.293a1.75 1.75 0 0 0 0 2.474L9.47 15.53a.75.75 0 1 0 1.06-1.06l-2.293-2.293a.25.25 0 0 1 0-.354L10.53 9.53a.75.75 0 0 0 0-1.06Z" clip-rule="evenodd"/>
</svg>
