<svg xmlns="http://www.w3.org/2000/svg" width="24" height="24" fill="none" viewBox="0 0 24 24">
  <path fill="#191E26" d="M23.198 4.077c-2.033-.406-2.91-1.387-3.317-3.37A.25.25 0 0 0 19.64.52a.25.25 0 0 0-.242.191c-.004.004.004-.007 0 0-.407 2.034-1.334 2.96-3.317 3.367a.254.254 0 0 0 0 .509c2.034.406 2.907 1.366 3.314 3.348a.25.25 0 0 0 .245.21.25.25 0 0 0 .242-.197c-.002.005.003-.003 0 0 .407-2.033 1.333-2.955 3.316-3.361a.254.254 0 0 0 0-.509ZM17.25 8.258c-.857-.257-1.356-.67-1.527-1.528a.187.187 0 0 0-.374 0c-.257.857-.67 1.356-1.528 1.528a.187.187 0 0 0 0 .374c.858.257 1.357.67 1.528 1.527a.187.187 0 0 0 .374 0c.257-.857.67-1.356 1.527-1.527a.187.187 0 0 0 0-.374Z"/>
  <path fill="#191E26" d="M19.888.708c.407 1.982 1.284 2.963 3.318 3.37a.254.254 0 0 1 0 .508c-1.983.406-2.91 1.328-3.316 3.361a.25.25 0 0 1-.243.197.25.25 0 0 1-.245-.21c-.407-1.982-1.28-2.942-3.313-3.348a.254.254 0 1 1 0-.509c1.983-.406 2.91-1.333 3.317-3.367a.25.25 0 0 1 .241-.19.25.25 0 0 1 .241.188ZM3 10.081a4 4 0 0 1 4-4h6.978a1.674 1.674 0 0 0-.095.31c-.079.233-.141.307-.156.323a.098.098 0 0 1-.03.02.549.549 0 0 1-.115.04 1.688 1.688 0 0 0-1.21.807H7a2.5 2.5 0 0 0-2.5 2.5v6.997a2.5 2.5 0 0 0 2.5 2.5h6.997a2.5 2.5 0 0 0 2.5-2.5v-5.532c.35-.243.603-.615.692-1.047.078-.234.141-.308.156-.323a.096.096 0 0 1 .03-.021.548.548 0 0 1 .115-.04c.18-.026.35-.08.505-.156.002.04.002.081.002.122v6.997a4 4 0 0 1-4 4H7a4 4 0 0 1-4-4v-6.997Zm7.003-7.023H14v1.5h-3.997c-.117 0-.232.008-.345.023-1.101.002-2.053.011-2.86.082a3.994 3.994 0 0 1 3.205-1.605Zm9.497 6.95v4.047l-.003.12c0 1.187-.006 2.209-.078 3.066A3.994 3.994 0 0 0 21 14.055v-4.047h-1.5Z"/>
</svg>
