<svg xmlns="http://www.w3.org/2000/svg" width="24" height="24" fill="none" viewBox="0 0 24 24">
  <path fill="#191E26" fill-rule="evenodd" d="M12 2a6 6 0 0 1 6 6 2 2 0 0 1 2 2v9a2 2 0 0 1-2 2H6a2 2 0 0 1-2-2v-9a2 2 0 0 1 2-2 6 6 0 0 1 6-6ZM7.5 8a4.5 4.5 0 1 1 9 0h-9ZM6 9.5a.5.5 0 0 0-.5.5v9a.5.5 0 0 0 .5.5h12a.5.5 0 0 0 .5-.5v-9a.5.5 0 0 0-.5-.5H6Zm7.778 3.143c0 .745-.42 1.388-1.027 1.684l-.003 3.034a.75.75 0 1 1-1.5-.002l.003-3.032a1.864 1.864 0 0 1-1.029-1.684c0-1.026.796-1.857 1.778-1.857s1.778.831 1.778 1.857Z" clip-rule="evenodd"/>
</svg>
