<svg xmlns="http://www.w3.org/2000/svg" width="24" height="24" fill="none" viewBox="0 0 24 24">
  <path fill="#191E26" d="M14.337 20.001c-.339.503-.93.956-1.821.956-.973 0-1.55-.627-1.844-1.114a3.386 3.386 0 0 1-.384-.952l-.014-.05a28.223 28.223 0 0 0-.282-.897c-.186-.558-.422-1.203-.647-1.652-.068-.137-.303-.436-.71-.867a30.66 30.66 0 0 0-1.319-1.295 62.907 62.907 0 0 0-1.58-1.423h-1.72v-8.5h1.973l3.5-.25h6.014l.028-.003.025-.002.107-.01c.11-.01.26-.018.429-.01.322.017.814.104 1.204.494.295.296.483.617.593.907.29.11.612.298.907.593.434.434.467 1.006.428 1.382a2.736 2.736 0 0 1-.063.364c.106.094.211.202.31.322a2.3 2.3 0 0 1 .545 1.463c0 .625-.34 1.138-.612 1.459a2.3 2.3 0 0 1 .611 1.54c0 .304-.063.598-.224.854a1.31 1.31 0 0 1-.61.513c-.345.145-.735.137-.878.134h-4.237c.554 1.875.7 3.866.7 4.75 0 .31-.117.832-.429 1.294Zm-7.833-8.614.01.01.03.026a58.504 58.504 0 0 1 .523.456c.34.3.798.71 1.273 1.154.474.443.971.924 1.385 1.362.39.412.78.863.961 1.226.276.55.54 1.28.729 1.848a29.419 29.419 0 0 1 .298.949l.017.06.005.016.002.006-.721.207.72-.207.01.03.004.026v.002a1.388 1.388 0 0 0 .043.146c.035.105.09.24.166.367.157.262.33.386.557.386.308 0 .467-.13.578-.295a1.102 1.102 0 0 0 .171-.454v-.001c0-.952-.195-3.345-.946-5.222l-.411-1.028h6.43a4.67 4.67 0 0 0 .178-.004.805.805 0 0 0-.205-.508 1.31 1.31 0 0 0-.38-.318l-1.127-.563 1.03-.72.002-.002.02-.015.086-.068c.075-.063.173-.152.269-.257.22-.242.254-.46.254-.569 0-.18-.023-.328-.154-.488a1.307 1.307 0 0 0-.38-.318l-.672-.335.389-.62c.052-.105.086-.364.086-.364s0-.204-.086-.322a.706.706 0 0 0-.222-.202c-.085-.035-.278-.077-.278-.077h-.632v-.74s.004-.086-.032-.171c-.04-.097-.054-.128-.18-.254 0 0-.128-.103-.29-.111a1.697 1.697 0 0 0-.304.013l-.04.004h-.002c-.03.003-.092.009-.152.009H9.542l-3.5.25h-.526v5.5h.777l.21.18Z"/>
</svg>
