<svg xmlns="http://www.w3.org/2000/svg" width="24" height="24" fill="none" viewBox="0 0 24 24">
  <path fill="#191E26" fill-rule="evenodd" d="M7.078 4.723h4.443c2.025 0 3.495.288 4.41.864.914.576 1.372 1.492 1.372 2.749 0 .853-.2 1.553-.6 2.1a2.405 2.405 0 0 1-1.598.986v.098c.905.201 1.558.579 1.959 1.132.4.554.6 1.29.6 2.207 0 1.303-.47 2.318-1.411 3.047-.94.73-2.219 1.094-3.833 1.094H7.078V4.723Zm3.027 5.654h1.758c.82 0 1.415-.127 1.783-.38.367-.255.551-.675.551-1.26 0-.548-.2-.94-.6-1.177-.4-.238-1.034-.357-1.9-.357h-1.591v3.174Zm0 2.402V16.5h1.973c.834 0 1.449-.16 1.846-.479.397-.319.596-.807.596-1.464 0-1.185-.847-1.778-2.54-1.778h-1.875Z" clip-rule="evenodd"/>
</svg>
