<svg xmlns="http://www.w3.org/2000/svg" width="24" height="24" fill="none" viewBox="0 0 24 24">
  <path fill="#191E26" fill-rule="evenodd" d="m18.44 4.5-8.72 8.72a.75.75 0 1 0 1.06 1.06l8.72-8.72v4.69a.75.75 0 0 0 1.5 0v-6.5a.747.747 0 0 0-.75-.75h-6.5a.75.75 0 0 0 0 1.5h4.69Zm-13.19 1a.75.75 0 0 0-.75.75v12.5c0 .414.336.75.75.75h12.5a.75.75 0 0 0 .75-.75v-3a.75.75 0 0 1 1.5 0v3A2.25 2.25 0 0 1 17.75 21H5.25A2.25 2.25 0 0 1 3 18.75V6.25A2.25 2.25 0 0 1 5.25 4h3a.75.75 0 0 1 0 1.5h-3Z" clip-rule="evenodd"/>
</svg>
