<svg xmlns="http://www.w3.org/2000/svg" width="24" height="24" fill="none" viewBox="0 0 24 24">
  <path fill="#191E26" d="M11.152 15.239a.18.18 0 0 1-.2.084l-3.875-.067a.18.18 0 0 1-.112-.265l1.993-3.451 3.248 1.875-1.054 1.824Z"/>
  <path fill="#191E26" fill-rule="evenodd" d="m12.011 2.962 6.37 3.677-.765 1.325-6.37-3.677.765-1.325Zm-1.237 2.784.248.876a.753.753 0 0 1 .017.071c.134.752.096 1.357-.078 1.921-.155.502-.412.947-.655 1.366l-.045.08-.565.978 2.701 1.56c.038-.057.08-.126.128-.208l.443-.767c.609-1.055 1.335-1.79 2.665-2.275a.753.753 0 0 1 .073-.022l.882-.223-5.814-3.357Zm7.459 4.15 1.822-3.156a.75.75 0 0 0-.275-1.025l-7.668-4.427a.75.75 0 0 0-1.024.275L9.265 4.718c-.11.19-.163.414-.146.639a.75.75 0 0 0 .026.145l.422 1.491c.09.527.052.879-.04 1.18-.104.336-.282.645-.56 1.124l-.007.013-.758 1.314a1.112 1.112 0 0 0 .406 1.518l3.38 1.952a.997.997 0 0 0 .558.136c.228-.013.42-.103.568-.209.267-.191.492-.507.709-.881l.443-.767c.457-.792.922-1.259 1.845-1.603l1.502-.38a.753.753 0 0 0 .148-.055c.197-.097.36-.25.47-.44l.002.001Z" clip-rule="evenodd"/>
</svg>
