<svg xmlns="http://www.w3.org/2000/svg" width="24" height="24" fill="none" viewBox="0 0 24 24">
  <path fill="url(#a)" d="M6.683.624c.407 1.983 1.284 2.963 3.318 3.37a.254.254 0 1 1 0 .508c-1.983.407-2.91 1.329-3.316 3.362a.25.25 0 0 1-.243.197.25.25 0 0 1-.245-.21c-.406-1.983-1.28-2.942-3.313-3.349a.254.254 0 0 1 0-.508C4.867 3.587 5.794 2.66 6.201.627a.25.25 0 0 1 .241-.191.25.25 0 0 1 .241.188Z"/>
  <path fill="url(#b)" d="M4.054 8.174c-.858-.257-1.357-.67-1.528-1.527a.187.187 0 0 0-.374 0c-.257.857-.67 1.356-1.528 1.527a.187.187 0 0 0 0 .374c.858.257 1.357.67 1.528 1.528a.187.187 0 0 0 .374 0c.257-.857.67-1.356 1.528-1.528a.187.187 0 0 0 0-.374Z"/>
  <path fill="url(#c)" d="M22 15.23V8.746c-.024-1.183-.818-1.609-1.805-.9l-2.64 1.423a53.825 53.825 0 0 1-.023-1.691v-.441c-.049-1.49-1.348-2.769-2.864-2.816-.9-.026-1.787-.045-2.668-.056v1.5c.866.011 1.737.03 2.622.055.74.024 1.376.675 1.41 1.346 0 .79 0 1.329.024 2.147l-.001 2.428L20.5 9.386v5.217l-4.444-2.24V14.8c0 .802 0 1.238-.024 2.017-.022.677-.664 1.34-1.41 1.364-3.29.093-6.374.093-9.64 0-.746-.024-1.388-.687-1.41-1.364A161.198 161.198 0 0 1 3.5 12H2c0 1.621.024 3.242.072 4.863.048 1.49 1.348 2.769 2.864 2.816 3.298.095 6.41.095 9.732 0 1.516-.047 2.816-1.325 2.864-2.816l.01-.39c.014-.583.014-1.009.014-1.674l2.64 1.33c.986.687 1.804.284 1.804-.899Z"/>
  <defs>
    <linearGradient id="a" x1="-10.344" x2="8.854" y1="10.093" y2="31.525" gradientUnits="userSpaceOnUse">
      <stop stop-color="#03A5AB"/>
      <stop offset="1" stop-color="#7D2AE8"/>
    </linearGradient>
    <linearGradient id="b" x1="-10.344" x2="8.854" y1="10.093" y2="31.525" gradientUnits="userSpaceOnUse">
      <stop stop-color="#03A5AB"/>
      <stop offset="1" stop-color="#7D2AE8"/>
    </linearGradient>
    <linearGradient id="c" x1="-10.344" x2="8.854" y1="10.093" y2="31.525" gradientUnits="userSpaceOnUse">
      <stop stop-color="#03A5AB"/>
      <stop offset="1" stop-color="#7D2AE8"/>
    </linearGradient>
  </defs>
</svg>
