<svg xmlns="http://www.w3.org/2000/svg" width="24" height="24" fill="none" viewBox="0 0 24 24">
  <path fill="#191E26" d="M14.91 3.254A4 4 0 0 0 8 6v6a4 4 0 0 0 8 0v-.9l-1.5.9a2.5 2.5 0 0 1-5 0V6a2.5 2.5 0 0 1 4.072-1.944l1.336-.802Z"/>
  <path fill="#191E26" d="M17.163 12.953a5.25 5.25 0 0 1-10.325 0 .75.75 0 1 0-1.476.269 6.751 6.751 0 0 0 5.888 5.487v1.541h-3.5a.75.75 0 0 0 0 1.5h8.5a.75.75 0 0 0 0-1.5h-3.5v-1.541a6.751 6.751 0 0 0 5.889-5.486.75.75 0 1 0-1.476-.27Zm.89-10.78c.407 1.817 1.284 2.716 3.318 3.089.14 0 .254.104.254.233 0 .128-.114.233-.254.233-1.983.373-2.91 1.217-3.316 3.081a.247.247 0 0 1-.242.18.245.245 0 0 1-.246-.192c-.406-1.817-1.28-2.696-3.313-3.07-.14 0-.254-.104-.254-.232 0-.129.114-.233.254-.233 1.983-.373 2.91-1.223 3.317-3.087A.247.247 0 0 1 17.812 2c.118 0 .212.074.241.173Zm-3.965 5.391c.172.785.67 1.164 1.528 1.4.103 0 .187.077.187.171 0 .095-.084.172-.187.172-.857.157-1.27.614-1.528 1.4 0 .095-.083.171-.186.171-.104 0-.187-.076-.187-.171-.172-.786-.67-1.165-1.528-1.4-.103 0-.187-.077-.187-.172 0-.094.084-.171.187-.171.857-.157 1.27-.615 1.528-1.4 0-.095.083-.172.187-.172.103 0 .186.077.186.171Z"/>
</svg>
