<svg xmlns="http://www.w3.org/2000/svg" width="24" height="24" fill="none" viewBox="0 0 24 24">
  <path fill="#191E26" fill-rule="evenodd" d="M3.215 3.062a.75.75 0 0 0 0 1.06l.709.71A5.816 5.816 0 0 0 2 9.16c0 1.033.27 2.008.745 2.853 1.305 2.693 3.465 4.808 5.226 6.22.896.72 1.714 1.279 2.312 1.66a21.077 21.077 0 0 0 .981.586l.017.01.006.002.003.002a1.503 1.503 0 0 0 1.422-.001l.003-.001.005-.003.018-.01.056-.031.2-.114c.17-.1.41-.243.701-.429a26.197 26.197 0 0 0 3.037-2.265l2.502 2.502a.75.75 0 0 0 1.06-1.06L4.276 3.06a.75.75 0 0 0-1.061 0Zm12.453 13.514L4.986 5.894A4.321 4.321 0 0 0 3.5 9.16c0 .785.209 1.521.574 2.156 1.567 3.268 4.615 5.695 6.44 6.934l.322.214.004.002c.704.462 1.16.706 1.16.706v-.708.708s.456-.245 1.16-.708l.003-.002a24.352 24.352 0 0 0 2.505-1.886Z" clip-rule="evenodd"/>
  <path fill="#191E26" d="M19.825 11.483c-.547 1.097-1.258 2.096-2.028 2.986l1.063 1.063c.85-.972 1.65-2.08 2.274-3.312A5.832 5.832 0 0 0 12 5.082 5.812 5.812 0 0 0 7.83 3.33c-.367 0-.727.034-1.075.099L8.17 4.842c1.16.09 2.191.635 2.915 1.459.42.477.737 1.048.915 1.677.178-.629.495-1.2.915-1.677a4.332 4.332 0 0 1 6.91 5.183Z"/>
</svg>
