<svg xmlns="http://www.w3.org/2000/svg" width="24" height="24" fill="none" viewBox="0 0 24 24">
  <path fill="#191E26" fill-rule="evenodd" d="M20 4H4C2.895 4 2 5.023 2 6.286v11.428C2 18.977 2.895 20 4 20h16c1.105 0 2-1.023 2-2.286V6.286C22 5.023 21.105 4 20 4Zm.5 3h-17v10.714c0 .476.272.786.5.786h16c.228 0 .5-.31.5-.786V7Zm-12 1h3a3.5 3.5 0 0 1 1 6.855v-1.484a2.14 2.14 0 0 0-1.04-4.012H8.54A2.14 2.14 0 0 0 8 13.572v1.393A3.5 3.5 0 0 1 8.5 8Zm3 2.11a3.502 3.502 0 0 0 1 6.855h3A3.5 3.5 0 0 0 16 10v1.365a2.16 2.16 0 0 1-.528 4.252h-2.944A2.158 2.158 0 0 1 11.5 11.56v-1.45Z" clip-rule="evenodd"/>
</svg>
