<svg xmlns="http://www.w3.org/2000/svg" width="24" height="24" fill="none" viewBox="0 0 24 24">
  <path fill="#191E26" d="M6.391 4h5.864a1.5 1.5 0 0 1 1.341.83l.264.526a2 2 0 0 0 1.789 1.106h2.844a1.5 1.5 0 0 1 1.5 1.5v9.661a3.993 3.993 0 0 0 1.5-3.123V7.962a3 3 0 0 0-3-3H15.65a.5.5 0 0 1-.448-.277l-.263-.527A3 3 0 0 0 12.255 2.5H9.514c-1.263 0-2.39.585-3.123 1.5Z"/>
  <path fill="#191E26" fill-rule="evenodd" d="M6.514 5.5h2.74a3 3 0 0 1 2.684 1.658l.263.527a.5.5 0 0 0 .447.277h2.845a3 3 0 0 1 3 3V17.5a4 4 0 0 1-4 4H6.5a4 4 0 0 1-4-4.007l.014-8a4 4 0 0 1 4-3.993ZM9.254 7h-2.74a2.5 2.5 0 0 0-2.5 2.496L4.01 11.75h12.983v-.789a1.5 1.5 0 0 0-1.5-1.5h-2.845a2 2 0 0 1-1.788-1.105l-.264-.527A1.5 1.5 0 0 0 9.254 7ZM4 17.496l.007-4.246h12.986v4.25a2.5 2.5 0 0 1-2.5 2.5H6.5A2.5 2.5 0 0 1 4 17.496Z" clip-rule="evenodd"/>
</svg>
