<svg xmlns="http://www.w3.org/2000/svg" width="24" height="24" fill="none" viewBox="0 0 24 24">
  <path fill="#191E26" fill-rule="evenodd" d="M21 4a.75.75 0 0 1-.75.75H3.75a.75.75 0 0 1 0-1.5h16.5A.75.75 0 0 1 21 4ZM11 9v9a2 2 0 0 1-2 2H8a2 2 0 0 1-2-2V9a2 2 0 0 1 2-2h1a2 2 0 0 1 2 2Zm7 4V9a2 2 0 0 0-2-2h-1a2 2 0 0 0-2 2v4a2 2 0 0 0 2 2h1a2 2 0 0 0 2-2ZM9.5 9a.5.5 0 0 0-.5-.5H8a.5.5 0 0 0-.5.5v9a.5.5 0 0 0 .5.5h1a.5.5 0 0 0 .5-.5V9Zm6.5-.5a.5.5 0 0 1 .5.5v4a.5.5 0 0 1-.5.5h-1a.5.5 0 0 1-.5-.5V9a.5.5 0 0 1 .5-.5h1Z" clip-rule="evenodd"/>
</svg>
