<svg xmlns="http://www.w3.org/2000/svg" width="24" height="24" fill="none" viewBox="0 0 24 24">
  <path fill="#191E26" d="M23.404 4.16c-2.034-.406-2.911-1.386-3.318-3.369a.25.25 0 0 0-.24-.188.25.25 0 0 0-.242.19c-.407 2.034-1.335 2.961-3.317 3.368a.254.254 0 1 0 0 .508c2.033.407 2.906 1.366 3.313 3.349a.25.25 0 0 0 .245.21.25.25 0 0 0 .243-.197c.406-2.034 1.333-2.955 3.316-3.362a.254.254 0 1 0 0-.508Z"/>
  <path fill="#191E26" fill-rule="evenodd" d="M8.734 2.953a.75.75 0 0 1 .75.75v1.125h3.844a.75.75 0 0 1 0 1.5h-.963C11.85 7.796 10.901 9.15 9.79 10.3c.84.7 1.736 1.286 2.587 1.722l.507-1.089a.75.75 0 0 1 .7-.433.75.75 0 0 1 .702.433l4.223 9.068a.75.75 0 0 1-1.36.634l-1.14-2.448H11.16l-1.14 2.448A.75.75 0 0 1 8.66 20l3.083-6.618a15.805 15.805 0 0 1-3.055-2.05c-1.313 1.12-2.772 2-4.086 2.514a.75.75 0 0 1-.546-1.397c1.104-.432 2.368-1.182 3.53-2.15C6.476 9.15 5.528 7.797 5.01 6.328H3.766a.75.75 0 1 1 0-1.5h4.218V3.703a.75.75 0 0 1 .75-.75ZM6.622 6.328C7.08 7.37 7.808 8.376 8.688 9.281c.878-.904 1.606-1.91 2.065-2.953H6.622Zm8.688 10.36-1.726-3.707-1.726 3.707h3.452Z" clip-rule="evenodd"/>
  <path fill="#191E26" d="M15.929 6.814c.171.857.67 1.27 1.527 1.527a.187.187 0 0 1 0 .374c-.857.172-1.27.67-1.527 1.528a.187.187 0 0 1-.374 0c-.171-.857-.67-1.27-1.528-1.528a.187.187 0 1 1 0-.374c.857-.171 1.27-.67 1.528-1.527a.187.187 0 1 1 .374 0Z"/>
</svg>
