<svg xmlns="http://www.w3.org/2000/svg" width="24" height="24" fill="none" viewBox="0 0 24 24">
  <path fill="#191E26" d="M5 4.5a.5.5 0 0 0-.5.5v14a.5.5 0 0 0 .5.5h4a.5.5 0 0 0 .5-.5v-1.5H11V19a2 2 0 0 1-2 2H5a2 2 0 0 1-2-2V5a2 2 0 0 1 2-2h4a2 2 0 0 1 2 2v1.5H9.5V5a.5.5 0 0 0-.5-.5H5Zm14 0a.5.5 0 0 1 .5.5v14a.5.5 0 0 1-.5.5h-4a.5.5 0 0 1-.5-.5v-1.5H13V19a2 2 0 0 0 2 2h4a2 2 0 0 0 2-2V5a2 2 0 0 0-2-2h-4a2 2 0 0 0-2 2v1.5h1.5V5a.5.5 0 0 1 .5-.5h4Z"/>
  <path stroke="#191E26" stroke-linecap="round" stroke-linejoin="round" stroke-width="1.5" d="m8 9 2.293 2.293a1 1 0 0 1 0 1.414L8 15m8-6-2.293 2.293a1 1 0 0 0 0 1.414L16 15"/>
</svg>
