<svg xmlns="http://www.w3.org/2000/svg" width="24" height="24" fill="none" viewBox="0 0 24 24">
  <path fill="#191E26" d="M8.445 2c1.654 0 3.184.248 4.328.672.442.165.85.365 1.19.604l-.756 1.31c-.2-.165-.515-.344-.956-.507-.938-.348-2.283-.579-3.806-.579-1.522 0-2.867.23-3.804.579-.472.175-.802.365-1 .539a.791.791 0 0 0-.172.198c-.023.042-.024.063-.024.068 0 .02-.002.039-.004.058.002.02.004.039.004.058 0 .007.001.027.024.068a.79.79 0 0 0 .173.2c.197.172.527.363.999.538.937.348 2.282.578 3.804.578 1.523 0 2.868-.23 3.806-.578.296-.11.533-.229.72-.343v1.668c-.066.027-.131.056-.198.081-1.144.425-2.675.672-4.328.672-1.653 0-3.183-.247-4.327-.672a6.257 6.257 0 0 1-.673-.295V8.65c0 .006.001.027.024.067a.79.79 0 0 0 .173.2c.197.173.527.364.999.539.937.347 2.282.578 3.804.578 1.523 0 2.868-.23 3.806-.578.296-.11.533-.23.72-.343v1.668c-.066.027-.131.056-.198.08-1.144.425-2.675.673-4.328.673-1.653 0-3.183-.248-4.327-.672a6.255 6.255 0 0 1-.673-.295v1.629l.024.067a.792.792 0 0 0 .173.2c.197.173.527.364.999.539.874.324 2.104.543 3.5.572l-1.325 1.42c-1.017-.106-1.942-.306-2.698-.586a6.34 6.34 0 0 1-.346-.14l-.327-.155v1.628c0 .006.001.027.024.067a.789.789 0 0 0 .173.2c.197.173.527.363.999.538.51.19 1.143.341 1.859.443V18.5c-.893-.112-1.705-.297-2.382-.548a6.276 6.276 0 0 1-.673-.295v1.46l.022.062a.776.776 0 0 0 .167.196c.192.171.52.367 1.007.547.52.194 1.157.343 1.859.443v1.512c-.875-.11-1.692-.292-2.382-.548-.59-.22-1.105-.497-1.485-.837a2.584 2.584 0 0 1-.21-.212.75.75 0 0 1-.478-.698V5c0-.02.002-.039.003-.058a.778.778 0 0 1-.003-.058c0-.589.325-1.058.707-1.394.384-.337.897-.607 1.466-.818C5.262 2.248 6.792 2 8.445 2Z"/>
  <path fill="#191E26" fill-rule="evenodd" d="M14.754 13.542c1.727 0 3.324.251 4.516.682.592.214 1.125.486 1.524.827.395.338.736.814.736 1.418 0 .02-.002.039-.004.058l.004.06v3.747l-.014.214c-.067.486-.358.885-.701 1.184-.395.345-.93.625-1.546.847-1.233.446-2.857.682-4.515.682-1.658 0-3.283-.236-4.517-.682-.615-.222-1.15-.503-1.545-.847-.343-.3-.634-.698-.7-1.184l-.015-.214v-3.747l.002-.06a.759.759 0 0 1-.002-.058c0-.604.34-1.08.736-1.418.398-.34.932-.613 1.524-.827 1.192-.43 2.79-.682 4.517-.682Zm5.276 4.96a6.492 6.492 0 0 1-.76.33c-1.192.43-2.789.682-4.516.682-1.728 0-3.325-.253-4.517-.683a6.9 6.9 0 0 1-.392-.155l-.368-.174v1.832l.023.064a.803.803 0 0 0 .178.204c.205.179.553.38 1.068.566 1.027.37 2.47.593 4.008.593 1.538 0 2.98-.222 4.007-.593.514-.186.863-.387 1.068-.566a.8.8 0 0 0 .178-.204l.023-.064v-1.832Zm-5.276-3.46c-1.6 0-3.018.235-4.008.593-.497.18-.847.376-1.059.556a.832.832 0 0 0-.185.208c-.025.044-.025.066-.025.07 0 .02-.003.039-.004.058.001.02.004.04.004.06 0 .005 0 .026.025.068.027.048.082.12.185.208.212.18.562.377 1.06.557.989.357 2.406.594 4.007.594 1.6 0 3.017-.237 4.007-.594.497-.18.847-.376 1.058-.557a.831.831 0 0 0 .186-.208c.024-.042.025-.063.025-.068l.003-.06a.754.754 0 0 1-.003-.058c0-.005 0-.026-.025-.07a.831.831 0 0 0-.186-.208c-.211-.18-.56-.377-1.058-.556-.99-.357-2.406-.593-4.007-.593Z" clip-rule="evenodd"/>
  <path fill="#191E26" d="M17.702 9.177c-.857-.257-1.356-.67-1.528-1.528a.187.187 0 0 0-.373 0c-.258.858-.67 1.357-1.528 1.528a.187.187 0 0 0 0 .374c.857.257 1.356.67 1.528 1.528a.187.187 0 0 0 .373 0c.258-.858.67-1.357 1.528-1.528a.187.187 0 0 0 0-.374Zm5.948-4.18c-2.034-.407-2.911-1.387-3.318-3.37a.25.25 0 0 0-.24-.189.25.25 0 0 0-.242.192c-.005.003.003-.008 0 0-.407 2.033-1.335 2.96-3.317 3.367a.254.254 0 1 0 0 .508c2.033.407 2.906 1.366 3.313 3.349a.25.25 0 0 0 .245.21.25.25 0 0 0 .243-.197c-.003.005.003-.004 0 0 .406-2.034 1.333-2.955 3.316-3.362a.254.254 0 1 0 0-.508Z"/>
</svg>
