<svg xmlns="http://www.w3.org/2000/svg" width="24" height="24" fill="none" viewBox="0 0 24 24">
  <path fill="#191E26" d="M20.294 9.7c-.4-.5-1-.7-1.6-.7h-2c.2-.5.3-1 .3-1.5V6.2c.1-1.2-.9-2.2-2.1-2.2h-1.5c-1.2 0-2.2 1-2.2 2.2v1.2L8.598 9.996C8.207 9.421 7.566 9.02 6.8 9.02H5.2C4 9.02 3 10 3 11.2v6.7C3 19 4 20 5.2 20h1.6a2.18 2.18 0 0 0 1.447-.565c.39.346.894.565 1.447.565h7.9c1.1 0 2.1-.9 2.2-2 0 0 1-6.3 1-6.6.1-.6-.1-1.2-.5-1.7ZM6.8 18.5H5.2c-.377 0-.7-.33-.7-.6v-6.7c0-.369.321-.68.7-.68h1.6c.377 0 .648.337.7.666v1.163c0 .017-.006.034-.006.051v5.4l.002.018a.717.717 0 0 1-.696.682Zm12.494-7.224v.066c-.055.504-.541 3.646-.981 6.423l-.008.049-.005.05c-.029.321-.379.636-.706.636h-7.9a.717.717 0 0 1-.696-.682L9 17.8v-5.445c.016-.394.245-.884.455-1.095l2.8-2.8.439-.439V6.2c0-.373.327-.7.7-.7h1.5c.179 0 .351.075.471.205a.48.48 0 0 1 .134.371l-.005.062V7.5a2.5 2.5 0 0 1-.193.943l-.822 2.057h4.216c.119 0 .333.018.429.137.086.107.225.317.192.516l-.022.123Z"/>
</svg>
