<svg xmlns="http://www.w3.org/2000/svg" width="24" height="24" fill="none" viewBox="0 0 24 24">
  <path fill="#191E26" d="M23.297 4.887c-2.034-.373-2.911-1.272-3.318-3.089a.247.247 0 0 0-.24-.173.247.247 0 0 0-.242.175c-.005.003.004-.007 0 0-.407 1.864-1.334 2.714-3.317 3.087-.14 0-.254.104-.254.233s.114.233.254.233c2.033.373 2.907 1.252 3.313 3.07.022.108.12.192.245.192.12 0 .216-.078.243-.18-.003.004.003-.004 0 0 .406-1.864 1.333-2.71 3.316-3.082.14 0 .254-.104.254-.233s-.114-.233-.254-.233Z"/>
  <path fill="#191E26" d="M14.841 3.996a6.325 6.325 0 0 0-.591-.027h-4.5a6.25 6.25 0 0 0-.165 12.498l1.462.037v2.937l2.951-2.951.577-.03a6.25 6.25 0 0 0 5.92-6.516 1.736 1.736 0 0 0 .96-1.232c.067-.292.142-.523.224-.708a7.75 7.75 0 0 1-7.028 9.954l-3.824 3.824a.75.75 0 0 1-1.28-.53v-3.286A7.75 7.75 0 0 1 9.75 2.47h4.5a7.73 7.73 0 0 1 2.866.547c-.25.144-.61.279-1.152.385-.417.054-.83.262-1.123.595Z"/>
  <path fill="#191E26" d="M17.35 8.719c-.858-.236-1.357-.615-1.529-1.4 0-.095-.083-.172-.186-.172-.104 0-.187.077-.187.172-.257.785-.67 1.243-1.528 1.4-.103 0-.187.077-.187.171 0 .095.084.172.187.172.857.235 1.356.614 1.528 1.4 0 .095.083.171.187.171.103 0 .187-.076.187-.171.257-.786.67-1.243 1.527-1.4.104 0 .187-.077.187-.172 0-.094-.084-.171-.187-.171Z"/>
</svg>
