<svg xmlns="http://www.w3.org/2000/svg" width="24" height="24" fill="none" viewBox="0 0 24 24">
  <path fill="#191E26" d="M19.852 17.003c-.648 0-1.226-.14-1.733-.419a2.985 2.985 0 0 1-1.187-1.244c-.288-.546-.432-1.202-.432-1.968 0-.765.144-1.421.432-1.967.287-.55.683-.965 1.187-1.244.503-.284 1.077-.426 1.72-.426.757 0 1.36.14 1.809.42.448.279.77.661.965 1.148l-.952.686h-.134c-.165-.356-.38-.618-.647-.788-.262-.173-.61-.26-1.041-.26-.584 0-1.045.205-1.384.616-.338.406-.508 1.011-.508 1.815 0 .796.17 1.399.508 1.81.343.406.808.609 1.397.609.871 0 1.455-.428 1.752-1.282l.133-.007.965.546a2.762 2.762 0 0 1-.984 1.422c-.474.356-1.096.533-1.866.533Zm-7.296 0c-.49 0-.914-.095-1.27-.285a2.349 2.349 0 0 1-.856-.768l-.133.025v.895H8.9V7.057h1.396v3.745l.134.025c.254-.372.56-.647.92-.825.36-.178.779-.267 1.257-.267.571 0 1.07.134 1.498.4.428.267.76.673.997 1.219.237.542.355 1.214.355 2.018 0 .796-.125 1.467-.374 2.013-.25.541-.593.948-1.029 1.218-.436.267-.935.4-1.498.4Zm-.387-1.212c1.227 0 1.84-.806 1.84-2.419 0-1.62-.613-2.43-1.84-2.43-.575 0-1.035.2-1.377.602-.339.402-.508 1.012-.508 1.828 0 .813.17 1.42.508 1.822.342.398.802.597 1.377.597Zm-8.773 1.212c-.685 0-1.223-.182-1.612-.546-.39-.368-.584-.888-.584-1.561 0-.415.087-.764.26-1.048.174-.283.445-.514.813-.691.368-.182.846-.322 1.434-.42.462-.075.813-.16 1.054-.253.241-.093.404-.197.489-.311a.745.745 0 0 0 .127-.445c0-.27-.096-.478-.286-.622-.186-.144-.49-.216-.914-.216-.8 0-1.479.333-2.038.997h-.127l-.622-.914c.326-.385.73-.688 1.213-.908a3.884 3.884 0 0 1 1.618-.33c.876 0 1.515.189 1.917.565.407.377.61.906.61 1.587v3.377c0 .351.15.527.45.527.11 0 .216-.02.318-.057l.089.025.12.971a.986.986 0 0 1-.355.14c-.148.034-.307.05-.476.05-.402 0-.711-.082-.927-.247-.212-.165-.358-.417-.438-.755l-.133-.013a1.88 1.88 0 0 1-.775.825c-.326.182-.734.273-1.225.273Zm.394-1.072c.326 0 .611-.074.857-.223a1.49 1.49 0 0 0 .565-.647c.13-.28.196-.607.196-.984v-.8l-.12-.025a1.8 1.8 0 0 1-.495.247 5.95 5.95 0 0 1-.838.184c-.491.072-.84.201-1.048.388-.203.182-.304.44-.304.774 0 .356.103.626.31.813.208.182.5.273.877.273Z"/>
</svg>
