<svg xmlns="http://www.w3.org/2000/svg" width="24" height="24" fill="none" viewBox="0 0 24 24">
  <path fill="#191E26" d="M6.791 15.75a.75.75 0 0 0-1.279-.53l-2.146 2.144a1.249 1.249 0 0 0-.342 1.13c.048.242.167.465.342.64l2.146 2.145a.75.75 0 1 0 1.06-1.06l-1.21-1.21H18.25a.75.75 0 0 0 0-1.5H5.342l1.23-1.23a.75.75 0 0 0 .22-.53ZM18.25 14a.75.75 0 0 0 .75-.75v-7.5a.75.75 0 1 0-1.5 0v7.5a.75.75 0 0 0 .75.75Zm-6.279 0a.75.75 0 0 0 .75-.75v-7.5a.75.75 0 0 0-1.5 0v7.5a.75.75 0 0 0 .75.75ZM6.5 13.25a.75.75 0 1 1-1.5 0v-7.5a.75.75 0 0 1 1.5 0v7.5Z"/>
</svg>
