<svg xmlns="http://www.w3.org/2000/svg" width="24" height="24" fill="none" viewBox="0 0 24 24">
  <path fill="#191E26" d="M10.328 15.978c-.242.952-.485 1.727-.728 2.324-.242.607-.504 1.083-.784 1.428s-.578.583-.896.714c-.326.13-.69.196-1.092.196-.392 0-.714-.103-.966-.308-.252-.205-.378-.457-.378-.756 0-.233.06-.42.182-.56.122-.13.29-.196.504-.196.196 0 .332.051.406.154.075.103.14.215.196.336.047.121.103.233.168.336.066.103.192.154.378.154.215 0 .41-.112.588-.336.178-.224.313-.518.406-.882l2.03-7.882H8.998l.182-.644h1.33c.206-.84.43-1.554.672-2.142.243-.588.504-1.069.784-1.442.28-.383.579-.658.896-.826a2.062 2.062 0 0 1 1.022-.266c.55 0 1.004.117 1.358.35.355.224.532.509.532.854 0 .215-.06.397-.182.546-.112.15-.275.224-.49.224a.777.777 0 0 1-.42-.098.728.728 0 0 1-.224-.252 1.872 1.872 0 0 1-.112-.322 1.818 1.818 0 0 0-.084-.322.601.601 0 0 0-.168-.252c-.074-.065-.186-.098-.336-.098-.186 0-.373.103-.56.308-.177.196-.35.476-.518.84a9.38 9.38 0 0 0-.476 1.274 18.77 18.77 0 0 0-.406 1.624h1.232c.55 0 .98-.023 1.288-.07.318-.047.584-.07.798-.07.14 0 .248.023.322.07.075.047.112.15.112.308 0 .121-.023.285-.07.49-.046.205-.121.471-.224.798l-.938 3.066a2.693 2.693 0 0 0-.07.21 4.43 4.43 0 0 1-.07.294l-.056.308a1.465 1.465 0 0 0-.028.252c0 .093.024.177.07.252.047.065.126.098.238.098.14 0 .28-.056.42-.168.15-.121.29-.261.42-.42a5.16 5.16 0 0 0 .35-.476c.103-.168.178-.299.224-.392l.434.238a5.301 5.301 0 0 1-.392.742c-.168.27-.364.523-.588.756a3.514 3.514 0 0 1-.756.574c-.27.15-.555.224-.854.224-.29 0-.508-.08-.658-.238-.14-.168-.21-.439-.21-.812 0-.243.033-.513.098-.812.066-.299.164-.667.294-1.106l.532-1.792a7.51 7.51 0 0 0 .168-.63c.038-.177.056-.331.056-.462 0-.261-.098-.425-.294-.49-.186-.065-.494-.098-.924-.098h-1.078l-1.316 5.278Z"/>
</svg>
