<svg xmlns="http://www.w3.org/2000/svg" width="24" height="24" fill="none" viewBox="0 0 24 24">
  <path fill="#191E26" d="M5 16v-4.25a.75.75 0 0 1 1.5 0V16a3.5 3.5 0 0 0 3.5 3.5h3.25a.75.75 0 0 1 0 1.5H10a5 5 0 0 1-5-5Zm13.25-3a.75.75 0 0 0 .75-.75V8a5 5 0 0 0-5-5h-3.25a.75.75 0 0 0 0 1.5H14A3.5 3.5 0 0 1 17.5 8v4.25c0 .414.336.75.75.75Z"/>
  <path fill="#191E26" fill-rule="evenodd" d="M8.78 13.573a.75.75 0 0 1-1.06 0l-1.97-1.97-1.97 1.97a.75.75 0 0 1-1.06-1.06l2.145-2.146a1.253 1.253 0 0 1 1.77 0l2.145 2.146a.75.75 0 0 1 0 1.06Zm6.44-3.353a.75.75 0 0 1 1.06 0l1.97 1.97 1.97-1.97a.75.75 0 1 1 1.06 1.06l-2.145 2.146a1.254 1.254 0 0 1-1.364.271 1.248 1.248 0 0 1-.406-.271L15.22 11.28a.75.75 0 0 1 0-1.06Z" clip-rule="evenodd"/>
</svg>
