<svg xmlns="http://www.w3.org/2000/svg" width="24" height="24" fill="none" viewBox="0 0 24 24">
  <path fill="#000" d="M18.25 18.25H5.75a.75.75 0 0 0 0 1.5h12.5a.75.75 0 0 0 0-1.5Z"/>
  <path fill="#000" fill-rule="evenodd" d="M10.25 10.993a4.5 4.5 0 1 1 .606-8.98A.754.754 0 0 1 11 2h5a.75.75 0 1 1 0 1.5h-1.25v11.75a.75.75 0 1 1-1.5 0V3.5h-1.5v11.75a.75.75 0 1 1-1.5 0v-4.257Zm0-1.503V3.51a3 3 0 0 0 0 5.98Zm-2.22 6.48a.75.75 0 0 1 0 1.06L6.06 19l1.97 1.97a.75.75 0 1 1-1.06 1.06l-2.146-2.145a1.255 1.255 0 0 1-.272-1.364 1.25 1.25 0 0 1 .272-.406L6.97 15.97a.75.75 0 0 1 1.06 0Zm-2.146 2.853Z" clip-rule="evenodd"/>
</svg>
