<svg xmlns="http://www.w3.org/2000/svg" width="24" height="24" fill="none" viewBox="0 0 24 24">
  <path fill="#000" fill-rule="evenodd" d="M3 6.191V19a2 2 0 0 0 2 2h12.81l-1.5-1.5H5a.5.5 0 0 1-.5-.5v-5.25h6.059l-1.5-1.5H6.666l1.184-1.209-.893-.892-1.854 2.101H4.5V7.691L3 6.191Zm4.953 2.83.947.947.548-.56a.46.46 0 0 1 .105-.09.544.544 0 0 1 .683.088l.217.218.909.97.027-.03 1.004 1.009-.017.02.692.657h-1.885l1.5 1.5H19.5V19a.5.5 0 0 1-.5.5h-.567l1.343 1.344A2 2 0 0 0 21 19V5a2 2 0 0 0-2-2H5a2 2 0 0 0-1.844 1.224L4.5 5.568V5a.5.5 0 0 1 .5-.5h14a.5.5 0 0 1 .5.5v2.89l-1.274-1.417c-.645-.74-1.87-.893-2.734-.341a1.836 1.836 0 0 0-.407.35l-3.696 4.082-.936-.94c-.64-.743-1.005-.954-1.77-1.316a1.84 1.84 0 0 0-.42.362l-.31.35Zm5.115 3.229-.675-.677 3.874-4.348a.46.46 0 0 1 .101-.087.544.544 0 0 1 .684.085l2.448 2.81v2.217h-6.432Zm-.51 3.5H7a.75.75 0 0 0 0 1.5h6a.75.75 0 0 0 .662-.397l-1.103-1.103Z" clip-rule="evenodd"/>
  <path fill="#000" fill-rule="evenodd" d="M2.226 2.226a.75.75 0 0 1 1.06 0l18.488 18.487a.75.75 0 0 1-1.06 1.061L2.226 3.286a.75.75 0 0 1 0-1.06Z" clip-rule="evenodd"/>
</svg>
