<svg xmlns="http://www.w3.org/2000/svg" width="24" height="24" fill="none" viewBox="0 0 24 24">
  <path fill="#191E26" fill-rule="evenodd" d="M13 3H5a2 2 0 0 0-2 2v14a2 2 0 0 0 2 2h14a2 2 0 0 0 2-2v-8h-1.5v3H10v-4h3V8.5h-3v-4h3V3ZM8.5 4.5H5a.5.5 0 0 0-.5.5v3.5h4v-4Zm-4 5.5v4h4v-4h-4Zm0 5.5V19a.5.5 0 0 0 .5.5h3.5v-4h-4Zm5.5 4h9a.5.5 0 0 0 .5-.5v-3.5H10v4Z" clip-rule="evenodd"/>
  <path fill="#191E26" d="M20.5 4.564 16.636 8.43a.75.75 0 0 1-1.06-1.06l3.867-3.868h-2.687a.75.75 0 0 1 0-1.5h3.749c.966 0 1.497.529 1.497 1.495v3.755a.75.75 0 0 1-1.5 0V4.564Z"/>
</svg>
