<svg xmlns="http://www.w3.org/2000/svg" width="24" height="24" fill="none" viewBox="0 0 24 24">
  <path fill="#191E26" d="M9.7 3.88c.33-.5.92-.95 1.82-.95.97 0 1.55.63 1.84 1.11a3.4 3.4 0 0 1 .38.95l.02.05c.263.866.573 1.718.93 2.55.06.14.3.44.7.87a62.856 62.856 0 0 0 2.9 2.72h1.73v8.5h-1.98l-3.5.25H8.5a2.975 2.975 0 0 1-.13.01c-.11.01-.26.02-.43.01a1.8 1.8 0 0 1-1.2-.5c-.3-.29-.49-.6-.6-.9-.29-.1-.6-.3-.9-.6-.44-.42-.47-1-.43-1.37.01-.13.03-.25.06-.37-.1-.09-.21-.2-.3-.32a2.3 2.3 0 0 1-.55-1.46c0-.63.33-1.14.6-1.46a2.3 2.3 0 0 1-.61-1.54c0-.3.07-.6.23-.85.16-.27.39-.43.61-.52.35-.14.74-.13.88-.13h4.24c-.56-1.88-.7-3.87-.7-4.75 0-.31.11-.83.42-1.3h.01Zm7.83 8.62-.01-.01-.03-.03-.12-.1a65.57 65.57 0 0 1-3.06-2.87 6.058 6.058 0 0 1-.97-1.23 15.243 15.243 0 0 1-.96-2.57l-.06-.22-.02-.06v-.02l.72-.21-.73.2v-.05l-.02-.03a1.802 1.802 0 0 0-.2-.48c-.15-.27-.33-.4-.55-.4-.31 0-.47.14-.58.3-.07.1-.11.2-.14.3-.03.09-.03.15-.03.16 0 .95.2 3.34.94 5.22l.41 1.03h-6.6c0 .18.07.35.2.51.14.17.3.28.38.32l1.13.56-1.03.72a1.644 1.644 0 0 0-.11.09c-.08.06-.17.15-.27.25a.86.86 0 0 0-.25.57c0 .18.02.33.15.5.14.16.3.27.38.3l.67.34-.39.62c-.05.1-.08.37-.08.37s0 .2.08.32a.7.7 0 0 0 .23.2c.08.04.27.08.27.08h.64v.74s0 .09.03.17c.04.1.05.13.18.25 0 0 .13.1.29.12l.22-.01h.08l.04-.01.16-.01h5.97l3.5-.25h.53v-5.5h-.78l-.21-.18Z"/>
</svg>
