<svg xmlns="http://www.w3.org/2000/svg" width="24" height="24" fill="none" viewBox="0 0 24 24">
  <path fill="#191E26" fill-rule="evenodd" d="M19.5 11.02v3.261H21V8.77a3 3 0 0 0-3-3h-3.614a.5.5 0 0 1-.447-.276l-.418-.835A3 3 0 0 0 10.838 3H7.024a4 4 0 0 0-4 3.993l-.017 10a4 4 0 0 0 4 4.007h7.243v-1.5H7.007a2.5 2.5 0 0 1-2.5-2.504l.01-5.976H19.5ZM10.838 4.5H7.024a2.5 2.5 0 0 0-2.5 2.496L4.52 9.52H19.5v-.75a1.5 1.5 0 0 0-1.5-1.5h-3.614a2 2 0 0 1-1.789-1.106l-.417-.835a1.5 1.5 0 0 0-1.342-.829Z" clip-rule="evenodd"/>
  <path fill="#191E26" d="M18.75 15.781a.75.75 0 0 1 .75.75v1.5H21a.75.75 0 0 1 0 1.5h-1.5v1.5a.75.75 0 1 1-1.5 0v-1.5h-1.5a.75.75 0 1 1 0-1.5H18v-1.5a.75.75 0 0 1 .75-.75Z"/>
</svg>
