<svg xmlns="http://www.w3.org/2000/svg" width="24" height="24" fill="none" viewBox="0 0 24 24">
  <path fill="#191E26" d="M6.998 3.75a.75.75 0 0 1 .75-.75h8.504a.75.75 0 0 1 0 1.5H7.748a.75.75 0 0 1-.75-.75Z"/>
  <path fill="#191E26" fill-rule="evenodd" d="M10.5 9A1.5 1.5 0 0 0 9 10.5v3a1.5 1.5 0 0 0 1.5 1.5h3a1.5 1.5 0 0 0 1.5-1.5v-3A1.5 1.5 0 0 0 13.5 9h-3Zm3 1.5h-3v3h3v-3Z" clip-rule="evenodd"/>
  <path fill="#191E26" d="M7.748 19.5a.75.75 0 0 0 0 1.5h8.504a.75.75 0 0 0 0-1.5H7.748ZM20.25 7a.75.75 0 0 1 .75.75v8.5a.75.75 0 0 1-1.5 0v-8.5a.75.75 0 0 1 .75-.75ZM4.5 7.75a.75.75 0 0 0-1.5 0v8.5a.75.75 0 0 0 1.5 0v-8.5Z"/>
</svg>
