<svg xmlns="http://www.w3.org/2000/svg" width="24" height="24" fill="none" viewBox="0 0 24 24">
  <path fill="#191E26" fill-rule="evenodd" d="M16 14.866V9.62c.514-.495 1.162-.743 1.943-.743 1.08 0 1.868.354 2.367 1.062.275.397.423.796.444 1.196h-1.34c-.087-.307-.199-.54-.335-.696-.244-.278-.605-.418-1.084-.418-.487 0-.871.197-1.152.592-.282.391-.422.947-.422 1.666 0 .72.148 1.259.443 1.618.3.357.678.535 1.136.535.47 0 .828-.153 1.074-.46.137-.166.25-.414.34-.745h1.326c-.116.7-.413 1.268-.891 1.706-.476.438-1.087.656-1.832.656-.833 0-1.506-.241-2.017-.724Z" clip-rule="evenodd" opacity=".45"/>
  <path fill="#191E26" fill-rule="evenodd" d="M15.75 2a.75.75 0 0 1 .75.75v4.5a.75.75 0 0 1-1.5 0v-4.5a.75.75 0 0 1 .75-.75ZM16 9.621a2.765 2.765 0 0 0-.05.049c-.6.606-.9 1.469-.9 2.588 0 1.036.264 1.85.792 2.445.05.057.104.111.158.163V9.62ZM4.206 12.99h1.626l-.8-2.523-.826 2.523ZM4.288 9h1.514l2.27 6.412H6.62l-.413-1.318H3.844l-.443 1.318H2L4.288 9Zm5.903 1.114v1.413h1.575c.281 0 .509-.052.683-.156.177-.107.265-.296.265-.566 0-.298-.116-.496-.348-.591a2.45 2.45 0 0 0-.765-.1h-1.41Zm0 2.475v1.71h1.575c.281 0 .5-.038.657-.114.284-.139.426-.406.426-.8 0-.334-.138-.563-.413-.687-.154-.07-.37-.106-.648-.11H10.19ZM12.027 9c.786.012 1.343.24 1.67.683.198.273.296.599.296.979 0 .391-.098.706-.296.944-.11.133-.272.255-.487.365.328.12.574.308.74.566.168.258.252.571.252.94 0 .38-.096.72-.287 1.022a1.772 1.772 0 0 1-1.188.826 4.46 4.46 0 0 1-.909.087H8.912V9h3.115Zm4.473 8.75a.75.75 0 0 0-1.5 0v4.5a.75.75 0 0 0 1.5 0v-4.5Z" clip-rule="evenodd"/>
</svg>
