<svg xmlns="http://www.w3.org/2000/svg" width="24" height="24" fill="none" viewBox="0 0 24 24">
  <path fill="#191E26" fill-rule="evenodd" d="M6.539 5.613 1.603 19h1.753L4.7 15.168h5.338L11.38 19h1.754L8.19 5.613H6.539Zm.9 2.143h-.14l-2.101 5.993H9.54L7.438 7.756ZM15.5 11.25a2.5 2.5 0 0 0 2.313-1.55h3.437a.75.75 0 0 0 0-1.5h-3.31a2.5 2.5 0 0 0-4.88 0h-1.31a.75.75 0 0 0 0 1.5h1.437a2.5 2.5 0 0 0 2.313 1.55Zm-2 4a.75.75 0 0 1 .75-.75h2.864a2.501 2.501 0 1 1 0 1.5H14.25a.75.75 0 0 1-.75-.75Zm7.25 0a1.25 1.25 0 1 1-2.5 0 1.25 1.25 0 0 1 2.5 0ZM15.5 10a1.25 1.25 0 1 0 0-2.5 1.25 1.25 0 0 0 0 2.5Z" clip-rule="evenodd"/>
</svg>
