<svg xmlns="http://www.w3.org/2000/svg" width="24" height="24" fill="none" viewBox="0 0 24 24">
  <path fill="#191E26" d="M12.838 5.38c.55 0 1.003.116 1.357.35.355.223.532.509.532.854 0 .215-.06.397-.181.546-.112.15-.276.223-.49.224a.778.778 0 0 1-.42-.098.73.73 0 0 1-.225-.252 1.882 1.882 0 0 1-.111-.322 1.81 1.81 0 0 0-.084-.322.603.603 0 0 0-.168-.253c-.075-.065-.187-.097-.336-.097-.187 0-.374.103-.56.308-.178.196-.35.476-.518.84a9.228 9.228 0 0 0-.477 1.274 18.75 18.75 0 0 0-.405 1.624h1.413l-.195.644h-1.372L9.28 15.977c-.242.952-.485 1.727-.727 2.325-.243.606-.505 1.082-.784 1.428-.28.345-.58.584-.897.714-.326.13-.69.196-1.092.196-.392 0-.714-.103-.966-.308-.251-.205-.377-.457-.378-.756 0-.233.06-.42.182-.56.121-.13.29-.196.504-.196.196 0 .332.051.406.154.075.102.14.214.197.336.046.12.102.233.168.335.065.103.19.155.377.155.215 0 .411-.112.588-.336.178-.224.313-.518.407-.882l2.03-7.882H7.95l.183-.644h1.33c.205-.84.43-1.554.672-2.142.242-.588.504-1.069.784-1.442.28-.383.578-.659.895-.826a2.063 2.063 0 0 1 1.023-.266Zm3.278 4.06c.233 0 .406.07.518.21.121.13.182.373.182.728 0 .27-.084.634-.252 1.092-.158.457-.37 1.045-.63 1.763l-.518 1.415a8.664 8.664 0 0 0-.084.224 9.22 9.22 0 0 1-.098.308l-.084.308a1.478 1.478 0 0 0-.028.252.38.38 0 0 0 .07.224c.047.065.121.097.224.097.14 0 .284-.055.434-.167.149-.122.294-.262.434-.42.14-.159.266-.317.378-.476.112-.168.196-.3.252-.393l.42.239a5.442 5.442 0 0 1-.462.742 4.93 4.93 0 0 1-.643.756c-.243.224-.51.415-.8.574a1.93 1.93 0 0 1-.895.224c-.27 0-.476-.07-.616-.21-.13-.14-.196-.374-.196-.7 0-.27.042-.56.126-.868.093-.317.224-.714.392-1.19l.63-1.792c.13-.364.224-.658.28-.882a2.33 2.33 0 0 0 .084-.532c0-.13-.023-.215-.07-.252-.037-.047-.08-.07-.126-.07-.103 0-.215.051-.336.154a2.977 2.977 0 0 0-.364.336 3.83 3.83 0 0 0-.322.392 2.45 2.45 0 0 0-.196.308l-.406-.252c.112-.205.266-.434.462-.687a5.4 5.4 0 0 1 .687-.699c.251-.214.512-.392.783-.532.27-.15.527-.225.77-.225Zm.812-4.06a.85.85 0 0 1 .644.266.887.887 0 0 1 .252.63.82.82 0 0 1-.266.616.885.885 0 0 1-.63.252.895.895 0 0 1-.616-.238.81.81 0 0 1-.252-.616c0-.252.085-.467.253-.644a.816.816 0 0 1 .615-.266Z"/>
</svg>
