<svg xmlns="http://www.w3.org/2000/svg" width="24" height="24" fill="none" viewBox="0 0 24 24">
  <path fill="#191E26" fill-opacity=".25" d="M18.28 7.97a.75.75 0 1 0-1.06 1.06l2.22 2.22H15.5v1.5h3.94l-2.22 2.22a.75.75 0 1 0 1.06 1.06l2.793-2.793a1.75 1.75 0 0 0 0-2.474L18.28 7.97Z"/>
  <path fill="#191E26" d="M3 3.75a.75.75 0 0 1 1.5 0v16.5a.75.75 0 0 1-1.5 0V3.75ZM6 12a.75.75 0 0 1 .75-.75H11v1.5H6.75A.75.75 0 0 1 6 12Zm7.25-9a.75.75 0 0 0-.75.75v16.5a.75.75 0 0 0 1.5 0V3.75a.75.75 0 0 0-.75-.75Z"/>
</svg>
