<svg xmlns="http://www.w3.org/2000/svg" width="24" height="24" fill="none" viewBox="0 0 24 24">
  <path fill="#191E26" fill-rule="evenodd" d="M12 6.254v1.5c-.083-.001-.166-.004-.249-.004-2.13 0-4.025.3-5.362.764-.672.233-1.163.494-1.47.746-.312.256-.349.426-.349.49a.753.753 0 0 1-.008.1.762.762 0 0 1 .008.101c0 .064.037.234.349.49.307.252.798.513 1.47.746 1.337.464 3.233.764 5.362.764s4.024-.3 5.361-.764c.175-.06.337-.123.488-.187h2.83v6.503l-.003.125c-.045.616-.413 1.12-.868 1.502-.49.41-1.163.752-1.954 1.026-1.588.55-3.694.847-5.854.847s-4.266-.296-5.854-.847c-.791-.274-1.465-.616-1.955-1.026-.455-.381-.822-.886-.867-1.502l-.005-.125V9.75c0-.695.408-1.249.898-1.65.495-.406 1.166-.739 1.93-1.003C7.43 6.565 9.5 6.25 11.75 6.25c.083 0 .166.003.249.004Zm6.93 9.625a7.75 7.75 0 0 1-1.325.593c-1.534.531-3.604.846-5.854.846s-4.32-.315-5.854-.846a8.288 8.288 0 0 1-1.023-.43l-.304-.163v1.624l.01.062c.023.083.097.224.325.415.3.251.788.518 1.484.76 1.386.48 3.316.763 5.362.763 2.046 0 3.975-.283 5.361-.764.695-.24 1.184-.508 1.484-.759.228-.19.303-.332.326-.415l.009-.062v-1.624Zm0-3.867a7.72 7.72 0 0 1-1.325.592c-1.534.532-3.604.847-5.854.847s-4.32-.315-5.854-.847a8.304 8.304 0 0 1-1.023-.428l-.304-.164v1.806l.011.068c.025.086.103.23.338.423.307.252.798.513 1.47.746 1.337.463 3.233.763 5.362.763s4.024-.3 5.361-.763c.672-.233 1.163-.495 1.47-.746.235-.193.313-.337.338-.423l.01-.068v-1.806Z" clip-rule="evenodd"/>
  <path fill="#191E26" d="M17.194 8.339c-.857-.257-1.356-.67-1.527-1.528a.187.187 0 0 0-.374 0c-.257.857-.67 1.356-1.528 1.528a.187.187 0 1 0 0 .374c.857.257 1.356.67 1.528 1.527a.187.187 0 1 0 .373 0c.258-.857.67-1.356 1.528-1.527a.187.187 0 0 0 0-.374Zm5.948-4.181c-2.034-.406-2.911-1.387-3.318-3.37a.25.25 0 0 0-.24-.188.25.25 0 0 0-.242.191c-.004.004.004-.007 0 0-.407 2.034-1.334 2.96-3.317 3.367a.254.254 0 0 0 0 .509c2.033.406 2.907 1.366 3.313 3.349a.25.25 0 0 0 .245.21.25.25 0 0 0 .243-.198c-.003.005.003-.003 0 0 .407-2.033 1.333-2.955 3.316-3.361a.254.254 0 1 0 0-.509Z"/>
</svg>
