<svg xmlns="http://www.w3.org/2000/svg" width="24" height="24" fill="none" viewBox="0 0 24 24">
  <path fill="#191E26" fill-rule="evenodd" d="M6.73 3.5H3.75a.75.75 0 0 1 0-1.5h4c.966 0 1.75.784 1.75 1.75v4a.75.75 0 0 1-1.5 0V4.498A8.499 8.499 0 0 0 3.5 12 .75.75 0 0 1 2 12a9.993 9.993 0 0 1 4.73-8.5Zm14.29 4.35a3 3 0 1 0-4.243-4.243L6.562 13.823a6 6 0 0 0-1.38 2.147l-1.49 4.002a.75.75 0 0 0 .964.964l4.001-1.49a6 6 0 0 0 2.148-1.38L21.02 7.849ZM9.614 17.13a4.5 4.5 0 0 1-1.48.91l-1.307.487L6.1 17.8l.487-1.307a4.501 4.501 0 0 1 .91-1.48l2.116 2.116Zm1.063-1.058L18.07 8.68l-2.12-2.123-7.393 7.394 2.12 2.121ZM19.96 6.79l-.83.829-2.12-2.121.829-.83A1.5 1.5 0 1 1 19.96 6.79ZM22 12c0 5.523-4.477 10-10 10a.75.75 0 0 1 0-1.5 8.5 8.5 0 0 0 8.5-8.5.75.75 0 0 1 1.5 0Z" clip-rule="evenodd"/>
</svg>
