<svg xmlns="http://www.w3.org/2000/svg" width="24" height="24" fill="none" viewBox="0 0 24 24">
  <path fill="#191E26" fill-rule="evenodd" d="M4.5 17v-5.25h15V17a.5.5 0 0 1-.5.5h-1V19h1a2 2 0 0 0 2-2V5a2 2 0 0 0-2-2H5a2 2 0 0 0-2 2v12a2 2 0 0 0 2 2h1v-1.5H5a.5.5 0 0 1-.5-.5Zm15-6.75h-15V5a.5.5 0 0 1 .5-.5h14a.5.5 0 0 1 .5.5v5.25Z" clip-rule="evenodd"/>
  <path fill="#191E26" d="M16.564 17.559c-2.034-.407-2.91-1.388-3.317-3.37a.25.25 0 0 0-.241-.189.25.25 0 0 0-.242.191c-.407 2.033-1.334 2.96-3.317 3.367a.254.254 0 0 0 0 .508c2.033.407 2.907 1.367 3.313 3.35a.25.25 0 0 0 .245.209.25.25 0 0 0 .243-.197c.407-2.033 1.333-2.955 3.316-3.361a.254.254 0 1 0 0-.508ZM9.088 20.21c.172.858.67 1.271 1.528 1.529a.187.187 0 0 1 0 .373c-.857.172-1.27.67-1.528 1.528a.187.187 0 0 1-.373 0c-.172-.857-.67-1.27-1.528-1.528a.187.187 0 0 1 0-.374c.857-.171 1.27-.67 1.528-1.527a.187.187 0 0 1 .373 0Z"/>
</svg>
