<svg xmlns="http://www.w3.org/2000/svg" width="24" height="24" fill="none" viewBox="0 0 24 24">
  <path fill="#191E26" fill-rule="evenodd" d="M12 2a.75.75 0 0 0-.75.75v.5a.75.75 0 0 0 1.5 0v-.5A.75.75 0 0 0 12 2Zm0 3a.75.75 0 0 0-.75.75v.5a.75.75 0 0 0 1.5 0v-.5A.75.75 0 0 0 12 5Zm0 3a.75.75 0 0 0-.75.75v.5a.75.75 0 0 0 1.5 0v-.5A.75.75 0 0 0 12 8Zm0 3a.75.75 0 0 0-.75.75v.5a.75.75 0 0 0 1.5 0v-.5A.75.75 0 0 0 12 11Zm0 3a.75.75 0 0 0-.75.75v.5a.75.75 0 0 0 1.5 0v-.5A.75.75 0 0 0 12 14Zm0 3a.75.75 0 0 0-.75.75v.5a.75.75 0 0 0 1.5 0v-.5A.75.75 0 0 0 12 17Zm0 3a.75.75 0 0 0-.75.75v.5a.75.75 0 0 0 1.5 0v-.5A.75.75 0 0 0 12 20ZM8.25 4a.75.75 0 0 1 0 1.5H6a.5.5 0 0 0-.5.5v12a.5.5 0 0 0 .5.5h2.25a.75.75 0 0 1 0 1.5H6a2 2 0 0 1-2-2V6a2 2 0 0 1 2-2h2.25ZM15 19.25a.75.75 0 0 1 .75-.75H18a.5.5 0 0 0 .5-.5V6a.5.5 0 0 0-.5-.5h-2.25a.75.75 0 0 1 0-1.5H18a2 2 0 0 1 2 2v12a2 2 0 0 1-2 2h-2.25a.75.75 0 0 1-.75-.75Z" clip-rule="evenodd"/>
</svg>
