<svg xmlns="http://www.w3.org/2000/svg" width="24" height="24" fill="none" viewBox="0 0 24 24">
  <path fill="#191E26" d="M19.487.686C19.887 2.636 20.75 3.6 22.75 4a.25.25 0 1 1 0 .5c-1.95.4-2.861 1.307-3.261 3.307A.247.247 0 0 1 19.25 8a.246.246 0 0 1-.241-.206c-.4-1.95-1.259-2.894-3.259-3.294a.25.25 0 1 1 0-.5c1.95-.4 2.863-1.312 3.262-3.312A.246.246 0 0 1 19.25.5c.115 0 .208.08.237.186Z"/>
  <path fill="#191E26" d="M9 3h5v1.5H9a.5.5 0 0 0-.5.5v13a.5.5 0 0 0 .5.5h10a.5.5 0 0 0 .5-.5V9.5H21V18a2 2 0 0 1-2 2H9a2 2 0 0 1-2-2V5a2 2 0 0 1 2-2Z"/>
  <path fill="#191E26" d="m3.3 6.883 2.2-.29v1.514l-2.004.264a.5.5 0 0 0-.431.56l1.697 12.89a.5.5 0 0 0 .56.43l5.703-.751h5.85a1.996 1.996 0 0 1-1.442.933L5.52 23.738a2 2 0 0 1-2.244-1.722L1.578 9.127A2 2 0 0 1 3.3 6.883Z"/>
  <path fill="#191E26" d="M10.4 16.542h7.196a.4.4 0 0 0 .33-.626l-1.94-2.942a.4.4 0 0 0-.634-.033l-1.786 2.1-1.18-1.166a.4.4 0 0 0-.607.053l-1.705 1.982a.4.4 0 0 0 .327.632ZM11.25 7a.75.75 0 0 0 0 1.5h5.5a.75.75 0 0 0 0-1.5h-5.5Zm-.75 3.75a.75.75 0 0 1 .75-.75h5.5a.75.75 0 0 1 0 1.5h-5.5a.75.75 0 0 1-.75-.75Z"/>
</svg>
