<svg xmlns="http://www.w3.org/2000/svg" width="24" height="24" fill="none" viewBox="0 0 24 24">
  <path fill="#191E26" d="M16.209 15.75a.75.75 0 0 1 1.28-.53l2.145 2.144a1.251 1.251 0 0 1 0 1.77l-2.146 2.145a.75.75 0 1 1-1.06-1.06l1.21-1.21H4.75a.75.75 0 0 1 0-1.5h12.909l-1.23-1.23a.75.75 0 0 1-.22-.53ZM4.75 14a.75.75 0 0 1-.75-.75v-7.5a.75.75 0 0 1 1.5 0v7.5a.75.75 0 0 1-.75.75Zm6.279 0a.75.75 0 0 1-.75-.75v-7.5a.75.75 0 1 1 1.5 0v7.5a.75.75 0 0 1-.75.75Zm5.471-.75a.75.75 0 1 0 1.5 0v-7.5a.75.75 0 1 0-1.5 0v7.5Z"/>
</svg>
