<svg xmlns="http://www.w3.org/2000/svg" width="24" height="24" fill="none" viewBox="0 0 24 24">
  <path fill="#191E26" fill-rule="evenodd" d="M3 5a2 2 0 0 1 2-2h14a2 2 0 0 1 2 2v12.25a.75.75 0 0 1-1.5 0v-1.5H10v1.5a.75.75 0 0 1-1.5 0v-1.5h-4v1.5a.75.75 0 0 1-1.5 0V5Zm2-.5h14a.5.5 0 0 1 .5.5v3.25h-15V5a.5.5 0 0 1 .5-.5Zm-.5 9.75v-4.5h4v4.5h-4Zm15 0v-4.5h-4v4.5h4Zm-5.5 0h-4v-4.5h4v4.5Z" clip-rule="evenodd"/>
  <path fill="#191E26" fill-rule="evenodd" d="M15.427 16.97a.75.75 0 0 0 0 1.06l1.97 1.97-1.97 1.97a.75.75 0 1 0 1.06 1.06l2.146-2.145a1.253 1.253 0 0 0 0-1.77l-2.146-2.145a.75.75 0 0 0-1.06 0Z" clip-rule="evenodd"/>
  <path fill="#191E26" fill-rule="evenodd" d="M15.427 16.97a.75.75 0 0 0 0 1.06l1.97 1.97-1.97 1.97a.75.75 0 1 0 1.06 1.06l2.146-2.145a1.253 1.253 0 0 0 0-1.77l-2.146-2.145a.75.75 0 0 0-1.06 0Z" clip-rule="evenodd"/>
  <path fill="#191E26" d="M5.207 19.25h12.5a.75.75 0 0 1 0 1.5h-12.5a.75.75 0 0 1 0-1.5Z"/>
</svg>
