<svg xmlns="http://www.w3.org/2000/svg" width="24" height="24" fill="none" viewBox="0 0 24 24">
  <path fill="#191E26" d="M11.16 10.326V4.75h2.236v14.277H11.16V12.24H4.246v6.787H2V4.75h2.246v5.576h6.914Zm8.053 8.918c-1.963 0-3.492-1.389-3.492-4.365v-.012c0-2.83 1.336-4.512 3.498-4.512 1.634 0 2.853.967 3.111 2.291l.012.06h-1.729l-.023-.054c-.2-.527-.68-.884-1.365-.884-1.225 0-1.758 1.2-1.823 2.736-.006.064-.006.129-.006.193h.118c.304-.656 1.013-1.236 2.18-1.236 1.646 0 2.76 1.172 2.76 2.771v.012c0 1.729-1.337 3-3.241 3Zm-1.553-2.976c0 .89.68 1.576 1.541 1.576.856 0 1.541-.674 1.541-1.541v-.012c0-.885-.644-1.53-1.53-1.53-.872 0-1.552.628-1.552 1.5v.007Z"/>
</svg>
