<svg xmlns="http://www.w3.org/2000/svg" width="24" height="24" fill="none" viewBox="0 0 24 24">
  <path fill="#191E26" fill-rule="evenodd" d="M21.02 3.607a3 3 0 0 1 0 4.242L10.805 18.066a6 6 0 0 1-2.147 1.38l-4.002 1.49a.75.75 0 0 1-.964-.964l1.49-4.002a6 6 0 0 1 1.38-2.147L16.779 3.607a3 3 0 0 1 4.243 0ZM8.134 18.04a4.5 4.5 0 0 0 1.48-.91l-2.116-2.116c-.396.43-.705.932-.91 1.48l-.486 1.307.725.726 1.307-.487Zm9.937-9.361-7.394 7.393-2.121-2.121 7.393-7.394L18.07 8.68Zm1.06-1.061.83-.83a1.5 1.5 0 1 0-2.121-2.12l-.83.829 2.122 2.121ZM6.825 3.021a.18.18 0 0 0 .01-.043.268.268 0 0 0-.267-.29H4.5a.536.536 0 0 0-.527.441l-.859 3.24a.536.536 0 0 0 .527.63h.95c.343 0 .598.32.522.655l-.69 3.032c-.068.294.326.457.487.203l3.103-4.901a.536.536 0 0 0-.453-.823h-.73a.536.536 0 0 1-.533-.577.359.359 0 0 1 .02-.088l.507-1.479Z" clip-rule="evenodd"/>
</svg>
