<svg xmlns="http://www.w3.org/2000/svg" width="24" height="24" fill="none" viewBox="0 0 24 24">
  <path fill="#191E26" d="M19.331 6.851a6.036 6.036 0 0 0-1.364.563c-.398.27-.736.605-1.006.981a1.34 1.34 0 0 0-.286.853c0 .742.562 1.305 1.302 1.358 2.25.16 4.024 1.975 4.024 4.191 0 2.321-1.946 4.203-4.347 4.203-2.312 0-3.821-1.678-4.406-3.928-.96-3.696 1.001-7.541 3.792-9.264.74-.456 1.218-.585 1.822-.761.604-.176.98.162 1.11.66a.937.937 0 0 1-.64 1.144Zm-11.001 0a6.036 6.036 0 0 0-1.365.563c-.398.27-.736.605-1.006.981a1.34 1.34 0 0 0-.286.853c0 .742.562 1.305 1.302 1.358 2.25.16 4.024 1.975 4.024 4.191 0 2.321-1.946 4.203-4.347 4.203-2.312 0-3.821-1.678-4.406-3.928-.96-3.696 1.001-7.541 3.792-9.264.74-.456 1.218-.585 1.822-.761.604-.176.98.162 1.11.66a.937.937 0 0 1-.64 1.144Z"/>
</svg>
